Picaflor-16 pt.ufo
<glyph name="exclam" format="2">
	<advance width="192"/>
	<unicode hex="0021"/>
	<outline>
		<contour>
			<point x="87" y="123" type="line"/>
			<point x="105" y="123" type="line"/>
			<point x="147" y="672" type="line"/>
			<point x="45" y="672" type="line"/>
		</contour>
		<contour>
			<point x="96" y="621" type="curve" smooth="yes"/>
			<point x="124" y="621"/>
			<point x="147" y="644"/>
			<point x="147" y="672" type="curve" smooth="yes"/>
			<point x="147" y="700"/>
			<point x="124" y="723"/>
			<point x="96" y="723" type="curve" smooth="yes"/>
			<point x="68" y="723"/>
			<point x="45" y="700"/>
			<point x="45" y="672" type="curve" smooth="yes"/>
			<point x="45" y="644"/>
			<point x="68" y="621"/>
		</contour>
		<component base="period" xOffset="20"/>
	</outline>
</glyph>
<glyph name="numbersign" format="2">
	<advance width="337.5"/>
	<unicode hex="0023"/>
	<outline>
		<contour>
			<point x="153.5" y="0" type="line"/>
			<point x="182" y="0" type="line"/>
			<point x="282" y="700" type="line"/>
			<point x="253.5" y="700" type="line"/>
		</contour>
		<contour>
			<point x="35" y="210" type="line"/>
			<point x="263.5" y="210" type="line"/>
			<point x="263.5" y="238" type="line"/>
			<point x="35" y="238" type="line"/>
		</contour>
		<contour>
			<point x="52.5" y="0" type="line"/>
			<point x="81" y="0" type="line"/>
			<point x="181" y="700" type="line"/>
			<point x="152.5" y="700" type="line"/>
		</contour>
		<contour>
			<point x="74" y="482" type="line"/>
			<point x="302.5" y="482" type="line"/>
			<point x="302.5" y="510" type="line"/>
			<point x="74" y="510" type="line"/>
		</contour>
	</outline>
</glyph>
<glyph name="ampersand" format="2">
	<advance width="797"/>
	<unicode hex="0026"/>
	<guideline x="211" y="600.5" angle="0"/>
	<outline>
		<contour>
			<point x="601.5" y="-8" type="curve" smooth="yes"/>
			<point x="704" y="-7.5"/>
			<point x="772" y="45.5"/>
			<point x="772" y="125" type="curve" smooth="yes"/>
			<point x="772" y="180"/>
			<point x="739.5" y="217"/>
			<point x="670" y="217" type="curve"/>
			<point x="669" y="200" type="line"/>
			<point x="692" y="198"/>
			<point x="707" y="185"/>
			<point x="707" y="139" type="curve" smooth="yes"/>
			<point x="707" y="67.5"/>
			<point x="665" y="20"/>
			<point x="601.5" y="20" type="curve" smooth="yes"/>
			<point x="486" y="20"/>
			<point x="421" y="178.5"/>
			<point x="300.5" y="421" type="curve" smooth="yes"/>
			<point x="265" y="493.5"/>
			<point x="241" y="565.5"/>
			<point x="241" y="600.5" type="curve" smooth="yes"/>
			<point x="241" y="639"/>
			<point x="269.5" y="680"/>
			<point x="330.5" y="680" type="curve"/>
			<point x="337" y="708" type="line"/>
			<point x="246" y="708"/>
			<point x="154.5" y="661"/>
			<point x="154.5" y="567.5" type="curve" smooth="yes"/>
			<point x="154.5" y="517"/>
			<point x="168" y="452"/>
			<point x="203.5" y="386.5" type="curve" smooth="yes"/>
			<point x="253.5" y="294.5"/>
			<point x="308" y="197"/>
			<point x="371.5" y="122.5" type="curve" smooth="yes"/>
			<point x="436.5" y="46"/>
			<point x="511.5" y="-8.5"/>
		</contour>
		<contour>
			<point x="251" y="414.5" type="curve"/>
			<point x="225" y="417.5" type="line"/>
			<point x="90" y="375"/>
			<point x="25" y="282.5"/>
			<point x="25" y="194.5" type="curve" smooth="yes"/>
			<point x="25" y="89.5"/>
			<point x="116.5" y="-8.5"/>
			<point x="290" y="-8.5" type="curve" smooth="yes"/>
			<point x="509.5" y="-8.5"/>
			<point x="662.5" y="162.5"/>
			<point x="662.5" y="286" type="curve" smooth="yes"/>
			<point x="662.5" y="356"/>
			<point x="613.5" y="421"/>
			<point x="499" y="421" type="curve"/>
			<point x="499" y="403" type="line"/>
			<point x="547" y="403"/>
			<point x="567.5" y="368.5"/>
			<point x="567.5" y="319" type="curve" smooth="yes"/>
			<point x="567.5" y="164"/>
			<point x="427.5" y="20"/>
			<point x="290" y="20" type="curve" smooth="yes"/>
			<point x="192" y="20"/>
			<point x="126.5" y="95.5"/>
			<point x="126.5" y="208.5" type="curve" smooth="yes"/>
			<point x="126.5" y="295"/>
			<point x="167" y="383"/>
		</contour>
		<contour>
			<point x="251" y="397.5" type="curve"/>
			<point x="293.5" y="389.5" type="line"/>
			<point x="422.5" y="403"/>
			<point x="506" y="487.5"/>
			<point x="506" y="570.5" type="curve" smooth="yes"/>
			<point x="506" y="642.5"/>
			<point x="443.5" y="708"/>
			<point x="337" y="708" type="curve"/>
			<point x="330.5" y="680" type="line"/>
			<point x="381.5" y="680"/>
			<point x="416" y="649"/>
			<point x="416" y="588.5" type="curve" smooth="yes"/>
			<point x="416" y="508.5"/>
			<point x="356" y="410"/>
		</contour>
	</outline>
</glyph>
<glyph name="parenleft" format="2">
	<advance width="250.5"/>
	<unicode hex="0028"/>
	<outline>
		<contour>
			<point x="35" y="350" type="curve" smooth="yes"/>
			<point x="35" y="177.5"/>
			<point x="105" y="-2"/>
			<point x="210" y="-53.5" type="curve"/>
			<point x="220.5" y="-39" type="line"/>
			<point x="170.5" y="11"/>
			<point x="137" y="166.5"/>
			<point x="137" y="350" type="curve" smooth="yes"/>
			<point x="137" y="533.5"/>
			<point x="170.5" y="689"/>
			<point x="220.5" y="739" type="curve"/>
			<point x="210" y="753.5" type="line"/>
			<point x="105" y="702"/>
			<point x="35" y="522.5"/>
		</contour>
	</outline>
</glyph>
<glyph name="asterisk" format="2">
	<advance width="294"/>
	<unicode hex="002A"/>
	<outline>
		<contour>
			<point x="197.5" y="465" type="line"/>
			<point x="246.5" y="515" type="line"/>
			<point x="156" y="575" type="line"/>
			<point x="147" y="575" type="line"/>
			<point x="145" y="575" type="line"/>
		</contour>
		<contour>
			<point x="96.5" y="465" type="line"/>
			<point x="149" y="575" type="line"/>
			<point x="147" y="575" type="line"/>
			<point x="138" y="575" type="line"/>
			<point x="47.5" y="515" type="line"/>
		</contour>
		<contour>
			<point x="140.5" y="568" type="line"/>
			<point x="147" y="575" type="line"/>
			<point x="60" y="655" type="line"/>
			<point x="30" y="594.5" type="line"/>
		</contour>
		<contour>
			<point x="142.5" y="575" type="line"/>
			<point x="147" y="575" type="line"/>
			<point x="147" y="700" type="line"/>
			<point x="112" y="700" type="line"/>
		</contour>
		<contour>
			<point x="147" y="575" type="line"/>
			<point x="151.5" y="575" type="line"/>
			<point x="182" y="700" type="line"/>
			<point x="147" y="700" type="line"/>
		</contour>
		<contour>
			<point x="153.5" y="568" type="line"/>
			<point x="264" y="594.5" type="line"/>
			<point x="234" y="655" type="line"/>
			<point x="147" y="575" type="line"/>
		</contour>
	</outline>
</glyph>
<glyph name="plus" format="2">
	<advance width="360"/>
	<unicode hex="002B"/>
	<outline>
		<contour>
			<point x="164" y="120" type="line"/>
			<point x="196" y="120" type="line"/>
			<point x="196" y="450" type="line"/>
			<point x="164" y="450" type="line"/>
		</contour>
		<contour>
			<point x="15" y="269" type="line"/>
			<point x="345" y="269" type="line"/>
			<point x="345" y="301" type="line"/>
			<point x="15" y="301" type="line"/>
		</contour>
	</outline>
</glyph>
<glyph name="comma" format="2">
	<advance width="180"/>
	<unicode hex="002C"/>
	<guideline x="190.5" y="96" angle="0"/>
	<outline>
		<contour>
			<point x="42" y="-113.5" type="curve"/>
			<point x="55.5" y="-125.5" type="line"/>
			<point x="120" y="-57"/>
			<point x="145" y="0"/>
			<point x="145" y="45.5" type="curve" smooth="yes"/>
			<point x="145" y="76"/>
			<point x="125.5" y="96"/>
			<point x="96" y="96" type="curve" smooth="yes"/>
			<point x="56.5" y="96"/>
			<point x="35" y="60"/>
			<point x="35" y="29.5" type="curve" smooth="yes"/>
			<point x="35" y="3.5"/>
			<point x="51.5" y="-14.5"/>
			<point x="71" y="-14.5" type="curve" smooth="yes"/>
			<point x="77.5" y="-14.5"/>
			<point x="84.5" y="-12.5"/>
			<point x="91" y="-8" type="curve" smooth="yes"/>
			<point x="96.5" y="-4.5"/>
			<point x="100.5" y="0"/>
			<point x="105" y="0" type="curve" smooth="yes"/>
			<point x="107.5" y="0"/>
			<point x="109.5" y="-2.5"/>
			<point x="109.5" y="-6.5" type="curve" smooth="yes"/>
			<point x="109.5" y="-35"/>
			<point x="75" y="-76.5"/>
		</contour>
	</outline>
</glyph>
<glyph name="hyphen" format="2">
	<advance width="240"/>
	<unicode hex="002D"/>
	<outline>
		<contour>
			<point x="15" y="269" type="line"/>
			<point x="225" y="269" type="line"/>
			<point x="225" y="301" type="line"/>
			<point x="15" y="301" type="line"/>
		</contour>
	</outline>
</glyph>
<glyph name="slash" format="2">
	<advance width="198.5"/>
	<unicode hex="002F"/>
	<outline>
		<contour>
			<point x="35" y="-50" type="line"/>
			<point x="63.5" y="-50" type="line"/>
			<point x="163.5" y="750" type="line"/>
			<point x="135" y="750" type="line"/>
		</contour>
	</outline>
</glyph>
<glyph name="zero" format="2">
	<advance width="480"/>
	<unicode hex="0030"/>
	<outline>
		<contour>
			<point x="240" y="-8" type="curve" smooth="yes"/>
			<point x="363" y="-8"/>
			<point x="445" y="132"/>
			<point x="445" y="350" type="curve" smooth="yes"/>
			<point x="445" y="568"/>
			<point x="363" y="708"/>
			<point x="240" y="708" type="curve" smooth="yes"/>
			<point x="117" y="708"/>
			<point x="35" y="568"/>
			<point x="35" y="350" type="curve" smooth="yes"/>
			<point x="35" y="132"/>
			<point x="117" y="-8"/>
		</contour>
		<contour>
			<point x="240" y="20" type="curve" smooth="yes"/>
			<point x="183" y="20"/>
			<point x="145" y="137.5"/>
			<point x="145" y="350" type="curve" smooth="yes"/>
			<point x="145" y="562.5"/>
			<point x="183" y="680"/>
			<point x="240" y="680" type="curve" smooth="yes"/>
			<point x="297" y="680"/>
			<point x="335" y="562.5"/>
			<point x="335" y="350" type="curve" smooth="yes"/>
			<point x="335" y="137.5"/>
			<point x="297" y="20"/>
		</contour>
	</outline>
</glyph>
<glyph name="one" format="2">
	<advance width="352"/>
	<unicode hex="0031"/>
	<guideline x="333.5" y="540" angle="90"/>
	<guideline x="115.5" y="737" angle="0"/>
	<outline>
		<contour>
			<point x="157" y="0" type="line"/>
			<point x="257" y="0" type="line"/>
			<point x="257" y="737" type="line"/>
			<point x="231.5" y="688" type="line"/>
			<point x="157" y="579.5" type="line"/>
		</contour>
		<contour>
			<point x="20" y="500" type="curve"/>
			<point x="54.5" y="314.5" type="line"/>
			<point x="72.5" y="314.5" type="line"/>
			<point x="59" y="420"/>
			<point x="75.5" y="469"/>
			<point x="157" y="560.5" type="curve"/>
			<point x="203.5" y="606.5"/>
			<point x="232" y="643"/>
			<point x="257" y="737" type="curve"/>
			<point x="249" y="737" type="line"/>
			<point x="205" y="632"/>
			<point x="104.5" y="537"/>
		</contour>
		<component base="_part.longserif" xScale="-1" yScale="-1" xOffset="362" yOffset="700"/>
		<component base="_part.longserif" xScale="-1" yScale="-1" xOffset="337" yOffset="700"/>
	</outline>
</glyph>
<glyph name="two" format="2">
	<advance width="433"/>
	<unicode hex="0032"/>
	<outline>
		<contour>
			<point x="40" y="0" type="curve"/>
			<point x="88" y="0" type="line"/>
			<point x="261.5" y="189.5"/>
			<point x="395.5" y="408.5"/>
			<point x="395.5" y="561.5" type="curve" smooth="yes"/>
			<point x="395.5" y="653.5"/>
			<point x="325.5" y="715"/>
			<point x="242.5" y="715" type="curve" smooth="yes"/>
			<point x="188" y="715"/>
			<point x="149.5" y="698.5"/>
			<point x="112.5" y="673.5" type="curve" smooth="yes"/>
			<point x="101.5" y="666"/>
			<point x="87.5" y="658.5"/>
			<point x="78" y="658.5" type="curve" smooth="yes"/>
			<point x="64" y="658.5"/>
			<point x="57" y="668"/>
			<point x="43" y="705" type="curve"/>
			<point x="25" y="703" type="line"/>
			<point x="90" y="477" type="line"/>
			<point x="108" y="477" type="line"/>
			<point x="105" y="510" type="line" smooth="yes"/>
			<point x="96.5" y="606"/>
			<point x="110.5" y="680"/>
			<point x="204.5" y="680" type="curve" smooth="yes"/>
			<point x="261.5" y="680"/>
			<point x="291" y="647"/>
			<point x="291" y="571.5" type="curve" smooth="yes"/>
			<point x="291" y="445"/>
			<point x="187.5" y="217"/>
		</contour>
		<contour>
			<point x="65" y="0" type="line"/>
			<point x="351" y="0" type="line"/>
			<point x="351" y="28" type="line"/>
			<point x="65" y="28" type="line"/>
		</contour>
		<contour>
			<point x="326" y="0" type="line"/>
			<point x="386" y="0" type="line"/>
			<point x="408" y="233" type="line"/>
			<point x="390" y="233" type="line"/>
		</contour>
	</outline>
</glyph>
<glyph name="three" format="2">
	<advance width="438.5"/>
	<unicode hex="0033"/>
	<outline>
		<contour>
			<point x="61" y="325.5" type="line"/>
			<point x="79" y="325.5" type="line"/>
			<point x="150" y="425" type="line"/>
			<point x="413.5" y="700" type="line"/>
			<point x="271" y="700" type="line"/>
		</contour>
		<contour>
			<point x="202" y="-8" type="curve"/>
			<point x="202" y="20" type="line"/>
			<point x="121.5" y="20"/>
			<point x="84.5" y="76"/>
			<point x="95" y="190" type="curve" smooth="yes"/>
			<point x="98" y="223" type="line"/>
			<point x="80" y="223" type="line"/>
			<point x="15" y="-3" type="line"/>
			<point x="33" y="-5" type="line"/>
			<point x="43" y="21"/>
			<point x="52" y="33"/>
			<point x="68" y="33" type="curve" smooth="yes"/>
			<point x="91" y="33"/>
			<point x="141" y="-8"/>
		</contour>
		<contour>
			<point x="202" y="20" type="curve"/>
			<point x="202" y="-8" type="line"/>
			<point x="326" y="-8"/>
			<point x="409" y="89.5"/>
			<point x="409" y="236" type="curve"/>
			<point x="309" y="236" type="line"/>
			<point x="309" y="95.5"/>
			<point x="266" y="21.5"/>
		</contour>
		<contour>
			<point x="309" y="236" type="curve"/>
			<point x="409" y="236" type="line"/>
			<point x="409" y="355.5"/>
			<point x="357.5" y="474.5"/>
			<point x="258.5" y="474.5" type="curve" smooth="yes"/>
			<point x="193" y="474.5"/>
			<point x="121.5" y="418"/>
			<point x="67" y="325.5" type="curve"/>
			<point x="79" y="325.5" type="line"/>
			<point x="143" y="416"/>
			<point x="194.5" y="439.5"/>
			<point x="232.5" y="439.5" type="curve" smooth="yes"/>
			<point x="282.5" y="439.5"/>
			<point x="309" y="383"/>
		</contour>
		<contour>
			<point x="96" y="467" type="line"/>
			<point x="114" y="467" type="line"/>
			<point x="92" y="700" type="line"/>
			<point x="32" y="700" type="line"/>
		</contour>
		<contour>
			<point x="72" y="672" type="line"/>
			<point x="328" y="672" type="line"/>
			<point x="328" y="700" type="line"/>
			<point x="72" y="700" type="line"/>
		</contour>
	</outline>
</glyph>
<glyph name="four" format="2">
	<advance width="498"/>
	<unicode hex="0034"/>
	<outline>
		<contour>
			<point x="3.5" y="140" type="line"/>
			<point x="34" y="140" type="line"/>
			<point x="362.5" y="717.5" type="line"/>
			<point x="362.5" y="775" type="line"/>
		</contour>
		<contour>
			<point x="30" y="140" type="line"/>
			<point x="426" y="140" type="line"/>
			<point x="426" y="168" type="line"/>
			<point x="46.5" y="168" type="line"/>
		</contour>
		<contour>
			<point x="31" y="140" type="line"/>
			<point x="98" y="140" type="line"/>
			<point x="98" y="215"/>
			<point x="139.5" y="322.5"/>
			<point x="187" y="409" type="curve"/>
			<point x="180" y="413.5" type="line"/>
		</contour>
		<contour>
			<point x="262.5" y="0" type="line"/>
			<point x="362.5" y="0" type="line"/>
			<point x="362.5" y="737" type="line"/>
			<point x="262.5" y="551" type="line"/>
		</contour>
		<contour>
			<point x="391" y="140" type="line"/>
			<point x="451" y="140" type="line"/>
			<point x="473" y="373" type="line"/>
			<point x="455" y="373" type="line"/>
		</contour>
		<component base="_part.longserif" xScale="-1" yScale="-1" xOffset="467.500" yOffset="700"/>
	</outline>
</glyph>
<glyph name="five" format="2">
	<advance width="442"/>
	<unicode hex="0035"/>
	<outline>
		<contour>
			<point x="314" y="236" type="curve"/>
			<point x="414" y="236" type="line"/>
			<point x="414" y="378"/>
			<point x="340" y="472.5"/>
			<point x="228.5" y="472.5" type="curve" smooth="yes"/>
			<point x="185.5" y="472.5"/>
			<point x="152.5" y="453.5"/>
			<point x="135" y="425" type="curve"/>
			<point x="76" y="425" type="line"/>
			<point x="76" y="325.5" type="line"/>
			<point x="94" y="325.5" type="line"/>
			<point x="116" y="394.5"/>
			<point x="161.5" y="440.5"/>
			<point x="208" y="440.5" type="curve" smooth="yes"/>
			<point x="271.5" y="440.5"/>
			<point x="314" y="370.5"/>
		</contour>
		<contour>
			<point x="207" y="-8" type="curve"/>
			<point x="207" y="20" type="line"/>
			<point x="126.5" y="20"/>
			<point x="89.5" y="76"/>
			<point x="100" y="190" type="curve" smooth="yes"/>
			<point x="103" y="223" type="line"/>
			<point x="85" y="223" type="line"/>
			<point x="20" y="-3" type="line"/>
			<point x="38" y="-5" type="line"/>
			<point x="48" y="21"/>
			<point x="57" y="33"/>
			<point x="73" y="33" type="curve" smooth="yes"/>
			<point x="96" y="33"/>
			<point x="146" y="-8"/>
		</contour>
		<contour>
			<point x="207" y="20" type="curve"/>
			<point x="207" y="-8" type="line"/>
			<point x="331" y="-8"/>
			<point x="414" y="89.5"/>
			<point x="414" y="236" type="curve"/>
			<point x="314" y="236" type="line"/>
			<point x="314" y="96"/>
			<point x="271" y="21.5"/>
		</contour>
		<contour>
			<point x="76" y="400" type="line"/>
			<point x="110" y="400" type="line"/>
			<point x="175.5" y="453" type="line"/>
			<point x="176" y="700" type="line"/>
			<point x="76" y="700" type="line"/>
		</contour>
		<contour>
			<point x="126" y="672" type="line"/>
			<point x="377" y="672" type="line"/>
			<point x="377" y="700" type="line"/>
			<point x="126" y="700" type="line"/>
		</contour>
		<contour>
			<point x="335" y="467" type="line"/>
			<point x="353" y="467" type="line"/>
			<point x="417" y="700" type="line"/>
			<point x="357" y="700" type="line"/>
		</contour>
	</outline>
</glyph>
<glyph name="six" format="2">
	<advance width="505.5"/>
	<unicode hex="0036"/>
	<guideline x="245" y="-8" angle="90"/>
	<guideline x="220" y="15" angle="90"/>
	<guideline x="235" y="437" angle="90"/>
	<outline>
		<contour>
			<point x="265" y="-8" type="curve" smooth="yes"/>
			<point x="388.5" y="-8"/>
			<point x="470.5" y="83.5"/>
			<point x="470.5" y="221" type="curve"/>
			<point x="375" y="221" type="line"/>
			<point x="375" y="89"/>
			<point x="331" y="20.5"/>
			<point x="265" y="20" type="curve" smooth="yes"/>
			<point x="264" y="20"/>
			<point x="263" y="20"/>
			<point x="262.5" y="20" type="curve" smooth="yes"/>
			<point x="200.5" y="22.5"/>
			<point x="140" y="104.5"/>
			<point x="140" y="221" type="curve"/>
			<point x="135" y="350" type="line"/>
			<point x="35" y="350" type="line"/>
			<point x="35" y="135"/>
			<point x="127" y="-8"/>
		</contour>
		<contour>
			<point x="107.5" y="221" type="curve"/>
			<point x="140" y="221" type="line"/>
			<point x="140" y="350"/>
			<point x="190" y="416.5"/>
			<point x="265" y="417" type="curve"/>
			<point x="265" y="445" type="line"/>
			<point x="167.5" y="445"/>
			<point x="107.5" y="355.5"/>
		</contour>
		<contour>
			<point x="35" y="350" type="curve"/>
			<point x="135" y="350" type="line"/>
			<point x="135" y="558"/>
			<point x="188" y="680"/>
			<point x="295" y="680" type="curve"/>
			<point x="295" y="708" type="line"/>
			<point x="107" y="708"/>
			<point x="35" y="526"/>
		</contour>
		<contour>
			<point x="375" y="221" type="curve"/>
			<point x="470.5" y="221" type="line"/>
			<point x="470.5" y="355.5"/>
			<point x="388.5" y="445"/>
			<point x="265" y="445" type="curve"/>
			<point x="265" y="417" type="line"/>
			<point x="331" y="416.5"/>
			<point x="375" y="350"/>
		</contour>
		<contour>
			<point x="386" y="510" type="curve" smooth="yes"/>
			<point x="383" y="477" type="line"/>
			<point x="401" y="477" type="line"/>
			<point x="468" y="703" type="line"/>
			<point x="448" y="705" type="line"/>
			<point x="438" y="679"/>
			<point x="429" y="667"/>
			<point x="413" y="667" type="curve" smooth="yes"/>
			<point x="390" y="667"/>
			<point x="351" y="708"/>
			<point x="295" y="708" type="curve"/>
			<point x="295" y="680" type="line"/>
			<point x="380" y="680"/>
			<point x="395" y="609"/>
		</contour>
		<contour>
			<point x="295" y="680" type="line"/>
			<point x="295" y="708" type="line"/>
		</contour>
	</outline>
</glyph>
<glyph name="seven" format="2">
	<advance width="453"/>
	<unicode hex="0037"/>
	<outline>
		<contour>
			<point x="104" y="-110.5" type="line"/>
			<point x="122" y="-110.5" type="line"/>
			<point x="423" y="700" type="line"/>
			<point x="316.5" y="700" type="line"/>
			<point x="208" y="408" type="line"/>
		</contour>
		<contour>
			<point x="63" y="380" type="line"/>
			<point x="404" y="380" type="line"/>
			<point x="404" y="408" type="line"/>
			<point x="63" y="408" type="line"/>
		</contour>
		<contour>
			<point x="94" y="467" type="line"/>
			<point x="112" y="467" type="line"/>
			<point x="90" y="700" type="line"/>
			<point x="30" y="700" type="line"/>
		</contour>
		<contour>
			<point x="83" y="672" type="line"/>
			<point x="395" y="672" type="line"/>
			<point x="395" y="700" type="line"/>
			<point x="83" y="700" type="line"/>
		</contour>
	</outline>
</glyph>
<glyph name="eight" format="2">
	<advance width="523"/>
	<unicode hex="0038"/>
	<guideline x="202" y="393" angle="0"/>
	<guideline x="231.5" y="399.5" angle="90"/>
	<outline>
		<contour>
			<point x="25" y="195.5" type="curve"/>
			<point x="125" y="195.5" type="line"/>
			<point x="125" y="313.5"/>
			<point x="185.5" y="382"/>
			<point x="261.5" y="381.5" type="curve" smooth="yes"/>
			<point x="337.5" y="381"/>
			<point x="398" y="312.5"/>
			<point x="398" y="195.5" type="curve"/>
			<point x="498" y="195.5" type="line"/>
			<point x="498" y="321"/>
			<point x="394.5" y="409.5"/>
			<point x="261.5" y="409.5" type="curve" smooth="yes"/>
			<point x="128.5" y="409.5"/>
			<point x="25" y="321"/>
		</contour>
		<contour>
			<point x="261.5" y="-8" type="curve" smooth="yes"/>
			<point x="394.5" y="-8"/>
			<point x="498" y="70"/>
			<point x="498" y="195.5" type="curve"/>
			<point x="398" y="195.5" type="line"/>
			<point x="398" y="78.5"/>
			<point x="337.5" y="20.5"/>
			<point x="261.5" y="20" type="curve" smooth="yes"/>
			<point x="185.5" y="19.5"/>
			<point x="125" y="77.5"/>
			<point x="125" y="195.5" type="curve"/>
			<point x="25" y="195.5" type="line"/>
			<point x="25" y="70"/>
			<point x="128.5" y="-8"/>
		</contour>
		<contour>
			<point x="261.5" y="393" type="curve"/>
			<point x="261.5" y="409.5" type="line"/>
			<point x="200" y="409.5"/>
			<point x="161.5" y="472.5"/>
			<point x="161.5" y="546" type="curve" smooth="yes"/>
			<point x="161.5" y="619"/>
			<point x="200" y="672"/>
			<point x="261.5" y="672" type="curve"/>
			<point x="261.5" y="700" type="line"/>
			<point x="134.5" y="700"/>
			<point x="66.5" y="623.5"/>
			<point x="66.5" y="546.5" type="curve" smooth="yes"/>
			<point x="66.5" y="470"/>
			<point x="134.5" y="393"/>
		</contour>
		<contour>
			<point x="261.5" y="409.5" type="curve"/>
			<point x="261.5" y="393" type="line"/>
			<point x="388.5" y="393"/>
			<point x="456.5" y="470"/>
			<point x="456.5" y="546.5" type="curve" smooth="yes"/>
			<point x="456.5" y="623.5"/>
			<point x="388.5" y="700"/>
			<point x="261.5" y="700" type="curve"/>
			<point x="261.5" y="672" type="line"/>
			<point x="323" y="672"/>
			<point x="361.5" y="619"/>
			<point x="361.5" y="546" type="curve" smooth="yes"/>
			<point x="361.5" y="472.5"/>
			<point x="323" y="409.5"/>
		</contour>
	</outline>
</glyph>
<glyph name="equal" format="2">
	<advance width="310"/>
	<unicode hex="003D"/>
	<outline>
		<contour>
			<point x="15" y="324" type="line"/>
			<point x="295" y="324" type="line"/>
			<point x="295" y="356" type="line"/>
			<point x="15" y="356" type="line"/>
		</contour>
		<contour>
			<point x="15" y="214" type="line"/>
			<point x="295" y="214" type="line"/>
			<point x="295" y="246" type="line"/>
			<point x="15" y="246" type="line"/>
		</contour>
	</outline>
</glyph>
<glyph name="question" format="2">
	<advance width="430"/>
	<unicode hex="003F"/>
	<outline>
		<contour>
			<point x="228" y="246.5" type="curve" smooth="yes"/>
			<point x="312.5" y="246.5"/>
			<point x="395" y="360"/>
			<point x="395" y="479" type="curve"/>
			<point x="295" y="479" type="line"/>
			<point x="295" y="349.5"/>
			<point x="260.5" y="284.5"/>
			<point x="213" y="284.5" type="curve" smooth="yes"/>
			<point x="161.5" y="284.5"/>
			<point x="115" y="323.5"/>
			<point x="97.5" y="404.5" type="curve"/>
			<point x="79.5" y="404.5" type="line"/>
			<point x="121.5" y="281.5" type="line"/>
			<point x="161.5" y="273" type="line"/>
			<point x="183" y="254.5"/>
			<point x="205.5" y="246.5"/>
		</contour>
		<contour>
			<point x="131" y="122.5" type="line"/>
			<point x="149" y="122.5" type="line"/>
			<point x="180.5" y="272.5" type="line"/>
			<point x="121" y="285" type="line"/>
			<point x="79.5" y="404.5" type="line"/>
		</contour>
		<contour>
			<point x="66.5" y="477" type="line"/>
			<point x="82.5" y="477" type="line"/>
			<point x="79.5" y="510" type="line" smooth="yes"/>
			<point x="69" y="624"/>
			<point x="131.5" y="680"/>
			<point x="212" y="680" type="curve"/>
			<point x="212" y="708" type="line"/>
			<point x="151" y="708"/>
			<point x="101" y="667"/>
			<point x="78" y="667" type="curve" smooth="yes"/>
			<point x="62" y="667"/>
			<point x="53" y="679"/>
			<point x="43" y="705" type="curve"/>
			<point x="25" y="703" type="line"/>
		</contour>
		<contour>
			<point x="295" y="479" type="curve"/>
			<point x="395" y="479" type="line"/>
			<point x="395" y="616.5"/>
			<point x="321" y="708"/>
			<point x="212" y="708" type="curve"/>
			<point x="212" y="680" type="line"/>
			<point x="285" y="678.5"/>
			<point x="295" y="610"/>
		</contour>
		<component base="period" xOffset="64"/>
	</outline>
</glyph>
<glyph name="A" format="2">
	<advance width="460"/>
	<unicode hex="0041"/>
	<unicode hex="0061"/>
	<guideline x="197" y="737" angle="90"/>
	<anchor x="394" y="0" name="ogonek"/>
	<anchor x="223" y="0" name="bottom"/>
	<anchor x="227" y="702.5" name="top"/>
	<outline>
		<contour>
			<point x="72" y="89" type="line"/>
			<point x="317" y="89" type="line"/>
			<point x="317" y="117" type="line"/>
			<point x="72" y="117" type="line"/>
		</contour>
		<component base="V" xScale="-1" yScale="-1" xOffset="460" yOffset="700"/>
	</outline>
</glyph>
<glyph name="B" format="2">
	<advance width="498"/>
	<unicode hex="0042"/>
	<unicode hex="0062"/>
	<anchor x="247" y="700" name="top"/>
	<anchor x="247" y="0" name="bottom"/>
	<outline>
		<contour>
			<point x="192" y="406" type="curve"/>
			<point x="192" y="393" type="line"/>
			<point x="349" y="393"/>
			<point x="432" y="484"/>
			<point x="432" y="566.5" type="curve" smooth="yes"/>
			<point x="432" y="646.5"/>
			<point x="359.5" y="700"/>
			<point x="251" y="700" type="curve" smooth="yes"/>
			<point x="192" y="700" type="line"/>
			<point x="192" y="672" type="line"/>
			<point x="214" y="672" type="line" smooth="yes"/>
			<point x="302.5" y="672"/>
			<point x="337" y="624.5"/>
			<point x="337" y="553" type="curve" smooth="yes"/>
			<point x="337" y="465"/>
			<point x="279" y="406"/>
		</contour>
		<contour>
			<point x="192" y="0" type="line"/>
			<point x="251" y="0" type="line" smooth="yes"/>
			<point x="390" y="0"/>
			<point x="473" y="80.5"/>
			<point x="473" y="201" type="curve"/>
			<point x="373" y="201" type="line"/>
			<point x="373" y="85"/>
			<point x="309.5" y="28"/>
			<point x="214" y="28" type="curve" smooth="yes"/>
			<point x="192" y="28" type="line"/>
		</contour>
		<contour>
			<point x="373" y="201" type="curve"/>
			<point x="473" y="201" type="line"/>
			<point x="473" y="318"/>
			<point x="390" y="396"/>
			<point x="251" y="396" type="curve" smooth="yes"/>
			<point x="192" y="396" type="line"/>
			<point x="192" y="378" type="line"/>
			<point x="214" y="378" type="line" smooth="yes"/>
			<point x="309.5" y="378"/>
			<point x="373" y="313"/>
		</contour>
		<component base="_part.halfstemleft" xOffset="10"/>
	</outline>
</glyph>
<glyph name="C" format="2">
	<advance width="460"/>
	<unicode hex="0043"/>
	<unicode hex="0063"/>
	<guideline x="385" y="307" angle="0"/>
	<guideline x="401" y="40" angle="0"/>
	<anchor x="260" y="708" name="top"/>
	<anchor x="260" y="-8" name="bottom"/>
	<outline>
		<contour>
			<point x="35" y="350" type="curve"/>
			<point x="145" y="350" type="line"/>
			<point x="145" y="558"/>
			<point x="183" y="680"/>
			<point x="260" y="680" type="curve"/>
			<point x="260" y="708" type="line"/>
			<point x="102" y="708"/>
			<point x="35" y="526"/>
		</contour>
		<contour>
			<point x="260" y="-8" type="curve"/>
			<point x="260" y="20" type="line"/>
			<point x="183" y="20"/>
			<point x="145" y="142"/>
			<point x="145" y="350" type="curve"/>
			<point x="35" y="350" type="line"/>
			<point x="35" y="174"/>
			<point x="102" y="-8"/>
		</contour>
		<contour>
			<point x="351" y="510" type="curve" smooth="yes"/>
			<point x="348" y="477" type="line"/>
			<point x="364" y="477" type="line"/>
			<point x="431" y="703" type="line"/>
			<point x="413" y="705" type="line"/>
			<point x="403" y="679"/>
			<point x="394" y="667"/>
			<point x="378" y="667" type="curve" smooth="yes"/>
			<point x="355" y="667"/>
			<point x="316" y="708"/>
			<point x="260" y="708" type="curve"/>
			<point x="260" y="680" type="line"/>
			<point x="345" y="680"/>
			<point x="360" y="609"/>
		</contour>
		<contour>
			<point x="260" y="20" type="curve"/>
			<point x="260" y="-8" type="line"/>
			<point x="298.5" y="-8"/>
			<point x="334" y="16"/>
			<point x="360" y="59" type="curve" smooth="yes"/>
			<point x="374" y="82"/>
			<point x="387" y="93"/>
			<point x="396.5" y="93" type="curve" smooth="yes"/>
			<point x="409.5" y="93"/>
			<point x="416" y="73.5"/>
			<point x="410" y="40" type="curve"/>
			<point x="428" y="40" type="line"/>
			<point x="432.5" y="60.5"/>
			<point x="435" y="85"/>
			<point x="435" y="112" type="curve" smooth="yes"/>
			<point x="435" y="177.5"/>
			<point x="421.5" y="258"/>
			<point x="396.5" y="332" type="curve"/>
			<point x="378.5" y="330" type="line"/>
			<point x="380.5" y="321"/>
			<point x="382" y="301"/>
			<point x="382" y="280" type="curve" smooth="yes"/>
			<point x="382" y="82"/>
			<point x="314" y="20"/>
		</contour>
	</outline>
</glyph>
<glyph name="D" format="2">
	<advance width="505"/>
	<unicode hex="0044"/>
	<unicode hex="0064"/>
	<anchor x="229" y="350" name="center"/>
	<anchor x="229" y="0" name="bottom"/>
	<anchor x="214" y="700" name="top"/>
	<outline>
		<contour>
			<point x="360" y="350" type="curve"/>
			<point x="470" y="350" type="line"/>
			<point x="470" y="526"/>
			<point x="377" y="700"/>
			<point x="214" y="700" type="curve" smooth="yes"/>
			<point x="163.5" y="700" type="line"/>
			<point x="163.5" y="672" type="line"/>
			<point x="214" y="672" type="line" smooth="yes"/>
			<point x="303.5" y="672"/>
			<point x="360" y="555"/>
		</contour>
		<contour>
			<point x="163.5" y="0" type="line"/>
			<point x="214" y="0" type="line" smooth="yes"/>
			<point x="377" y="0"/>
			<point x="470" y="184"/>
			<point x="470" y="350" type="curve"/>
			<point x="360" y="350" type="line"/>
			<point x="360" y="145"/>
			<point x="303.5" y="28"/>
			<point x="214" y="28" type="curve" smooth="yes"/>
			<point x="163.5" y="28" type="line"/>
		</contour>
		<component base="_part.stem" xOffset="-10"/>
		<component base="_part.shortserif" xOffset="-10"/>
		<component base="_part.shortserif" xOffset="-10" yOffset="-672"/>
	</outline>
</glyph>
<glyph name="E" format="2">
	<advance width="463"/>
	<unicode hex="0045"/>
	<unicode hex="0065"/>
	<anchor x="319" y="0" name="ogonek"/>
	<anchor x="232.5" y="700" name="top"/>
	<anchor x="20" y="700" name="topleft"/>
	<anchor x="219" y="0" name="bottom"/>
	<outline>
		<contour>
			<point x="328" y="0" type="line"/>
			<point x="378" y="0" type="line"/>
			<point x="433" y="168" type="line"/>
			<point x="415" y="168" type="line"/>
		</contour>
		<contour>
			<point x="225" y="0" type="line"/>
			<point x="361" y="0" type="line"/>
			<point x="361" y="28" type="line"/>
			<point x="225" y="28" type="line"/>
		</contour>
		<contour>
			<point x="291" y="309" type="line"/>
			<point x="310" y="309" type="line"/>
			<point x="310" y="427" type="line"/>
			<point x="268" y="427" type="line"/>
		</contour>
		<contour>
			<point x="185" y="409" type="line"/>
			<point x="310" y="409" type="line"/>
			<point x="310" y="437" type="line"/>
			<point x="185" y="437" type="line"/>
		</contour>
		<contour>
			<point x="268" y="419" type="line"/>
			<point x="310" y="419" type="line"/>
			<point x="310" y="537" type="line"/>
			<point x="291" y="537" type="line"/>
		</contour>
		<contour>
			<point x="385" y="532" type="line"/>
			<point x="403" y="532" type="line"/>
			<point x="378" y="700" type="line"/>
			<point x="328" y="700" type="line"/>
		</contour>
		<contour>
			<point x="245" y="672" type="line"/>
			<point x="371" y="672" type="line"/>
			<point x="371" y="700" type="line"/>
			<point x="245" y="700" type="line"/>
		</contour>
		<component base="_part.stemserifs" xOffset="-10"/>
	</outline>
</glyph>
<glyph name="F" format="2">
	<advance width="433"/>
	<unicode hex="0046"/>
	<unicode hex="0066"/>
	<anchor x="204" y="700" name="top"/>
	<anchor x="204" y="0" name="bottom"/>
	<outline>
		<contour>
			<point x="385" y="532" type="line"/>
			<point x="403" y="532" type="line"/>
			<point x="378" y="700" type="line"/>
			<point x="328" y="700" type="line"/>
		</contour>
		<contour>
			<point x="290" y="259" type="line"/>
			<point x="309" y="259" type="line"/>
			<point x="309" y="377" type="line"/>
			<point x="267" y="377" type="line"/>
		</contour>
		<contour>
			<point x="185" y="359" type="line"/>
			<point x="309" y="359" type="line"/>
			<point x="309" y="387" type="line"/>
			<point x="185" y="387" type="line"/>
		</contour>
		<contour>
			<point x="267" y="369" type="line"/>
			<point x="309" y="369" type="line"/>
			<point x="309" y="487" type="line"/>
			<point x="290" y="487" type="line"/>
		</contour>
		<contour>
			<point x="245" y="672" type="line"/>
			<point x="371" y="672" type="line"/>
			<point x="371" y="700" type="line"/>
			<point x="245" y="700" type="line"/>
		</contour>
		<component base="_part.stemserifs" xOffset="-10"/>
		<component base="_part.longserif" xScale="-1" yScale="-1" xOffset="310" yOffset="700"/>
	</outline>
</glyph>
<glyph name="G" format="2">
	<advance width="540"/>
	<unicode hex="0047"/>
	<unicode hex="0067"/>
	<guideline x="210" y="427" angle="90"/>
	<guideline x="494" y="-15" angle="0"/>
	<guideline x="329" y="477" angle="90"/>
	<anchor x="270" y="708" name="top"/>
	<anchor x="270" y="0" name="bottom"/>
	<outline>
		<contour>
			<point x="279" y="-8" type="curve"/>
			<point x="279" y="20" type="line"/>
			<point x="202" y="20"/>
			<point x="145" y="142"/>
			<point x="145" y="350" type="curve"/>
			<point x="35" y="350" type="line"/>
			<point x="35" y="174"/>
			<point x="121" y="-8"/>
		</contour>
		<contour>
			<point x="279" y="20" type="curve"/>
			<point x="279" y="-8" type="line"/>
			<point x="354" y="-8"/>
			<point x="357" y="30.5"/>
			<point x="405" y="30.5" type="curve" smooth="yes"/>
			<point x="427.5" y="30.5"/>
			<point x="441" y="20.5"/>
			<point x="441" y="0" type="curve"/>
			<point x="459" y="0" type="line"/>
			<point x="459" y="427" type="line"/>
			<point x="359" y="427" type="line"/>
			<point x="359" y="81.5" type="line" smooth="yes"/>
			<point x="359" y="62.5"/>
			<point x="350.5" y="47"/>
			<point x="336" y="36.5" type="curve" smooth="yes"/>
			<point x="322.5" y="26"/>
			<point x="302.5" y="20"/>
		</contour>
		<contour>
			<point x="35" y="350" type="curve"/>
			<point x="145" y="350" type="line"/>
			<point x="145" y="558"/>
			<point x="193" y="680"/>
			<point x="270" y="680" type="curve"/>
			<point x="270" y="708" type="line"/>
			<point x="112" y="708"/>
			<point x="35" y="526"/>
		</contour>
		<contour>
			<point x="362" y="510" type="curve" smooth="yes"/>
			<point x="359" y="477" type="line"/>
			<point x="375" y="477" type="line"/>
			<point x="442" y="703" type="line"/>
			<point x="424" y="705" type="line"/>
			<point x="414" y="679"/>
			<point x="405" y="667"/>
			<point x="389" y="667" type="curve" smooth="yes"/>
			<point x="366" y="667"/>
			<point x="327" y="708"/>
			<point x="270" y="708" type="curve"/>
			<point x="270" y="680" type="line"/>
			<point x="356" y="680"/>
			<point x="371" y="609"/>
		</contour>
		<component base="_part.longserif" xOffset="255" yOffset="-273"/>
		<component base="_part.longserif" xOffset="195" yOffset="-273"/>
	</outline>
</glyph>
<glyph name="H" format="2">
	<advance width="580"/>
	<unicode hex="0048"/>
	<unicode hex="0068"/>
	<anchor x="290" y="350" name="center"/>
	<anchor x="290" y="700" name="top"/>
	<anchor x="20" y="700" name="topleft"/>
	<anchor x="290" y="0" name="bottom"/>
	<outline>
		<contour>
			<point x="185" y="409" type="line"/>
			<point x="395" y="409" type="line"/>
			<point x="395" y="437" type="line"/>
			<point x="185" y="437" type="line"/>
		</contour>
		<component base="_part.stemserifs" xOffset="280"/>
		<component base="_part.stemserifs" xOffset="-10"/>
	</outline>
</glyph>
<glyph name="J" format="2">
	<advance width="424"/>
	<unicode hex="004A"/>
	<unicode hex="006A"/>
	<guideline x="-65.5" y="379.5" angle="90"/>
	<anchor x="225" y="700" name="top"/>
	<anchor x="225" y="0" name="bottom"/>
	<outline>
		<contour>
			<point x="199" y="-8" type="curve" smooth="yes"/>
			<point x="287" y="-8"/>
			<point x="339" y="45"/>
			<point x="339" y="140" type="curve"/>
			<point x="239" y="152" type="line"/>
			<point x="239" y="77"/>
			<point x="203" y="34"/>
			<point x="148" y="34" type="curve" smooth="yes"/>
			<point x="73" y="34"/>
			<point x="68" y="130"/>
			<point x="68" y="257" type="curve"/>
			<point x="40" y="237" type="line"/>
			<point x="40" y="51"/>
			<point x="72" y="-8"/>
		</contour>
		<contour>
			<point x="40" y="237" type="line"/>
			<point x="68" y="237" type="line"/>
			<point x="68" y="500" type="line"/>
			<point x="40" y="500" type="line"/>
		</contour>
		<contour>
			<point x="41" y="532" type="line"/>
			<point x="60" y="532" type="line"/>
			<point x="117" y="700" type="line"/>
			<point x="66" y="700" type="line"/>
		</contour>
		<contour>
			<point x="339" y="140" type="line"/>
			<point x="339" y="700" type="line"/>
			<point x="239" y="700" type="line"/>
			<point x="239" y="152" type="line"/>
		</contour>
		<contour>
			<point x="90" y="672" type="line"/>
			<point x="399" y="672" type="line"/>
			<point x="399" y="700" type="line"/>
			<point x="90" y="700" type="line"/>
		</contour>
	</outline>
</glyph>
<glyph name="K" format="2">
	<advance width="536"/>
	<unicode hex="004B"/>
	<unicode hex="006B"/>
	<anchor x="258" y="700" name="top"/>
	<anchor x="258" y="0" name="bottom"/>
	<outline>
		<contour>
			<point x="360" y="0" type="line"/>
			<point x="461" y="0" type="line"/>
			<point x="273" y="516" type="line"/>
			<point x="211" y="410" type="line"/>
		</contour>
		<contour>
			<point x="139.5" y="333" type="line"/>
			<point x="172" y="333" type="line"/>
			<point x="382" y="697" type="line"/>
			<point x="349.5" y="697" type="line"/>
		</contour>
		<contour>
			<point x="296" y="672" type="line"/>
			<point x="424" y="672" type="line"/>
			<point x="424" y="700" type="line"/>
			<point x="296" y="700" type="line"/>
		</contour>
		<component base="_part.stemserifs" xOffset="-10"/>
		<component base="_part.longserif" xOffset="246" yOffset="-672"/>
	</outline>
</glyph>
<glyph name="L" format="2">
	<advance width="413"/>
	<unicode hex="004C"/>
	<unicode hex="006C"/>
	<anchor x="145" y="350" name="center"/>
	<anchor x="145" y="700" name="top"/>
	<anchor x="393" y="700" name="topright"/>
	<anchor x="245" y="0" name="bottom"/>
	<outline>
		<contour>
			<point x="306" y="0" type="line"/>
			<point x="366" y="0" type="line"/>
			<point x="388" y="233" type="line"/>
			<point x="370" y="233" type="line"/>
		</contour>
		<contour>
			<point x="245" y="0" type="line"/>
			<point x="331" y="0" type="line"/>
			<point x="331" y="28" type="line"/>
			<point x="245" y="28" type="line"/>
		</contour>
		<component base="_part.stemserifs" xOffset="-10"/>
		<component base="_part.longserif" xScale="-1" xOffset="310"/>
	</outline>
</glyph>
<glyph name="M" format="2">
	<advance width="592"/>
	<unicode hex="004D"/>
	<unicode hex="006D"/>
	<anchor x="296" y="700" name="top"/>
	<anchor x="296" y="0" name="bottom"/>
	<outline>
		<contour>
			<point x="250" y="-58" type="line"/>
			<point x="296" y="178.5" type="line"/>
			<point x="194" y="700" type="line"/>
			<point x="102" y="700" type="line"/>
		</contour>
		<contour>
			<point x="237.5" y="21" type="line"/>
			<point x="262" y="3" type="line"/>
			<point x="398" y="700" type="line"/>
			<point x="369" y="700" type="line"/>
		</contour>
		<component base="_part.shortserif" xOffset="347"/>
		<component base="_part.stemthin" xOffset="10"/>
		<component base="_part.halfstemright" xOffset="292"/>
	</outline>
</glyph>
<glyph name="N" format="2">
	<advance width="520"/>
	<unicode hex="004E"/>
	<unicode hex="006E"/>
	<guideline x="415" y="201" angle="90"/>
	<guideline x="65" y="500" angle="90"/>
	<anchor x="280" y="700" name="top"/>
	<anchor x="260" y="0" name="bottom"/>
	<outline>
		<contour>
			<point x="435" y="-56.5" type="line"/>
			<point x="435" y="191" type="line"/>
			<point x="182" y="700" type="line"/>
			<point x="95" y="700" type="line"/>
			<point x="95" y="628" type="line"/>
		</contour>
		<component base="_part.shortserif" xOffset="312"/>
		<component base="_part.stemthin" xOffset="10"/>
		<component base="_part.verticalstrokethin" xOffset="332"/>
	</outline>
</glyph>
<glyph name="O" format="2">
	<advance width="520"/>
	<unicode hex="004F"/>
	<unicode hex="006F"/>
	<guideline x="-79" y="-8" angle="0"/>
	<anchor x="260" y="350" name="center"/>
	<anchor x="476" y="10" name="ogonek"/>
	<anchor x="260" y="700" name="top"/>
	<anchor x="510" y="700" name="topright"/>
	<anchor x="10" y="700" name="topleft"/>
	<anchor x="260" y="0" name="bottom"/>
	<outline>
		<contour>
			<point x="375" y="350" type="curve"/>
			<point x="485" y="350" type="line"/>
			<point x="485" y="526"/>
			<point x="418" y="708"/>
			<point x="260" y="708" type="curve"/>
			<point x="260" y="680" type="line"/>
			<point x="337" y="680"/>
			<point x="375" y="558"/>
		</contour>
		<contour>
			<point x="260" y="-8" type="curve"/>
			<point x="260" y="20" type="line"/>
			<point x="183" y="20"/>
			<point x="145" y="142"/>
			<point x="145" y="350" type="curve"/>
			<point x="35" y="350" type="line"/>
			<point x="35" y="174"/>
			<point x="102" y="-8"/>
		</contour>
		<contour>
			<point x="260" y="20" type="curve"/>
			<point x="260" y="-8" type="line"/>
			<point x="418" y="-8"/>
			<point x="485" y="174"/>
			<point x="485" y="350" type="curve"/>
			<point x="375" y="350" type="line"/>
			<point x="375" y="142"/>
			<point x="337" y="20"/>
		</contour>
		<contour>
			<point x="35" y="350" type="curve"/>
			<point x="145" y="350" type="line"/>
			<point x="145" y="558"/>
			<point x="183" y="680"/>
			<point x="260" y="680" type="curve"/>
			<point x="260" y="708" type="line"/>
			<point x="102" y="708"/>
			<point x="35" y="526"/>
		</contour>
	</outline>
</glyph>
<glyph name="P" format="2">
	<advance width="493"/>
	<unicode hex="0050"/>
	<unicode hex="0070"/>
	<outline>
		<contour>
			<point x="192" y="155" type="line"/>
			<point x="251" y="155" type="line" smooth="yes"/>
			<point x="381" y="155"/>
			<point x="458" y="273"/>
			<point x="458" y="450" type="curve"/>
			<point x="363" y="450" type="line"/>
			<point x="363" y="278"/>
			<point x="309.5" y="183"/>
			<point x="214" y="183" type="curve" smooth="yes"/>
			<point x="192" y="183" type="line"/>
		</contour>
		<contour>
			<point x="363" y="450" type="curve"/>
			<point x="458" y="450" type="line"/>
			<point x="458" y="600"/>
			<point x="381" y="700"/>
			<point x="251" y="700" type="curve" smooth="yes"/>
			<point x="192" y="700" type="line"/>
			<point x="192" y="672" type="line"/>
			<point x="214" y="672" type="line" smooth="yes"/>
			<point x="309.5" y="672"/>
			<point x="363" y="595"/>
		</contour>
		<component base="_part.halfstemleft" xOffset="10"/>
		<component base="_part.longserif" xScale="-1" yScale="-1" xOffset="310" yOffset="700"/>
	</outline>
</glyph>
<glyph name="Q" format="2">
	<advance width="500"/>
	<unicode hex="0051"/>
	<unicode hex="0071"/>
	<anchor x="250" y="700" name="top"/>
	<anchor x="250" y="0" name="bottom"/>
	<outline>
		<contour>
			<point x="412" y="-106" type="curve" smooth="yes"/>
			<point x="458" y="-106"/>
			<point x="482" y="-92"/>
			<point x="532" y="-37" type="curve"/>
			<point x="519" y="-24" type="line"/>
			<point x="481" y="-64"/>
			<point x="448" y="-78"/>
			<point x="427" y="-78" type="curve" smooth="yes"/>
			<point x="379.5" y="-78"/>
			<point x="356.5" y="-37"/>
			<point x="312" y="126" type="curve" smooth="yes"/>
			<point x="302" y="163.5"/>
			<point x="280" y="189"/>
			<point x="253" y="189" type="curve" smooth="yes"/>
			<point x="229.5" y="189"/>
			<point x="191.5" y="164.5"/>
			<point x="158.5" y="128" type="curve"/>
			<point x="167.5" y="112" type="line"/>
			<point x="178.5" y="122"/>
			<point x="191.5" y="129"/>
			<point x="200" y="129" type="curve" smooth="yes"/>
			<point x="230" y="129"/>
			<point x="250" y="86"/>
			<point x="273" y="37" type="curve" smooth="yes"/>
			<point x="303.5" y="-29"/>
			<point x="340" y="-106"/>
		</contour>
		<component base="O"/>
	</outline>
</glyph>
<glyph name="R" format="2">
	<advance width="493"/>
	<unicode hex="0052"/>
	<unicode hex="0072"/>
	<anchor x="252" y="700" name="top"/>
	<anchor x="302" y="0" name="bottom"/>
	<outline>
		<contour>
			<point x="477" y="-8" type="curve" smooth="yes"/>
			<point x="500" y="-8"/>
			<point x="520" y="-4"/>
			<point x="528" y="1" type="curve"/>
			<point x="525" y="28" type="line"/>
			<point x="522" y="27.5"/>
			<point x="517" y="26.5"/>
			<point x="514" y="26.5" type="curve" smooth="yes"/>
			<point x="409" y="26.5"/>
			<point x="435" y="217"/>
			<point x="376" y="317" type="curve" smooth="yes"/>
			<point x="343" y="375"/>
			<point x="269" y="386"/>
			<point x="181" y="386" type="curve"/>
			<point x="181" y="369" type="line"/>
			<point x="397" y="369"/>
			<point x="234" y="-8"/>
		</contour>
		<contour>
			<point x="192" y="396" type="curve"/>
			<point x="192" y="382" type="line"/>
			<point x="367" y="382"/>
			<point x="449" y="468"/>
			<point x="449" y="551" type="curve" smooth="yes"/>
			<point x="449" y="640.5"/>
			<point x="370" y="700"/>
			<point x="251" y="700" type="curve" smooth="yes"/>
			<point x="192" y="700" type="line"/>
			<point x="192" y="672" type="line"/>
			<point x="214" y="672" type="line" smooth="yes"/>
			<point x="315" y="672"/>
			<point x="354" y="623"/>
			<point x="354" y="550" type="curve" smooth="yes"/>
			<point x="354" y="457.5"/>
			<point x="289" y="396"/>
		</contour>
		<component base="_part.stemserifs" xOffset="-10"/>
	</outline>
</glyph>
<glyph name="S" format="2">
	<advance width="452.5"/>
	<unicode hex="0053"/>
	<unicode hex="0073"/>
	<guideline x="-61" y="330" angle="0"/>
	<guideline x="198.5" y="-8" angle="0"/>
	<guideline x="567.5" y="705" angle="0"/>
	<anchor x="248.5" y="708" name="top"/>
	<anchor x="224.5" y="0" name="bottom"/>
	<outline>
		<contour>
			<point x="228.5" y="-8" type="curve" smooth="yes"/>
			<point x="339.5" y="-8"/>
			<point x="421.5" y="73"/>
			<point x="421.5" y="194" type="curve" smooth="yes"/>
			<point x="421.5" y="281"/>
			<point x="355.5" y="344"/>
			<point x="310.5" y="389" type="curve" smooth="yes"/>
			<point x="265.5" y="434"/>
			<point x="162.5" y="528"/>
			<point x="162.5" y="606" type="curve" smooth="yes"/>
			<point x="162.5" y="647.5"/>
			<point x="197" y="680"/>
			<point x="248.5" y="680" type="curve" smooth="yes"/>
			<point x="339.5" y="680"/>
			<point x="349.5" y="609"/>
			<point x="340.5" y="510" type="curve" smooth="yes"/>
			<point x="337.5" y="477" type="line"/>
			<point x="355.5" y="477" type="line"/>
			<point x="422.5" y="703" type="line"/>
			<point x="402.5" y="705" type="line"/>
			<point x="392.5" y="679"/>
			<point x="383.5" y="667"/>
			<point x="367.5" y="667" type="curve" smooth="yes"/>
			<point x="344.5" y="667"/>
			<point x="305.5" y="708"/>
			<point x="248.5" y="708" type="curve" smooth="yes"/>
			<point x="149.5" y="708"/>
			<point x="80.5" y="642"/>
			<point x="80.5" y="550" type="curve" smooth="yes"/>
			<point x="80.5" y="457"/>
			<point x="183.5" y="363"/>
			<point x="228.5" y="318" type="curve" smooth="yes"/>
			<point x="273.5" y="273"/>
			<point x="339.5" y="215"/>
			<point x="339.5" y="128" type="curve" smooth="yes"/>
			<point x="339.5" y="63"/>
			<point x="295" y="20"/>
			<point x="228.5" y="20" type="curve" smooth="yes"/>
			<point x="84.5" y="20"/>
			<point x="89" y="153.5"/>
			<point x="127" y="330" type="curve"/>
			<point x="109" y="331.5" type="line"/>
			<point x="25" y="23.5" type="line"/>
			<point x="43" y="23.5" type="line"/>
			<point x="47" y="37.5"/>
			<point x="55" y="47.5"/>
			<point x="68" y="48" type="curve" smooth="yes"/>
			<point x="80.5" y="48.5"/>
			<point x="96" y="37"/>
			<point x="122" y="23.5" type="curve" smooth="yes"/>
			<point x="151" y="8.5"/>
			<point x="191.5" y="-8"/>
		</contour>
	</outline>
</glyph>
<glyph name="T" format="2">
	<advance width="450"/>
	<unicode hex="0054"/>
	<unicode hex="0074"/>
	<anchor x="225" y="350" name="center"/>
	<anchor x="225" y="0" name="bottom"/>
	<anchor x="225" y="700" name="top"/>
	<outline>
		<contour>
			<point x="407" y="467" type="line"/>
			<point x="425" y="467" type="line"/>
			<point x="403" y="700" type="line"/>
			<point x="343" y="700" type="line"/>
		</contour>
		<contour>
			<point x="25" y="467" type="line"/>
			<point x="43" y="467" type="line"/>
			<point x="107" y="700" type="line"/>
			<point x="47" y="700" type="line"/>
		</contour>
		<contour>
			<point x="69" y="672" type="line"/>
			<point x="155" y="672" type="line"/>
			<point x="155" y="700" type="line"/>
			<point x="69" y="700" type="line"/>
		</contour>
		<contour>
			<point x="295" y="672" type="line"/>
			<point x="381" y="672" type="line"/>
			<point x="381" y="700" type="line"/>
			<point x="295" y="700" type="line"/>
		</contour>
		<component base="_part.stemserifs" xOffset="70"/>
	</outline>
</glyph>
<glyph name="U" format="2">
	<advance width="474"/>
	<unicode hex="0055"/>
	<unicode hex="0075"/>
	<guideline x="55" y="140" angle="90"/>
	<guideline x="155" y="130" angle="0"/>
	<guideline x="344" y="222" angle="90"/>
	<guideline x="311" y="-8" angle="0"/>
	<anchor x="256" y="-8" name="ogonek"/>
	<anchor x="270" y="700" name="top"/>
	<anchor x="469" y="700" name="topright"/>
	<anchor x="240" y="0" name="bottom"/>
	<outline>
		<contour>
			<point x="256" y="-8" type="curve" smooth="yes"/>
			<point x="374.5" y="-8"/>
			<point x="404" y="37.5"/>
			<point x="404" y="219.5" type="curve"/>
			<point x="376" y="219.5" type="line"/>
			<point x="376" y="82"/>
			<point x="364" y="22.5"/>
			<point x="276.5" y="22.5" type="curve" smooth="yes"/>
			<point x="221.5" y="22.5"/>
			<point x="185" y="50.5"/>
			<point x="185" y="140" type="curve"/>
			<point x="85" y="140" type="line"/>
			<point x="85" y="51"/>
			<point x="146.5" y="-8"/>
		</contour>
		<contour>
			<point x="85" y="140" type="line"/>
			<point x="185" y="140" type="line"/>
			<point x="185" y="700" type="line"/>
			<point x="85" y="700" type="line"/>
		</contour>
		<contour>
			<point x="376" y="219.5" type="line"/>
			<point x="404" y="219.5" type="line"/>
			<point x="404" y="700" type="line"/>
			<point x="376" y="700" type="line"/>
		</contour>
		<component base="_part.longserif" xOffset="-20"/>
		<component base="_part.shortserif" xOffset="281"/>
	</outline>
</glyph>
<glyph name="V" format="2">
	<advance width="460"/>
	<unicode hex="0056"/>
	<unicode hex="0076"/>
	<anchor x="230" y="700" name="top"/>
	<anchor x="230" y="0" name="bottom"/>
	<outline>
		<contour>
			<point x="233" y="-37" type="line"/>
			<point x="285" y="156" type="line"/>
			<point x="139" y="700" type="line"/>
			<point x="35" y="700" type="line"/>
		</contour>
		<contour>
			<point x="233" y="-37" type="line"/>
			<point x="431" y="700" type="line"/>
			<point x="402" y="700" type="line"/>
			<point x="220" y="23" type="line"/>
		</contour>
		<component base="_part.longserif" xOffset="-60"/>
		<component base="_part.shortserif" xOffset="302"/>
	</outline>
</glyph>
<glyph name="W" format="2">
	<advance width="646"/>
	<unicode hex="0057"/>
	<unicode hex="0077"/>
	<guideline x="263.5" y="-37" angle="0"/>
	<anchor x="332.5" y="700" name="top"/>
	<anchor x="327.5" y="0" name="bottom"/>
	<outline>
		<contour>
			<point x="440.5" y="-37" type="line"/>
			<point x="492" y="187" type="line"/>
			<point x="373" y="700" type="line"/>
			<point x="271" y="700" type="line"/>
		</contour>
		<contour>
			<point x="212.5" y="-37" type="line"/>
			<point x="264" y="187" type="line"/>
			<point x="145" y="700" type="line"/>
			<point x="43" y="700" type="line"/>
		</contour>
		<contour>
			<point x="329" y="595" type="line"/>
			<point x="200.5" y="37" type="line"/>
			<point x="212.5" y="-37" type="line"/>
			<point x="358" y="595" type="line"/>
		</contour>
		<contour>
			<point x="440.5" y="-37" type="line"/>
			<point x="610" y="700" type="line"/>
			<point x="581.5" y="700" type="line"/>
			<point x="428.5" y="37" type="line"/>
		</contour>
		<component base="_part.longserif" xOffset="-60"/>
		<component base="_part.shortserif" xOffset="488"/>
		<component base="_part.longserif" xOffset="180"/>
	</outline>
</glyph>
<glyph name="X" format="2">
	<advance width="443"/>
	<unicode hex="0058"/>
	<unicode hex="0078"/>
	<guideline x="40" y="700" angle="90"/>
	<guideline x="-40" y="692" angle="90"/>
	<guideline x="436"/>
	<anchor x="240" y="700" name="top"/>
	<anchor x="240" y="0" name="bottom"/>
	<outline>
		<contour>
			<point x="297" y="0" type="line"/>
			<point x="398" y="0" type="line"/>
			<point x="143" y="700" type="line"/>
			<point x="42" y="700" type="line"/>
		</contour>
		<contour>
			<point x="25" y="0" type="line"/>
			<point x="54" y="0" type="line"/>
			<point x="224" y="398" type="line"/>
			<point x="195" y="398" type="line"/>
		</contour>
		<contour>
			<point x="198" y="337" type="line"/>
			<point x="227" y="337" type="line"/>
			<point x="382" y="700" type="line"/>
			<point x="353" y="700" type="line"/>
		</contour>
		<component base="_part.shortserif" xOffset="249"/>
		<component base="_part.shortserif" xOffset="-60" yOffset="-672"/>
		<component base="_part.longserif" xOffset="-60"/>
		<component base="_part.longserif" xOffset="193" yOffset="-672"/>
	</outline>
</glyph>
<glyph name="Y" format="2">
	<advance width="398"/>
	<unicode hex="0059"/>
	<unicode hex="0079"/>
	<anchor x="235" y="700" name="top"/>
	<anchor x="205" y="0" name="bottom"/>
	<anchor x="0" y="700" name="topleft"/>
	<outline>
		<contour>
			<point x="158" y="202" type="line"/>
			<point x="257" y="217.5" type="line"/>
			<point x="145.5" y="700" type="line"/>
			<point x="43" y="700" type="line"/>
		</contour>
		<contour>
			<point x="156.5" y="0" type="line"/>
			<point x="256.5" y="0" type="line"/>
			<point x="256.5" y="217.5" type="line"/>
			<point x="156.5" y="217.5" type="line"/>
		</contour>
		<contour>
			<point x="253.5" y="202" type="line"/>
			<point x="368.5" y="700" type="line"/>
			<point x="339.5" y="700" type="line"/>
			<point x="228" y="217.5" type="line"/>
		</contour>
		<component base="_part.longserif" xOffset="-60"/>
		<component base="_part.longserif" xScale="-1" yScale="-1" xOffset="361.500" yOffset="700"/>
		<component base="_part.shortserif" xOffset="240"/>
	</outline>
</glyph>
<glyph name="Z" format="2">
	<advance width="424"/>
	<unicode hex="005A"/>
	<unicode hex="007A"/>
	<anchor x="212" y="350" name="center"/>
	<anchor x="212" y="0" name="bottom"/>
	<anchor x="212" y="700" name="top"/>
	<outline>
		<contour>
			<point x="25" y="0" type="line"/>
			<point x="126" y="0" type="line"/>
			<point x="381" y="700" type="line"/>
			<point x="280" y="700" type="line"/>
		</contour>
		<contour>
			<point x="91" y="0" type="line"/>
			<point x="327" y="0" type="line"/>
			<point x="327" y="28" type="line"/>
			<point x="91" y="28" type="line"/>
		</contour>
		<contour>
			<point x="294" y="0" type="line"/>
			<point x="344" y="0" type="line"/>
			<point x="399" y="168" type="line"/>
			<point x="381" y="168" type="line"/>
		</contour>
		<contour>
			<point x="42" y="532" type="line"/>
			<point x="60" y="532" type="line"/>
			<point x="117" y="700" type="line"/>
			<point x="67" y="700" type="line"/>
		</contour>
		<contour>
			<point x="74" y="672" type="line"/>
			<point x="301" y="672" type="line"/>
			<point x="301" y="700" type="line"/>
			<point x="74" y="700" type="line"/>
		</contour>
	</outline>
</glyph>
<glyph name="bracketleft" format="2">
	<advance width="240"/>
	<unicode hex="005B"/>
	<outline>
		<contour>
			<point x="45" y="-50" type="line"/>
			<point x="125" y="-50" type="line"/>
			<point x="125" y="700" type="line"/>
			<point x="45" y="700" type="line"/>
		</contour>
		<contour>
			<point x="45" y="-50" type="line"/>
			<point x="205" y="-50" type="line"/>
			<point x="205" y="-18" type="line"/>
			<point x="45" y="-18" type="line"/>
		</contour>
		<contour>
			<point x="45" y="668" type="line"/>
			<point x="205" y="668" type="line"/>
			<point x="205" y="700" type="line"/>
			<point x="45" y="700" type="line"/>
		</contour>
	</outline>
</glyph>
<glyph name="underscore" format="2">
	<advance width="390"/>
	<unicode hex="005F"/>
	<outline>
		<contour>
			<point x="45" y="-37" type="line"/>
			<point x="345" y="-37" type="line"/>
			<point x="345" y="-5" type="line"/>
			<point x="45" y="-5" type="line"/>
		</contour>
	</outline>
</glyph>
<glyph name="braceleft" format="2">
	<advance width="275"/>
	<unicode hex="007B"/>
	<outline>
		<contour>
			<point x="80" y="550" type="curve"/>
			<point x="170" y="550" type="line"/>
			<point x="170" y="683.5"/>
			<point x="179.5" y="725"/>
			<point x="255" y="725.5" type="curve"/>
			<point x="255" y="753.5" type="line"/>
			<point x="115" y="754"/>
			<point x="80" y="684"/>
		</contour>
		<contour>
			<point x="255" y="-52.5" type="curve"/>
			<point x="255" y="-24.5" type="line"/>
			<point x="179.5" y="-24"/>
			<point x="170" y="17.5"/>
			<point x="170" y="151" type="curve"/>
			<point x="80" y="151" type="line"/>
			<point x="80" y="17"/>
			<point x="115" y="-53"/>
		</contour>
		<contour>
			<point x="80" y="151" type="curve"/>
			<point x="170" y="151" type="line"/>
			<point x="170" y="314.5"/>
			<point x="95" y="355"/>
			<point x="20" y="354.5" type="curve"/>
			<point x="20" y="336.5" type="line"/>
			<point x="68" y="336"/>
			<point x="80" y="307"/>
		</contour>
		<contour>
			<point x="20" y="364.5" type="curve"/>
			<point x="20" y="346.5" type="line"/>
			<point x="95" y="346"/>
			<point x="170" y="386.5"/>
			<point x="170" y="550" type="curve"/>
			<point x="80" y="550" type="line"/>
			<point x="80" y="394"/>
			<point x="68" y="365"/>
		</contour>
	</outline>
</glyph>
<glyph name="yen" format="2">
	<advance width="456"/>
	<unicode hex="00A5"/>
	<outline>
		<contour>
			<point x="186" y="252" type="line"/>
			<point x="285" y="267.5" type="line"/>
			<point x="190.5" y="700" type="line"/>
			<point x="88" y="700" type="line"/>
		</contour>
		<contour>
			<point x="77.5" y="95.5" type="line"/>
			<point x="392.5" y="95.5" type="line"/>
			<point x="392.5" y="123.5" type="line"/>
			<point x="77.5" y="123.5" type="line"/>
		</contour>
		<contour>
			<point x="185" y="0" type="line"/>
			<point x="285" y="0" type="line"/>
			<point x="285" y="267.5" type="line"/>
			<point x="185" y="267.5" type="line"/>
		</contour>
		<contour>
			<point x="77.5" y="172.5" type="line"/>
			<point x="392.5" y="172.5" type="line"/>
			<point x="392.5" y="200.5" type="line"/>
			<point x="77.5" y="200.5" type="line"/>
		</contour>
		<contour>
			<point x="282" y="252" type="line"/>
			<point x="380" y="700" type="line"/>
			<point x="351.5" y="700" type="line"/>
			<point x="257" y="267.5" type="line"/>
		</contour>
		<contour>
			<point x="298" y="672" type="line"/>
			<point x="426" y="672" type="line"/>
			<point x="426" y="700" type="line"/>
			<point x="298" y="700" type="line"/>
		</contour>
		<component base="_part.longserif" xOffset="-15"/>
		<component base="_part.longserif" xScale="-1" yScale="-1" xOffset="390" yOffset="700"/>
	</outline>
</glyph>
<glyph name="copyright" format="2">
	<advance width="825"/>
	<unicode hex="00A9"/>
	<outline>
		<contour>
			<point x="412.5" y="-17.5" type="curve" smooth="yes"/>
			<point x="615.5" y="-17.5"/>
			<point x="780" y="147"/>
			<point x="780" y="350" type="curve" smooth="yes"/>
			<point x="780" y="553"/>
			<point x="615.5" y="717.5"/>
			<point x="412.5" y="717.5" type="curve" smooth="yes"/>
			<point x="209.5" y="717.5"/>
			<point x="45" y="553"/>
			<point x="45" y="350" type="curve" smooth="yes"/>
			<point x="45" y="147"/>
			<point x="209.5" y="-17.5"/>
		</contour>
		<contour>
			<point x="412.5" y="10" type="curve" smooth="yes"/>
			<point x="225" y="10"/>
			<point x="72.5" y="162.5"/>
			<point x="72.5" y="350" type="curve" smooth="yes"/>
			<point x="72.5" y="537.5"/>
			<point x="225" y="690"/>
			<point x="412.5" y="690" type="curve" smooth="yes"/>
			<point x="600" y="690"/>
			<point x="752.5" y="537.5"/>
			<point x="752.5" y="350" type="curve" smooth="yes"/>
			<point x="752.5" y="162.5"/>
			<point x="600" y="10"/>
		</contour>
		<component base="C" xScale="0.7692" yScale="0.7692" xOffset="220.500" yOffset="81"/>
	</outline>
</glyph>
<glyph name="guillemotleft" format="2">
	<advance width="312.5"/>
	<unicode hex="00AB"/>
	<outline>
		<contour>
			<point x="197" y="319.5" type="line"/>
			<point x="221" y="319.5"/>
			<point x="253" y="356.5"/>
			<point x="277.5" y="412.5" type="curve"/>
			<point x="259.5" y="417.5" type="line"/>
			<point x="236.5" y="371"/>
			<point x="205.5" y="338.5"/>
			<point x="145" y="331" type="curve"/>
			<point x="145" y="320" type="line"/>
		</contour>
		<contour>
			<point x="149.5" y="228.5" type="curve"/>
			<point x="167.5" y="233.5" type="line"/>
			<point x="143" y="289.5"/>
			<point x="111" y="326.5"/>
			<point x="87" y="326.5" type="curve"/>
			<point x="35" y="326" type="line"/>
			<point x="35" y="315" type="line"/>
			<point x="94.5" y="308.5"/>
			<point x="125.5" y="275.5"/>
		</contour>
		<contour>
			<point x="87" y="319.5" type="line"/>
			<point x="111" y="319.5"/>
			<point x="143" y="356.5"/>
			<point x="167.5" y="412.5" type="curve"/>
			<point x="149.5" y="417.5" type="line"/>
			<point x="126.5" y="371"/>
			<point x="95.5" y="338.5"/>
			<point x="35" y="331" type="curve"/>
			<point x="35" y="320" type="line"/>
		</contour>
		<contour>
			<point x="259.5" y="228.5" type="curve"/>
			<point x="277.5" y="233.5" type="line"/>
			<point x="253" y="289.5"/>
			<point x="221" y="326.5"/>
			<point x="197" y="326.5" type="curve"/>
			<point x="145" y="326" type="line"/>
			<point x="145" y="315" type="line"/>
			<point x="204.5" y="308.5"/>
			<point x="235.5" y="275.5"/>
		</contour>
	</outline>
</glyph>
<glyph name="AE" format="2">
	<advance width="615"/>
	<unicode hex="00C6"/>
	<unicode hex="00E6"/>
	<outline>
		<contour>
			<point x="33.5" y="0" type="line"/>
			<point x="62" y="0" type="line"/>
			<point x="317" y="700" type="line"/>
			<point x="288.5" y="700" type="line"/>
		</contour>
		<contour>
			<point x="-15" y="0" type="line"/>
			<point x="113" y="0" type="line"/>
			<point x="113" y="28" type="line"/>
			<point x="-15" y="28" type="line"/>
		</contour>
		<contour>
			<point x="70.5" y="99" type="line"/>
			<point x="154.5" y="99" type="line"/>
			<point x="112.5" y="214.5" type="line"/>
		</contour>
		<contour>
			<point x="77.5" y="89" type="line"/>
			<point x="327.5" y="89" type="line"/>
			<point x="327.5" y="117" type="line"/>
			<point x="77.5" y="117" type="line"/>
		</contour>
		<contour>
			<point x="480" y="0" type="line"/>
			<point x="530" y="0" type="line"/>
			<point x="585" y="168" type="line"/>
			<point x="567" y="168" type="line"/>
		</contour>
		<contour>
			<point x="479" y="303" type="line"/>
			<point x="497" y="303" type="line"/>
			<point x="497" y="421" type="line"/>
			<point x="456" y="421" type="line"/>
		</contour>
		<contour>
			<point x="297" y="0" type="line"/>
			<point x="397" y="0" type="line"/>
			<point x="397" y="700" type="line"/>
			<point x="297" y="700" type="line"/>
		</contour>
		<contour>
			<point x="387" y="403" type="line"/>
			<point x="497" y="403" type="line"/>
			<point x="497" y="431" type="line"/>
			<point x="387" y="431" type="line"/>
		</contour>
		<contour>
			<point x="456" y="413" type="line"/>
			<point x="497" y="413" type="line"/>
			<point x="497" y="531" type="line"/>
			<point x="479" y="531" type="line"/>
		</contour>
		<contour>
			<point x="207.5" y="672" type="line"/>
			<point x="367.5" y="672" type="line"/>
			<point x="367.5" y="700" type="line"/>
			<point x="207.5" y="700" type="line"/>
		</contour>
		<contour>
			<point x="542" y="532" type="line"/>
			<point x="560" y="532" type="line"/>
			<point x="535" y="700" type="line"/>
			<point x="485" y="700" type="line"/>
		</contour>
		<contour>
			<point x="397" y="672" type="line"/>
			<point x="523" y="672" type="line"/>
			<point x="523" y="700" type="line"/>
			<point x="397" y="700" type="line"/>
		</contour>
		<contour>
			<point x="237" y="0" type="line"/>
			<point x="513" y="0" type="line"/>
			<point x="513" y="28" type="line"/>
			<point x="237" y="28" type="line"/>
		</contour>
	</outline>
</glyph>
<glyph name="Eth" format="2">
	<advance width="595"/>
	<unicode hex="00D0"/>
	<unicode hex="00F0"/>
	<outline>
		<contour>
			<point x="450" y="350" type="curve"/>
			<point x="560" y="350" type="line"/>
			<point x="560" y="526"/>
			<point x="443" y="700"/>
			<point x="230" y="700" type="curve"/>
			<point x="173.5" y="700" type="line"/>
			<point x="173.5" y="672" type="line"/>
			<point x="230" y="672" type="line"/>
			<point x="362" y="672"/>
			<point x="450" y="558"/>
		</contour>
		<contour>
			<point x="173.5" y="0" type="line"/>
			<point x="230" y="0" type="line"/>
			<point x="443" y="0"/>
			<point x="560" y="184"/>
			<point x="560" y="350" type="curve"/>
			<point x="450" y="350" type="line"/>
			<point x="450" y="152"/>
			<point x="362" y="28"/>
			<point x="230" y="28" type="curve"/>
			<point x="173.5" y="28" type="line"/>
		</contour>
		<component base="_part.stem" xOffset="-10"/>
		<component base="_part.shortserif" xOffset="-10"/>
		<component base="_part.shortserif" xOffset="-10" yOffset="-672"/>
		<component base="_part.wavestrokehorizontal" xOffset="125"/>
	</outline>
</glyph>
<glyph name="Oslash" format="2">
	<advance width="520"/>
	<unicode hex="00D8"/>
	<unicode hex="00F8"/>
	<outline>
		<contour>
			<point x="59.5" y="-50" type="line"/>
			<point x="90.5" y="-50" type="line"/>
			<point x="440.5" y="750" type="line"/>
			<point x="409.5" y="750" type="line"/>
		</contour>
		<component base="O"/>
	</outline>
</glyph>
<glyph name="Thorn" format="2">
	<advance width="483"/>
	<unicode hex="00DE"/>
	<unicode hex="00FE"/>
	<anchor x="237" y="700" name="top"/>
	<anchor x="237" y="0" name="bottom"/>
	<outline>
		<contour>
			<point x="363" y="350" type="curve"/>
			<point x="458" y="350" type="line"/>
			<point x="458" y="480"/>
			<point x="369" y="550"/>
			<point x="241" y="550" type="curve" smooth="yes"/>
			<point x="182" y="550" type="line"/>
			<point x="182" y="522" type="line"/>
			<point x="204" y="522" type="line" smooth="yes"/>
			<point x="291" y="522"/>
			<point x="363" y="488"/>
		</contour>
		<contour>
			<point x="182" y="155" type="line"/>
			<point x="241" y="155" type="line" smooth="yes"/>
			<point x="369" y="155"/>
			<point x="458" y="227"/>
			<point x="458" y="350" type="curve"/>
			<point x="363" y="350" type="line"/>
			<point x="363" y="232"/>
			<point x="299" y="183"/>
			<point x="204" y="183" type="curve" smooth="yes"/>
			<point x="182" y="183" type="line"/>
		</contour>
		<component base="_part.stemserifs" xOffset="-20"/>
	</outline>
</glyph>
<glyph name="Hbar" format="2">
	<advance width="580"/>
	<unicode hex="0126"/>
	<unicode hex="0127"/>
	<outline>
		<contour>
			<point x="50" y="542" type="line"/>
			<point x="530" y="542" type="line"/>
			<point x="530" y="570" type="line"/>
			<point x="50" y="570" type="line"/>
		</contour>
		<component base="H"/>
	</outline>
</glyph>
<glyph name="IJ" format="2">
	<advance width="649"/>
	<unicode hex="0132"/>
	<unicode hex="0133"/>
	<outline>
		<contour>
			<point x="284.5" y="500" type="line"/>
			<point x="270" y="500" type="line"/>
			<point x="5" y="315" type="line"/>
			<point x="53.5" y="315" type="line"/>
			<point x="284.5" y="476" type="line"/>
		</contour>
		<component base="I" xOffset="1"/>
		<component base="J" xOffset="236"/>
	</outline>
</glyph>
<glyph name="Lslash" format="2">
	<advance width="413"/>
	<unicode hex="0141"/>
	<unicode hex="0142"/>
	<outline>
		<contour>
			<point x="39" y="321" type="line"/>
			<point x="281.5" y="461" type="line"/>
			<point x="267.5" y="485" type="line"/>
			<point x="25" y="345" type="line"/>
		</contour>
		<component base="L"/>
	</outline>
</glyph>
<glyph name="Eng" format="2">
	<advance width="500"/>
	<unicode hex="014A"/>
	<unicode hex="014B"/>
	<guideline x="42.5" y="-177.5" angle="0"/>
	<anchor x="270" y="700" name="top"/>
	<anchor x="250" y="0" name="bottom"/>
	<outline>
		<contour>
			<point x="425" y="-56.5" type="line"/>
			<point x="425" y="191" type="line"/>
			<point x="172" y="700" type="line"/>
			<point x="85" y="700" type="line"/>
			<point x="85" y="628" type="line"/>
		</contour>
		<contour>
			<point x="368.5" y="-177.5" type="curve" smooth="yes"/>
			<point x="402.5" y="-177.5"/>
			<point x="425" y="-142"/>
			<point x="425" y="-67" type="curve" smooth="yes"/>
			<point x="425" y="0" type="line"/>
			<point x="397" y="0" type="line"/>
			<point x="397" y="-67" type="line" smooth="yes"/>
			<point x="397" y="-103.5"/>
			<point x="392" y="-127.5"/>
			<point x="371.5" y="-127.5" type="curve" smooth="yes"/>
			<point x="350.5" y="-127.5"/>
			<point x="332.5" y="-101.5"/>
			<point x="320.5" y="-63" type="curve"/>
			<point x="302.5" y="-67.5" type="line"/>
			<point x="306" y="-133.5"/>
			<point x="339.5" y="-177.5"/>
		</contour>
		<component base="_part.shortserif" xOffset="302"/>
		<component base="_part.stemthin"/>
		<component base="_part.verticalstrokethin" xOffset="322"/>
	</outline>
</glyph>
<glyph name="OE" format="2">
	<advance width="618"/>
	<unicode hex="0152"/>
	<unicode hex="0153"/>
	<outline>
		<contour>
			<point x="35" y="350" type="curve"/>
			<point x="145" y="350" type="line"/>
			<point x="145" y="558"/>
			<point x="183" y="672"/>
			<point x="310" y="672" type="curve"/>
			<point x="310" y="700" type="line"/>
			<point x="102" y="700"/>
			<point x="35" y="526"/>
		</contour>
		<contour>
			<point x="310" y="0" type="curve"/>
			<point x="310" y="28" type="line"/>
			<point x="183" y="28"/>
			<point x="145" y="142"/>
			<point x="145" y="350" type="curve"/>
			<point x="35" y="350" type="line"/>
			<point x="35" y="174"/>
			<point x="102" y="0"/>
		</contour>
		<contour>
			<point x="380" y="0" type="line"/>
			<point x="516" y="0" type="line"/>
			<point x="516" y="28" type="line"/>
			<point x="380" y="28" type="line"/>
		</contour>
		<contour>
			<point x="483" y="0" type="line"/>
			<point x="533" y="0" type="line"/>
			<point x="588" y="168" type="line"/>
			<point x="570" y="168" type="line"/>
		</contour>
		<contour>
			<point x="300" y="0" type="line"/>
			<point x="400" y="0" type="line"/>
			<point x="400" y="700" type="line"/>
			<point x="300" y="700" type="line"/>
		</contour>
		<contour>
			<point x="490" y="303" type="line"/>
			<point x="508" y="303" type="line"/>
			<point x="508" y="421" type="line"/>
			<point x="467" y="421" type="line"/>
		</contour>
		<contour>
			<point x="390" y="403" type="line"/>
			<point x="508" y="403" type="line"/>
			<point x="508" y="431" type="line"/>
			<point x="390" y="431" type="line"/>
		</contour>
		<contour>
			<point x="467" y="413" type="line"/>
			<point x="508" y="413" type="line"/>
			<point x="508" y="531" type="line"/>
			<point x="490" y="531" type="line"/>
		</contour>
		<contour>
			<point x="545" y="532" type="line"/>
			<point x="563" y="532" type="line"/>
			<point x="538" y="700" type="line"/>
			<point x="488" y="700" type="line"/>
		</contour>
		<contour>
			<point x="400" y="672" type="line"/>
			<point x="526" y="672" type="line"/>
			<point x="526" y="700" type="line"/>
			<point x="400" y="700" type="line"/>
		</contour>
	</outline>
</glyph>
<glyph name="Tbar" format="2">
	<advance width="450"/>
	<unicode hex="0166"/>
	<unicode hex="0167"/>
	<outline>
		<contour>
			<point x="85" y="328" type="line"/>
			<point x="365" y="328" type="line"/>
			<point x="365" y="356" type="line"/>
			<point x="85" y="356" type="line"/>
		</contour>
		<component base="T"/>
	</outline>
</glyph>
<glyph name="uni0302" format="2">
	<advance width="0"/>
	<unicode hex="0302"/>
	<anchor x="-118.5" y="858.5" name="top"/>
	<anchor x="-126" y="700" name="_top"/>
	<outline>
		<contour>
			<point x="-202" y="734" type="line"/>
			<point x="-118.5" y="795.5" type="line"/>
			<point x="-50.5" y="734" type="line"/>
			<point x="-35" y="743.5" type="line"/>
			<point x="-118.5" y="858.5" type="line"/>
			<point x="-217.5" y="743.5" type="line"/>
		</contour>
	</outline>
</glyph>
<glyph name="tildecomb" format="2">
	<advance width="0"/>
	<unicode hex="0303"/>
	<anchor x="-166.5" y="828.5" name="top"/>
	<anchor x="-166.5" y="700" name="_top"/>
	<outline>
		<contour>
			<point x="-136.5" y="754.5" type="curve" smooth="yes"/>
			<point x="-101.5" y="754.5"/>
			<point x="-60" y="783"/>
			<point x="-35" y="825.5" type="curve"/>
			<point x="-53" y="830.5" type="line"/>
			<point x="-75" y="808"/>
			<point x="-95.5" y="800"/>
			<point x="-117.5" y="800" type="curve" smooth="yes"/>
			<point x="-159" y="800"/>
			<point x="-173" y="829"/>
			<point x="-214" y="829" type="curve" smooth="yes"/>
			<point x="-241" y="829"/>
			<point x="-273.5" y="806"/>
			<point x="-294" y="771" type="curve"/>
			<point x="-276" y="766" type="line"/>
			<point x="-259.5" y="786"/>
			<point x="-245.5" y="793"/>
			<point x="-231.5" y="793" type="curve" smooth="yes"/>
			<point x="-202.5" y="793"/>
			<point x="-177" y="754.5"/>
		</contour>
	</outline>
</glyph>
<glyph name="uni0304" format="2">
	<advance width="0"/>
	<unicode hex="0304"/>
	<anchor x="-160" y="800" name="top"/>
	<anchor x="-160" y="700" name="_top"/>
	<outline>
		<contour>
			<point x="-285" y="768" type="line"/>
			<point x="-35" y="768" type="line"/>
			<point x="-35" y="800" type="line"/>
			<point x="-285" y="800" type="line"/>
		</contour>
	</outline>
</glyph>
<glyph name="uni0306" format="2">
	<advance width="0"/>
	<unicode hex="0306"/>
	<guideline x="38" y="744" angle="0"/>
	<anchor x="-126" y="853" name="top"/>
	<anchor x="-126" y="700" name="_top"/>
	<outline>
		<contour>
			<point x="-134" y="750" type="curve" smooth="yes"/>
			<point x="-70.5" y="750"/>
			<point x="-35" y="789"/>
			<point x="-35" y="853" type="curve"/>
			<point x="-53" y="853" type="line"/>
			<point x="-53" y="823.5"/>
			<point x="-78" y="800"/>
			<point x="-134" y="800" type="curve" smooth="yes"/>
			<point x="-181" y="800"/>
			<point x="-199.5" y="823.5"/>
			<point x="-199.5" y="853" type="curve"/>
			<point x="-217.5" y="853" type="line"/>
			<point x="-217.5" y="789"/>
			<point x="-187.5" y="750"/>
		</contour>
	</outline>
</glyph>
<glyph name="uni0308" format="2">
	<advance width="0"/>
	<unicode hex="0308"/>
	<anchor x="-157.5" y="825" name="top"/>
	<anchor x="-157.5" y="700" name="_top"/>
	<outline>
		<contour>
			<point x="-72.5" y="750" type="curve" smooth="yes"/>
			<point x="-52" y="750"/>
			<point x="-35" y="767"/>
			<point x="-35" y="787.5" type="curve" smooth="yes"/>
			<point x="-35" y="808"/>
			<point x="-52" y="825"/>
			<point x="-72.5" y="825" type="curve" smooth="yes"/>
			<point x="-93" y="825"/>
			<point x="-110" y="808"/>
			<point x="-110" y="787.5" type="curve" smooth="yes"/>
			<point x="-110" y="767"/>
			<point x="-93" y="750"/>
		</contour>
		<contour>
			<point x="-242.5" y="750" type="curve" smooth="yes"/>
			<point x="-222" y="750"/>
			<point x="-205" y="767"/>
			<point x="-205" y="787.5" type="curve" smooth="yes"/>
			<point x="-205" y="808"/>
			<point x="-222" y="825"/>
			<point x="-242.5" y="825" type="curve" smooth="yes"/>
			<point x="-263" y="825"/>
			<point x="-280" y="808"/>
			<point x="-280" y="787.5" type="curve" smooth="yes"/>
			<point x="-280" y="767"/>
			<point x="-263" y="750"/>
		</contour>
	</outline>
</glyph>
<glyph name="uni030A" format="2">
	<advance width="0"/>
	<unicode hex="030A"/>
	<guideline x="-37" y="744" angle="0"/>
	<anchor x="-85" y="844" name="top"/>
	<anchor x="-85" y="700" name="_top"/>
	<outline>
		<contour>
			<point x="-85" y="741.5" type="curve" smooth="yes"/>
			<point x="-56" y="741.5"/>
			<point x="-32.5" y="765"/>
			<point x="-32.5" y="794" type="curve" smooth="yes"/>
			<point x="-32.5" y="823"/>
			<point x="-56" y="846.5"/>
			<point x="-85" y="846.5" type="curve" smooth="yes"/>
			<point x="-113.5" y="846.5"/>
			<point x="-137.5" y="823"/>
			<point x="-137.5" y="794" type="curve" smooth="yes"/>
			<point x="-137.5" y="765"/>
			<point x="-113.5" y="741.5"/>
		</contour>
		<contour>
			<point x="-85" y="771" type="curve" smooth="yes"/>
			<point x="-97.5" y="771"/>
			<point x="-108" y="781.5"/>
			<point x="-108" y="794" type="curve" smooth="yes"/>
			<point x="-108" y="806.5"/>
			<point x="-97.5" y="817"/>
			<point x="-85" y="817" type="curve" smooth="yes"/>
			<point x="-72.5" y="817"/>
			<point x="-62" y="806.5"/>
			<point x="-62" y="794" type="curve" smooth="yes"/>
			<point x="-62" y="781.5"/>
			<point x="-72.5" y="771"/>
		</contour>
	</outline>
</glyph>
<glyph name="uni030B" format="2">
	<advance width="0"/>
	<unicode hex="030B"/>
	<anchor x="-130" y="875.5" name="top"/>
	<anchor x="-152.5" y="700" name="_top"/>
	<outline>
		<contour>
			<point x="-104.5" y="744" type="line"/>
			<point x="-91.5" y="744" type="line"/>
			<point x="-35" y="875.5" type="line"/>
			<point x="-95" y="875.5" type="line"/>
		</contour>
		<contour>
			<point x="-199.5" y="744" type="line"/>
			<point x="-186.5" y="744" type="line"/>
			<point x="-130" y="875.5" type="line"/>
			<point x="-190" y="875.5" type="line"/>
		</contour>
	</outline>
</glyph>
<glyph name="uni030C" format="2">
	<advance width="0"/>
	<unicode hex="030C"/>
	<guideline x="126.5" y="700" angle="90"/>
	<anchor x="-126" y="858.5" name="top"/>
	<anchor x="-126" y="700" name="_top"/>
	<outline>
		<contour>
			<point x="-126" y="744" type="line"/>
			<point x="-27" y="852.5" type="line"/>
			<point x="-42.5" y="862" type="line"/>
			<point x="-126" y="807" type="line"/>
			<point x="-194" y="862" type="line"/>
			<point x="-209.5" y="852.5" type="line"/>
		</contour>
	</outline>
</glyph>
<glyph name="uni0327" format="2">
	<advance width="0"/>
	<unicode hex="0327"/>
	<anchor x="-94" y="0" name="_bottom"/>
	<anchor x="-103" y="-180.5" name="bottom"/>
	<outline>
		<contour>
			<point x="-99" y="-185" type="curve" smooth="yes"/>
			<point x="-60" y="-185"/>
			<point x="-31.5" y="-156"/>
			<point x="-31.5" y="-113" type="curve" smooth="yes"/>
			<point x="-31.5" y="-83"/>
			<point x="-52" y="-53.5"/>
			<point x="-86.5" y="-53.5" type="curve" smooth="yes"/>
			<point x="-98" y="-53.5"/>
			<point x="-109" y="-59"/>
			<point x="-118" y="-73" type="curve"/>
			<point x="-116" y="-73" type="line"/>
			<point x="-76" y="5" type="line"/>
			<point x="-109" y="5" type="line"/>
			<point x="-138" y="-80.5" type="line"/>
			<point x="-121.5" y="-89" type="line"/>
			<point x="-116" y="-78"/>
			<point x="-109" y="-73.5"/>
			<point x="-102" y="-73.5" type="curve" smooth="yes"/>
			<point x="-84.5" y="-73.5"/>
			<point x="-74" y="-95"/>
			<point x="-74" y="-116.5" type="curve" smooth="yes"/>
			<point x="-74" y="-138"/>
			<point x="-84.5" y="-160"/>
			<point x="-108" y="-160" type="curve" smooth="yes"/>
			<point x="-122" y="-160"/>
			<point x="-133" y="-153"/>
			<point x="-138" y="-138" type="curve"/>
			<point x="-155" y="-144" type="line"/>
			<point x="-146.5" y="-168.5"/>
			<point x="-124" y="-185"/>
		</contour>
	</outline>
</glyph>
<glyph name="uni0328" format="2">
	<advance width="0"/>
	<unicode hex="0328"/>
	<anchor x="-92" y="0" name="_ogonek"/>
	<outline>
		<contour>
			<point x="-102.5" y="-177.5" type="curve" smooth="yes"/>
			<point x="-62.5" y="-177.5"/>
			<point x="-34" y="-133.5"/>
			<point x="-30" y="-67.5" type="curve"/>
			<point x="-47" y="-63" type="line"/>
			<point x="-52.5" y="-107"/>
			<point x="-71.5" y="-136.5"/>
			<point x="-95" y="-136.5" type="curve" smooth="yes"/>
			<point x="-113" y="-136.5"/>
			<point x="-122" y="-119"/>
			<point x="-122" y="-95" type="curve" smooth="yes"/>
			<point x="-122" y="-65.5"/>
			<point x="-108.5" y="-26"/>
			<point x="-82.5" y="0" type="curve"/>
			<point x="-82.5" y="5" type="line"/>
			<point x="-97" y="5" type="line"/>
			<point x="-97" y="0" type="line"/>
			<point x="-130.5" y="-26"/>
			<point x="-153" y="-73"/>
			<point x="-153" y="-117.5" type="curve" smooth="yes"/>
			<point x="-153" y="-153.5"/>
			<point x="-133" y="-177.5"/>
		</contour>
	</outline>
</glyph>
<glyph name="uni1E9E" format="2">
	<advance width="571.5"/>
	<unicode hex="1E9E"/>
	<unicode hex="00DF"/>
	<outline>
		<contour>
			<point x="391.5" y="-5" type="curve" smooth="yes"/>
			<point x="475.5" y="-5"/>
			<point x="536.5" y="51"/>
			<point x="536.5" y="134.5" type="curve" smooth="yes"/>
			<point x="536.5" y="180.5"/>
			<point x="514" y="223"/>
			<point x="444" y="272.5" type="curve" smooth="yes"/>
			<point x="412.5" y="294.5"/>
			<point x="404.5" y="309"/>
			<point x="404.5" y="344.5" type="curve" smooth="yes"/>
			<point x="404.5" y="402"/>
			<point x="461.5" y="500"/>
			<point x="461.5" y="578" type="curve" smooth="yes"/>
			<point x="461.5" y="656"/>
			<point x="400.5" y="708"/>
			<point x="309" y="708" type="curve" smooth="yes"/>
			<point x="168.5" y="708"/>
			<point x="75" y="636"/>
			<point x="75" y="548.5" type="curve"/>
			<point x="175" y="551.5" type="line"/>
			<point x="176" y="628.5"/>
			<point x="203.5" y="680"/>
			<point x="309" y="680" type="curve" smooth="yes"/>
			<point x="370" y="680"/>
			<point x="410.5" y="652.5"/>
			<point x="410.5" y="611" type="curve" smooth="yes"/>
			<point x="410.5" y="571.5"/>
			<point x="387.5" y="535.5"/>
			<point x="364" y="500" type="curve" smooth="yes"/>
			<point x="325" y="440.5"/>
			<point x="315.5" y="404.5"/>
			<point x="315.5" y="373" type="curve" smooth="yes"/>
			<point x="315.5" y="339"/>
			<point x="340" y="312.5"/>
			<point x="439" y="241" type="curve" smooth="yes"/>
			<point x="489" y="204.5"/>
			<point x="490" y="157"/>
			<point x="461.5" y="124" type="curve" smooth="yes"/>
			<point x="440.5" y="100"/>
			<point x="404" y="83"/>
			<point x="359.5" y="83" type="curve" smooth="yes"/>
			<point x="306" y="83"/>
			<point x="270.5" y="129"/>
			<point x="270.5" y="198.5" type="curve"/>
			<point x="252.5" y="198.5" type="line"/>
			<point x="253" y="76.5"/>
			<point x="308.5" y="-5"/>
		</contour>
		<contour>
			<point x="75" y="0" type="line"/>
			<point x="175" y="0" type="line"/>
			<point x="175" y="551.5" type="line"/>
			<point x="75" y="548.5" type="line"/>
		</contour>
		<component base="_part.longserif" xScale="-1" yScale="-1" xOffset="340" yOffset="700"/>
		<component base="_part.longserif" xScale="-1" yScale="-1" xOffset="280" yOffset="700"/>
	</outline>
</glyph>
<glyph name="quoteright" format="2">
	<advance width="179.5"/>
	<unicode hex="2019"/>
	<outline>
		<contour>
			<point x="37.5" y="494" type="curve"/>
			<point x="55.5" y="482.5" type="line"/>
			<point x="95" y="520"/>
			<point x="144.5" y="590"/>
			<point x="144.5" y="645" type="curve" smooth="yes"/>
			<point x="144.5" y="678"/>
			<point x="122.5" y="700"/>
			<point x="90" y="700" type="curve" smooth="yes"/>
			<point x="59.5" y="700"/>
			<point x="35" y="675.5"/>
			<point x="35" y="645.5" type="curve" smooth="yes"/>
			<point x="35" y="613.5"/>
			<point x="51.5" y="592.5"/>
			<point x="76" y="592.5" type="curve" smooth="yes"/>
			<point x="79.5" y="592.5"/>
			<point x="84" y="593"/>
			<point x="88" y="594" type="curve" smooth="yes"/>
			<point x="95.5" y="596"/>
			<point x="98.5" y="594"/>
			<point x="98.5" y="589" type="curve" smooth="yes"/>
			<point x="98.5" y="566"/>
			<point x="71.5" y="527"/>
		</contour>
	</outline>
</glyph>
<glyph name="dagger" format="2">
	<advance width="278"/>
	<unicode hex="2020"/>
	<outline>
		<contour>
			<point x="136.5" y="285" type="line"/>
			<point x="146.5" y="285" type="line"/>
			<point x="164" y="536.5" type="line"/>
			<point x="173" y="700" type="line"/>
			<point x="136.5" y="700" type="line"/>
		</contour>
		<contour>
			<point x="35" y="518" type="line"/>
			<point x="53" y="518" type="line"/>
			<point x="65" y="596.5" type="line"/>
			<point x="35" y="596.5" type="line"/>
		</contour>
		<contour>
			<point x="131.5" y="285" type="line"/>
			<point x="141.5" y="285" type="line"/>
			<point x="141.5" y="700" type="line"/>
			<point x="105" y="700" type="line"/>
			<point x="114" y="536.5" type="line"/>
		</contour>
		<contour>
			<point x="35" y="591" type="line"/>
			<point x="65" y="591" type="line"/>
			<point x="53" y="670" type="line"/>
			<point x="35" y="670" type="line"/>
		</contour>
		<contour>
			<point x="128" y="570" type="line"/>
			<point x="128" y="618" type="line"/>
			<point x="60" y="601.5" type="line"/>
			<point x="60" y="586" type="line"/>
		</contour>
		<contour>
			<point x="150" y="570" type="line"/>
			<point x="218" y="586" type="line"/>
			<point x="218" y="601.5" type="line"/>
			<point x="150" y="618" type="line"/>
		</contour>
		<contour>
			<point x="225" y="518" type="line"/>
			<point x="243" y="518" type="line"/>
			<point x="243" y="596.5" type="line"/>
			<point x="213" y="596.5" type="line"/>
		</contour>
		<contour>
			<point x="85" y="682" type="line"/>
			<point x="170.5" y="682" type="line"/>
			<point x="170.5" y="700" type="line"/>
			<point x="85" y="700" type="line"/>
		</contour>
		<contour>
			<point x="107.5" y="682" type="line"/>
			<point x="193" y="682" type="line"/>
			<point x="193" y="700" type="line"/>
			<point x="107.5" y="700" type="line"/>
		</contour>
		<contour>
			<point x="213" y="591" type="line"/>
			<point x="243" y="591" type="line"/>
			<point x="243" y="670" type="line"/>
			<point x="225" y="670" type="line"/>
		</contour>
	</outline>
</glyph>
<glyph name="daggerdbl" format="2">
	<advance width="278"/>
	<unicode hex="2021"/>
	<outline>
		<contour>
			<point x="105" y="286.5" type="line"/>
			<point x="173" y="286.5" type="line"/>
			<point x="153" y="493" type="line"/>
			<point x="173" y="700" type="line"/>
			<point x="105" y="700" type="line"/>
			<point x="125" y="493" type="line"/>
		</contour>
		<contour>
			<point x="35" y="326.5" type="line"/>
			<point x="53" y="326.5" type="line"/>
			<point x="65" y="405" type="line"/>
			<point x="35" y="405" type="line"/>
		</contour>
		<contour>
			<point x="85" y="286.5" type="line"/>
			<point x="170.5" y="286.5" type="line"/>
			<point x="170.5" y="304.5" type="line"/>
			<point x="85" y="304.5" type="line"/>
		</contour>
		<contour>
			<point x="107.5" y="286.5" type="line"/>
			<point x="193" y="286.5" type="line"/>
			<point x="193" y="304.5" type="line"/>
			<point x="107.5" y="304.5" type="line"/>
		</contour>
		<contour>
			<point x="35" y="400" type="line"/>
			<point x="65" y="400" type="line"/>
			<point x="53" y="478.5" type="line"/>
			<point x="35" y="478.5" type="line"/>
		</contour>
		<contour>
			<point x="128" y="378.5" type="line"/>
			<point x="128" y="426.5" type="line"/>
			<point x="60" y="410" type="line"/>
			<point x="60" y="394.5" type="line"/>
		</contour>
		<contour>
			<point x="150" y="378.5" type="line"/>
			<point x="218" y="394.5" type="line"/>
			<point x="218" y="410" type="line"/>
			<point x="150" y="426.5" type="line"/>
		</contour>
		<contour>
			<point x="225" y="326.5" type="line"/>
			<point x="243" y="326.5" type="line"/>
			<point x="243" y="405" type="line"/>
			<point x="213" y="405" type="line"/>
		</contour>
		<contour>
			<point x="35" y="508" type="line"/>
			<point x="53" y="508" type="line"/>
			<point x="65" y="586.5" type="line"/>
			<point x="35" y="586.5" type="line"/>
		</contour>
		<contour>
			<point x="213" y="400" type="line"/>
			<point x="243" y="400" type="line"/>
			<point x="243" y="478.5" type="line"/>
			<point x="225" y="478.5" type="line"/>
		</contour>
		<contour>
			<point x="35" y="581" type="line"/>
			<point x="65" y="581" type="line"/>
			<point x="53" y="660" type="line"/>
			<point x="35" y="660" type="line"/>
		</contour>
		<contour>
			<point x="128" y="560" type="line"/>
			<point x="128" y="608" type="line"/>
			<point x="60" y="591.5" type="line"/>
			<point x="60" y="576" type="line"/>
		</contour>
		<contour>
			<point x="150" y="560" type="line"/>
			<point x="218" y="576" type="line"/>
			<point x="218" y="591.5" type="line"/>
			<point x="150" y="608" type="line"/>
		</contour>
		<contour>
			<point x="225" y="508" type="line"/>
			<point x="243" y="508" type="line"/>
			<point x="243" y="586.5" type="line"/>
			<point x="213" y="586.5" type="line"/>
		</contour>
		<contour>
			<point x="85" y="682" type="line"/>
			<point x="170.5" y="682" type="line"/>
			<point x="170.5" y="700" type="line"/>
			<point x="85" y="700" type="line"/>
		</contour>
		<contour>
			<point x="107.5" y="682" type="line"/>
			<point x="193" y="682" type="line"/>
			<point x="193" y="700" type="line"/>
			<point x="107.5" y="700" type="line"/>
		</contour>
		<contour>
			<point x="213" y="581" type="line"/>
			<point x="243" y="581" type="line"/>
			<point x="243" y="660" type="line"/>
			<point x="225" y="660" type="line"/>
		</contour>
	</outline>
</glyph>
<glyph name="guilsinglleft" format="2">
	<advance width="252.5"/>
	<unicode hex="2039"/>
	<outline>
		<contour>
			<point x="87" y="319.5" type="line"/>
			<point x="141" y="319.5"/>
			<point x="193" y="356.5"/>
			<point x="217.5" y="412.5" type="curve"/>
			<point x="199.5" y="417.5" type="line"/>
			<point x="177" y="381"/>
			<point x="136.5" y="336.5"/>
			<point x="35" y="331" type="curve"/>
			<point x="35" y="320" type="line"/>
		</contour>
		<contour>
			<point x="199.5" y="228.5" type="curve"/>
			<point x="217.5" y="233.5" type="line"/>
			<point x="193" y="289.5"/>
			<point x="141" y="326.5"/>
			<point x="87" y="326.5" type="curve"/>
			<point x="35" y="326" type="line"/>
			<point x="35" y="315" type="line"/>
			<point x="135.5" y="305"/>
			<point x="176" y="265.5"/>
		</contour>
	</outline>
</glyph>
<glyph name="uni2055" format="2">
	<advance width="595"/>
	<unicode hex="2055"/>
	<outline>
		<contour>
			<point x="292" y="342" type="curve"/>
			<point x="297.5" y="366"/>
			<point x="316.5" y="400"/>
			<point x="367" y="413.5" type="curve" smooth="yes"/>
			<point x="396" y="420.5"/>
			<point x="427" y="417.5"/>
			<point x="454" y="444.5" type="curve" smooth="yes"/>
			<point x="475" y="465.5"/>
			<point x="487" y="500.5"/>
			<point x="484" y="535" type="curve"/>
			<point x="473.5" y="535.5" type="line"/>
			<point x="472" y="519"/>
			<point x="465.5" y="506.5"/>
			<point x="456.5" y="497.5" type="curve" smooth="yes"/>
			<point x="434.5" y="475.5"/>
			<point x="403.5" y="476.5"/>
			<point x="373.5" y="469.5" type="curve" smooth="yes"/>
			<point x="353" y="465"/>
			<point x="335" y="455"/>
			<point x="321" y="440.5" type="curve" smooth="yes"/>
			<point x="297.5" y="417"/>
			<point x="289.5" y="382.5"/>
		</contour>
		<contour>
			<point x="111" y="165" type="curve"/>
			<point x="121.5" y="164.5" type="line"/>
			<point x="123" y="181"/>
			<point x="129.5" y="193.5"/>
			<point x="138.5" y="202.5" type="curve" smooth="yes"/>
			<point x="160.5" y="224.5"/>
			<point x="191.5" y="223.5"/>
			<point x="221.5" y="230.5" type="curve" smooth="yes"/>
			<point x="242" y="235"/>
			<point x="260" y="245"/>
			<point x="274" y="259.5" type="curve" smooth="yes"/>
			<point x="297.5" y="283"/>
			<point x="305.5" y="317.5"/>
			<point x="303" y="358" type="curve"/>
			<point x="297.5" y="334"/>
			<point x="278.5" y="300"/>
			<point x="228" y="286.5" type="curve" smooth="yes"/>
			<point x="199" y="279.5"/>
			<point x="168" y="282.5"/>
			<point x="141" y="255.5" type="curve" smooth="yes"/>
			<point x="120" y="234.5"/>
			<point x="108" y="199.5"/>
		</contour>
		<contour>
			<point x="218" y="301" type="curve" smooth="yes"/>
			<point x="251.5" y="301"/>
			<point x="280" y="321"/>
			<point x="306.5" y="351.5" type="curve"/>
			<point x="286.5" y="338.5"/>
			<point x="248.5" y="328"/>
			<point x="203.5" y="354.5" type="curve" smooth="yes"/>
			<point x="178" y="370"/>
			<point x="158" y="394"/>
			<point x="120" y="394" type="curve" smooth="yes"/>
			<point x="90.5" y="394"/>
			<point x="57" y="378"/>
			<point x="35" y="351" type="curve"/>
			<point x="43.5" y="342" type="line"/>
			<point x="56" y="352.5"/>
			<point x="69.5" y="356.5"/>
			<point x="82.5" y="356.5" type="curve" smooth="yes"/>
			<point x="113" y="356.5"/>
			<point x="134.5" y="334"/>
			<point x="160.5" y="317.5" type="curve" smooth="yes"/>
			<point x="178.5" y="306.5"/>
			<point x="198" y="301"/>
		</contour>
		<contour>
			<point x="296.5" y="87.5" type="curve"/>
			<point x="305.5" y="96" type="line"/>
			<point x="295" y="108.5"/>
			<point x="291" y="122"/>
			<point x="291" y="135" type="curve" smooth="yes"/>
			<point x="291" y="165.5"/>
			<point x="313.5" y="187"/>
			<point x="330" y="213.5" type="curve" smooth="yes"/>
			<point x="341" y="231"/>
			<point x="346.5" y="250.5"/>
			<point x="346.5" y="270.5" type="curve" smooth="yes"/>
			<point x="346.5" y="304"/>
			<point x="326" y="332.5"/>
			<point x="296" y="359.5" type="curve"/>
			<point x="309" y="339.5"/>
			<point x="320" y="301"/>
			<point x="293" y="256" type="curve" smooth="yes"/>
			<point x="278" y="230.5"/>
			<point x="253.5" y="210.5"/>
			<point x="253.5" y="172.5" type="curve" smooth="yes"/>
			<point x="253.5" y="142.5"/>
			<point x="270" y="109.5"/>
		</contour>
		<contour>
			<point x="482.5" y="163.5" type="curve"/>
			<point x="483" y="174" type="line"/>
			<point x="466.5" y="175.5"/>
			<point x="454" y="182"/>
			<point x="445" y="191" type="curve" smooth="yes"/>
			<point x="423" y="213"/>
			<point x="424" y="244"/>
			<point x="417" y="274" type="curve" smooth="yes"/>
			<point x="412.5" y="294.5"/>
			<point x="402.5" y="312.5"/>
			<point x="388" y="326.5" type="curve" smooth="yes"/>
			<point x="364.5" y="350"/>
			<point x="330" y="358"/>
			<point x="289.5" y="355.5" type="curve"/>
			<point x="313" y="350.5"/>
			<point x="348" y="331"/>
			<point x="361" y="280.5" type="curve" smooth="yes"/>
			<point x="368" y="251.5"/>
			<point x="365" y="220.5"/>
			<point x="392" y="193.5" type="curve" smooth="yes"/>
			<point x="413" y="172.5"/>
			<point x="448" y="160.5"/>
		</contour>
		<contour>
			<point x="297" y="344.5" type="curve" smooth="yes"/>
			<point x="300" y="344.5"/>
			<point x="302" y="347"/>
			<point x="302" y="349.5" type="curve" smooth="yes"/>
			<point x="302" y="352.5"/>
			<point x="300" y="354.5"/>
			<point x="297" y="354.5" type="curve" smooth="yes"/>
			<point x="294.5" y="354.5"/>
			<point x="292" y="352.5"/>
			<point x="292" y="349.5" type="curve" smooth="yes"/>
			<point x="292" y="347"/>
			<point x="294.5" y="344.5"/>
		</contour>
		<contour>
			<point x="305.5" y="344.5" type="curve"/>
			<point x="282" y="349.5"/>
			<point x="247" y="369"/>
			<point x="234" y="419.5" type="curve" smooth="yes"/>
			<point x="227" y="448.5"/>
			<point x="230" y="479.5"/>
			<point x="203" y="506.5" type="curve" smooth="yes"/>
			<point x="182" y="527.5"/>
			<point x="147" y="539.5"/>
			<point x="112.5" y="536.5" type="curve"/>
			<point x="112" y="526" type="line"/>
			<point x="128.5" y="524.5"/>
			<point x="141" y="518"/>
			<point x="150" y="509" type="curve" smooth="yes"/>
			<point x="172" y="487"/>
			<point x="171" y="456"/>
			<point x="178" y="426" type="curve" smooth="yes"/>
			<point x="182.5" y="405.5"/>
			<point x="192.5" y="387.5"/>
			<point x="207" y="373.5" type="curve" smooth="yes"/>
			<point x="230.5" y="350"/>
			<point x="265" y="342"/>
		</contour>
		<contour>
			<point x="299" y="340.5" type="curve"/>
			<point x="286" y="360.5"/>
			<point x="275" y="399"/>
			<point x="302" y="444" type="curve" smooth="yes"/>
			<point x="317" y="469.5"/>
			<point x="341.5" y="489.5"/>
			<point x="341.5" y="527.5" type="curve" smooth="yes"/>
			<point x="341.5" y="557.5"/>
			<point x="325" y="590.5"/>
			<point x="298.5" y="612.5" type="curve"/>
			<point x="289.5" y="604" type="line"/>
			<point x="300" y="591.5"/>
			<point x="304" y="578"/>
			<point x="304" y="565" type="curve" smooth="yes"/>
			<point x="304" y="534.5"/>
			<point x="281.5" y="513"/>
			<point x="265" y="486.5" type="curve" smooth="yes"/>
			<point x="254" y="469"/>
			<point x="248.5" y="449.5"/>
			<point x="248.5" y="429.5" type="curve" smooth="yes"/>
			<point x="248.5" y="396"/>
			<point x="269" y="367.5"/>
		</contour>
		<contour>
			<point x="475" y="306" type="curve" smooth="yes"/>
			<point x="504.5" y="306"/>
			<point x="538" y="322"/>
			<point x="560" y="349" type="curve"/>
			<point x="551.5" y="358" type="line"/>
			<point x="539" y="347.5"/>
			<point x="525.5" y="343.5"/>
			<point x="512.5" y="343.5" type="curve" smooth="yes"/>
			<point x="482" y="343.5"/>
			<point x="460.5" y="366"/>
			<point x="434.5" y="382.5" type="curve" smooth="yes"/>
			<point x="416.5" y="393.5"/>
			<point x="397" y="399"/>
			<point x="377" y="399" type="curve" smooth="yes"/>
			<point x="343.5" y="399"/>
			<point x="315" y="379"/>
			<point x="288.5" y="348.5" type="curve"/>
			<point x="308.5" y="361.5"/>
			<point x="346.5" y="372"/>
			<point x="391.5" y="345.5" type="curve" smooth="yes"/>
			<point x="417" y="330"/>
			<point x="437" y="306"/>
		</contour>
	</outline>
</glyph>
<glyph name="Euro" format="2">
	<advance width="490"/>
	<unicode hex="20AC"/>
	<outline>
		<contour>
			<point x="55" y="350" type="curve"/>
			<point x="165" y="350" type="line"/>
			<point x="165" y="558"/>
			<point x="203" y="680"/>
			<point x="280" y="680" type="curve"/>
			<point x="280" y="708" type="line"/>
			<point x="122" y="708"/>
			<point x="55" y="526"/>
		</contour>
		<contour>
			<point x="280" y="-8" type="curve"/>
			<point x="280" y="20" type="line"/>
			<point x="203" y="20"/>
			<point x="165" y="142"/>
			<point x="165" y="350" type="curve"/>
			<point x="55" y="350" type="line"/>
			<point x="55" y="174"/>
			<point x="122" y="-8"/>
		</contour>
		<contour>
			<point x="10" y="292" type="line"/>
			<point x="340" y="292" type="line"/>
			<point x="340" y="320" type="line"/>
			<point x="10" y="320" type="line"/>
		</contour>
		<contour>
			<point x="10" y="369" type="line"/>
			<point x="340" y="369" type="line"/>
			<point x="340" y="397" type="line"/>
			<point x="10" y="397" type="line"/>
		</contour>
		<contour>
			<point x="280" y="20" type="curve"/>
			<point x="280" y="-8" type="line"/>
			<point x="318.5" y="-8"/>
			<point x="354" y="16"/>
			<point x="380" y="59" type="curve" smooth="yes"/>
			<point x="394" y="82"/>
			<point x="407" y="93"/>
			<point x="416.5" y="93" type="curve" smooth="yes"/>
			<point x="429.5" y="93"/>
			<point x="436" y="73.5"/>
			<point x="430" y="40" type="curve"/>
			<point x="448" y="40" type="line"/>
			<point x="452.5" y="60.5"/>
			<point x="455" y="85"/>
			<point x="455" y="112" type="curve" smooth="yes"/>
			<point x="455" y="177.5"/>
			<point x="441.5" y="258"/>
			<point x="416.5" y="332" type="curve"/>
			<point x="398.5" y="330" type="line"/>
			<point x="400.5" y="321"/>
			<point x="402" y="301"/>
			<point x="402" y="280" type="curve" smooth="yes"/>
			<point x="402" y="82"/>
			<point x="334" y="20"/>
		</contour>
		<contour>
			<point x="280" y="708" type="curve"/>
			<point x="280" y="680" type="line"/>
			<point x="334" y="680"/>
			<point x="402" y="643"/>
			<point x="402" y="445" type="curve" smooth="yes"/>
			<point x="402" y="424"/>
			<point x="400.5" y="404"/>
			<point x="398.5" y="395" type="curve"/>
			<point x="416.5" y="393" type="line"/>
			<point x="441.5" y="467"/>
			<point x="455" y="547.5"/>
			<point x="455" y="613" type="curve" smooth="yes"/>
			<point x="455" y="640"/>
			<point x="452.5" y="664.5"/>
			<point x="448" y="685" type="curve"/>
			<point x="430" y="685" type="line"/>
			<point x="435.5" y="658.5"/>
			<point x="426.5" y="645.5"/>
			<point x="412.5" y="645.5" type="curve" smooth="yes"/>
			<point x="402.5" y="645.5"/>
			<point x="389.5" y="652"/>
			<point x="377" y="664" type="curve" smooth="yes"/>
			<point x="348.5" y="691"/>
			<point x="314.5" y="708"/>
		</contour>
	</outline>
</glyph>
<glyph name="uni2698" format="2">
	<advance width="568"/>
	<unicode hex="2698"/>
	<guideline x="254" y="317.5" angle="90"/>
	<outline>
		<contour>
			<point x="486.5" y="215.5" type="curve"/>
			<point x="487.5" y="231.5" type="line"/>
			<point x="455.5" y="234"/>
			<point x="435.5" y="260.5"/>
			<point x="414.5" y="301" type="curve" smooth="yes"/>
			<point x="389" y="347.5"/>
			<point x="362.5" y="399"/>
			<point x="317" y="394.5" type="curve" smooth="yes"/>
			<point x="302.5" y="393"/>
			<point x="291.5" y="389.5"/>
			<point x="284" y="379" type="curve"/>
			<point x="284" y="372" type="line"/>
			<point x="310" y="372"/>
			<point x="324.5" y="322.5"/>
			<point x="356.5" y="276" type="curve" smooth="yes"/>
			<point x="388.5" y="230"/>
			<point x="440.5" y="215.5"/>
		</contour>
		<contour>
			<point x="80.5" y="231.5" type="curve"/>
			<point x="82" y="215.5" type="line"/>
			<point x="127.5" y="215.5"/>
			<point x="179.5" y="230"/>
			<point x="211.5" y="276" type="curve" smooth="yes"/>
			<point x="244" y="322.5"/>
			<point x="258.5" y="372"/>
			<point x="284" y="372" type="curve"/>
			<point x="284" y="379" type="line"/>
			<point x="277" y="389.5"/>
			<point x="265.5" y="393"/>
			<point x="251" y="394.5" type="curve" smooth="yes"/>
			<point x="205.5" y="399"/>
			<point x="179" y="347.5"/>
			<point x="154" y="301" type="curve" smooth="yes"/>
			<point x="133" y="260.5"/>
			<point x="112.5" y="234"/>
		</contour>
		<contour>
			<point x="272.5" y="119" type="curve"/>
			<point x="284" y="119" type="line"/>
			<point x="284" y="356" type="line"/>
			<point x="277.5" y="355.5" type="line"/>
			<point x="266" y="322.5"/>
			<point x="245" y="298"/>
			<point x="245" y="255" type="curve" smooth="yes"/>
			<point x="245" y="230"/>
			<point x="253.5" y="174.5"/>
		</contour>
		<contour>
			<point x="284" y="119" type="line"/>
			<point x="295.5" y="119" type="line"/>
			<point x="315" y="174.5"/>
			<point x="323" y="230"/>
			<point x="323" y="255" type="curve" smooth="yes"/>
			<point x="323" y="298"/>
			<point x="302" y="322.5"/>
			<point x="290.5" y="355.5" type="curve"/>
			<point x="284" y="356" type="line"/>
		</contour>
		<contour>
			<point x="109" y="354" type="curve" smooth="yes"/>
			<point x="163" y="354"/>
			<point x="200.5" y="407.5"/>
			<point x="253.5" y="407.5" type="curve" smooth="yes"/>
			<point x="275" y="407.5"/>
			<point x="281" y="403"/>
			<point x="284" y="400.5" type="curve"/>
			<point x="284.5" y="409" type="line"/>
			<point x="271.5" y="430"/>
			<point x="244" y="446.5"/>
			<point x="222.5" y="446.5" type="curve" smooth="yes"/>
			<point x="150.5" y="446.5"/>
			<point x="112.5" y="384"/>
			<point x="58" y="384" type="curve" smooth="yes"/>
			<point x="50.5" y="384"/>
			<point x="45.5" y="386"/>
			<point x="38.5" y="389.5" type="curve"/>
			<point x="30" y="379" type="line"/>
			<point x="57" y="359.5"/>
			<point x="85.5" y="354"/>
		</contour>
		<contour>
			<point x="269" y="436.5" type="curve"/>
			<point x="273.5" y="441" type="line"/>
			<point x="266.5" y="462"/>
			<point x="254.5" y="478.5"/>
			<point x="241.5" y="488" type="curve" smooth="yes"/>
			<point x="230.5" y="496"/>
			<point x="218" y="499.5"/>
			<point x="205" y="499.5" type="curve" smooth="yes"/>
			<point x="187.5" y="499.5"/>
			<point x="169.5" y="494"/>
			<point x="151.5" y="485.5" type="curve" smooth="yes"/>
			<point x="128" y="475.5"/>
			<point x="109.5" y="468"/>
			<point x="93" y="474" type="curve"/>
			<point x="87.5" y="463" type="line"/>
			<point x="99" y="456"/>
			<point x="113" y="453"/>
			<point x="122.5" y="453" type="curve" smooth="yes"/>
			<point x="131" y="453"/>
			<point x="140.5" y="455.5"/>
			<point x="152.5" y="458.5" type="curve" smooth="yes"/>
			<point x="168.5" y="462"/>
			<point x="186.5" y="466.5"/>
			<point x="205" y="466.5" type="curve" smooth="yes"/>
			<point x="233" y="466.5"/>
			<point x="251" y="454.5"/>
		</contour>
		<contour>
			<point x="294.5" y="441" type="curve"/>
			<point x="299" y="436.5" type="line"/>
			<point x="317" y="454.5"/>
			<point x="335" y="466.5"/>
			<point x="363" y="466.5" type="curve" smooth="yes"/>
			<point x="381.5" y="466.5"/>
			<point x="399.5" y="462"/>
			<point x="415.5" y="458.5" type="curve" smooth="yes"/>
			<point x="427.5" y="455.5"/>
			<point x="437" y="453"/>
			<point x="445.5" y="453" type="curve" smooth="yes"/>
			<point x="455" y="453"/>
			<point x="469" y="456"/>
			<point x="480.5" y="463" type="curve"/>
			<point x="475" y="474" type="line"/>
			<point x="458.5" y="468"/>
			<point x="440" y="475.5"/>
			<point x="416.5" y="485.5" type="curve" smooth="yes"/>
			<point x="398.5" y="494"/>
			<point x="380.5" y="499.5"/>
			<point x="363" y="499.5" type="curve" smooth="yes"/>
			<point x="350" y="499.5"/>
			<point x="337.5" y="496"/>
			<point x="326.5" y="488" type="curve" smooth="yes"/>
			<point x="313.5" y="478.5"/>
			<point x="301.5" y="462"/>
		</contour>
		<contour>
			<point x="277.5" y="451.5" type="curve"/>
			<point x="284" y="451.5" type="line"/>
			<point x="284" y="569.5" type="line"/>
			<point x="277.5" y="569.5" type="line"/>
			<point x="266" y="562.5"/>
			<point x="258.5" y="545"/>
			<point x="258.5" y="526.5" type="curve" smooth="yes"/>
			<point x="258.5" y="507"/>
			<point x="266" y="477"/>
		</contour>
		<contour>
			<point x="459.5" y="354" type="curve" smooth="yes"/>
			<point x="482.5" y="354"/>
			<point x="511" y="359.5"/>
			<point x="538" y="379" type="curve"/>
			<point x="529.5" y="389.5" type="line"/>
			<point x="523" y="386"/>
			<point x="517.5" y="384"/>
			<point x="510.5" y="384" type="curve" smooth="yes"/>
			<point x="455.5" y="384"/>
			<point x="418" y="446.5"/>
			<point x="346" y="446.5" type="curve" smooth="yes"/>
			<point x="324.5" y="446.5"/>
			<point x="296.5" y="430"/>
			<point x="283.5" y="409" type="curve"/>
			<point x="284" y="400.5" type="line"/>
			<point x="287" y="403"/>
			<point x="293" y="407.5"/>
			<point x="314.5" y="407.5" type="curve" smooth="yes"/>
			<point x="367.5" y="407.5"/>
			<point x="405.5" y="354"/>
		</contour>
		<contour>
			<point x="284" y="451.5" type="line"/>
			<point x="290.5" y="451.5" type="line"/>
			<point x="302" y="477"/>
			<point x="310" y="507"/>
			<point x="310" y="526.5" type="curve" smooth="yes"/>
			<point x="310" y="545"/>
			<point x="302" y="562.5"/>
			<point x="290.5" y="569.5" type="curve"/>
			<point x="284" y="569.5" type="line"/>
		</contour>
	</outline>
</glyph>
<glyph name="uniA746" format="2">
	<advance width="563"/>
	<unicode hex="A746"/>
	<unicode hex="A747"/>
	<anchor x="357" y="350" name="center"/>
	<anchor x="357" y="700" name="top"/>
	<anchor x="543" y="700" name="topright"/>
	<anchor x="357" y="0" name="bottom"/>
	<outline>
		<contour>
			<point x="245" y="0" type="line"/>
			<point x="345" y="0" type="line"/>
			<point x="345" y="460" type="line"/>
			<point x="195" y="460" type="line"/>
			<point x="195" y="700" type="line"/>
			<point x="95" y="700" type="line"/>
			<point x="95" y="432" type="line"/>
			<point x="245" y="432" type="line"/>
		</contour>
		<contour>
			<point x="185" y="0" type="line"/>
			<point x="405" y="0" type="line"/>
			<point x="405" y="28" type="line"/>
			<point x="185" y="28" type="line"/>
		</contour>
		<contour>
			<point x="395" y="0" type="line"/>
			<point x="481" y="0" type="line"/>
			<point x="481" y="28" type="line"/>
			<point x="395" y="28" type="line"/>
		</contour>
		<contour>
			<point x="456" y="0" type="line"/>
			<point x="516" y="0" type="line"/>
			<point x="538" y="233" type="line"/>
			<point x="520" y="233" type="line"/>
		</contour>
		<contour>
			<point x="35" y="672" type="line"/>
			<point x="255" y="672" type="line"/>
			<point x="255" y="700" type="line"/>
			<point x="35" y="700" type="line"/>
		</contour>
	</outline>
</glyph>
<glyph name="u1F4AE" format="2">
	<advance width="673"/>
	<unicode hex="1F4AE"/>
	<outline>
		<contour>
			<point x="336.5" y="80" type="curve" smooth="yes"/>
			<point x="336.5" y="40" type="line"/>
			<point x="345.5" y="40" type="line"/>
			<point x="345.5" y="116"/>
			<point x="356" y="107"/>
			<point x="473" y="138" type="curve" smooth="yes"/>
			<point x="585" y="166.5"/>
			<point x="628" y="197"/>
			<point x="628" y="266" type="curve" smooth="yes"/>
			<point x="628" y="295.5"/>
			<point x="620.5" y="348.5"/>
			<point x="620.5" y="385" type="curve" smooth="yes"/>
			<point x="620.5" y="403.5"/>
			<point x="622.5" y="425"/>
			<point x="628" y="456.5" type="curve"/>
			<point x="613" y="456.5" type="line"/>
			<point x="606.5" y="423"/>
			<point x="605" y="407.5"/>
			<point x="605" y="385" type="curve" smooth="yes"/>
			<point x="605" y="348.5"/>
			<point x="610.5" y="321.5"/>
			<point x="610.5" y="283" type="curve" smooth="yes"/>
			<point x="610.5" y="240.5"/>
			<point x="550" y="222"/>
			<point x="436" y="176" type="curve" smooth="yes"/>
			<point x="376.5" y="151.5"/>
			<point x="336.5" y="113.5"/>
		</contour>
		<contour>
			<point x="327.5" y="40" type="curve"/>
			<point x="336.5" y="40" type="line"/>
			<point x="336.5" y="80" type="line" smooth="yes"/>
			<point x="336.5" y="113.5"/>
			<point x="296.5" y="152"/>
			<point x="237" y="176" type="curve" smooth="yes"/>
			<point x="123" y="222"/>
			<point x="62.5" y="240.5"/>
			<point x="62.5" y="283" type="curve" smooth="yes"/>
			<point x="62.5" y="321.5"/>
			<point x="68" y="348.5"/>
			<point x="68" y="385" type="curve" smooth="yes"/>
			<point x="68" y="407.5"/>
			<point x="66.5" y="423"/>
			<point x="60" y="456.5" type="curve"/>
			<point x="45" y="456.5" type="line"/>
			<point x="50.5" y="425"/>
			<point x="52.5" y="403.5"/>
			<point x="52.5" y="385" type="curve" smooth="yes"/>
			<point x="52.5" y="348.5"/>
			<point x="45" y="295.5"/>
			<point x="45" y="266" type="curve" smooth="yes"/>
			<point x="45" y="197"/>
			<point x="88" y="166.5"/>
			<point x="200" y="138" type="curve" smooth="yes"/>
			<point x="317" y="108"/>
			<point x="327.5" y="116"/>
		</contour>
		<contour>
			<point x="327.5" y="102" type="curve"/>
			<point x="336.5" y="102" type="line"/>
			<point x="336.5" y="198"/>
			<point x="111" y="316"/>
			<point x="111" y="379" type="curve" smooth="yes"/>
			<point x="111" y="402"/>
			<point x="130.5" y="437"/>
			<point x="148" y="469" type="curve" smooth="yes"/>
			<point x="166.5" y="504"/>
			<point x="178.5" y="547.5"/>
			<point x="178.5" y="578" type="curve"/>
			<point x="163" y="578" type="line"/>
			<point x="163" y="546.5"/>
			<point x="150" y="502.5"/>
			<point x="131.5" y="469.5" type="curve" smooth="yes"/>
			<point x="110.5" y="430.5"/>
			<point x="87" y="384.5"/>
			<point x="86.5" y="349" type="curve" smooth="yes"/>
			<point x="87" y="296"/>
			<point x="113" y="262"/>
			<point x="152" y="238" type="curve" smooth="yes"/>
			<point x="213" y="201"/>
			<point x="327.5" y="137.5"/>
		</contour>
		<contour>
			<point x="327.5" y="121" type="curve"/>
			<point x="336.5" y="121" type="line"/>
			<point x="336.5" y="281.5"/>
			<point x="208" y="369"/>
			<point x="208" y="433.5" type="curve" smooth="yes"/>
			<point x="208" y="472"/>
			<point x="257.5" y="559"/>
			<point x="257.5" y="637" type="curve"/>
			<point x="242" y="637" type="line"/>
			<point x="242" y="543"/>
			<point x="169" y="472.5"/>
			<point x="169" y="393.5" type="curve" smooth="yes"/>
			<point x="169" y="277.5"/>
			<point x="327.5" y="198.5"/>
		</contour>
		<contour>
			<point x="327.5" y="199" type="curve" smooth="yes"/>
			<point x="327.5" y="25" type="line"/>
			<point x="336.5" y="25" type="line"/>
			<point x="336.5" y="663" type="line"/>
			<point x="327.5" y="663" type="line"/>
			<point x="325.5" y="563"/>
			<point x="279" y="527.5"/>
			<point x="279" y="442" type="curve" smooth="yes"/>
			<point x="279" y="346"/>
			<point x="327.5" y="292.5"/>
		</contour>
		<contour>
			<point x="336.5" y="25" type="line"/>
			<point x="345.5" y="25" type="line"/>
			<point x="345.5" y="199" type="line" smooth="yes"/>
			<point x="345.5" y="292.5"/>
			<point x="394" y="346"/>
			<point x="394" y="442" type="curve" smooth="yes"/>
			<point x="394" y="527.5"/>
			<point x="347.5" y="563"/>
			<point x="345.5" y="663" type="curve"/>
			<point x="336.5" y="663" type="line"/>
		</contour>
		<contour>
			<point x="336.5" y="102" type="curve"/>
			<point x="345.5" y="102" type="line"/>
			<point x="345.5" y="137.5"/>
			<point x="460" y="201"/>
			<point x="521" y="238" type="curve" smooth="yes"/>
			<point x="560" y="262"/>
			<point x="586" y="296"/>
			<point x="586" y="349" type="curve" smooth="yes"/>
			<point x="586" y="384.5"/>
			<point x="562.5" y="430.5"/>
			<point x="541" y="469" type="curve" smooth="yes"/>
			<point x="523" y="503"/>
			<point x="510" y="546.5"/>
			<point x="510" y="578" type="curve"/>
			<point x="494.5" y="578" type="line"/>
			<point x="494.5" y="547"/>
			<point x="506.5" y="504"/>
			<point x="525" y="469" type="curve" smooth="yes"/>
			<point x="542.5" y="437"/>
			<point x="562" y="402"/>
			<point x="562" y="379" type="curve" smooth="yes"/>
			<point x="562" y="316"/>
			<point x="336.5" y="198"/>
		</contour>
		<contour>
			<point x="336.5" y="121" type="curve"/>
			<point x="345.5" y="121" type="line"/>
			<point x="345.5" y="198.5"/>
			<point x="504" y="277.5"/>
			<point x="504" y="393.5" type="curve" smooth="yes"/>
			<point x="504" y="472.5"/>
			<point x="431" y="543"/>
			<point x="431" y="637" type="curve"/>
			<point x="415.5" y="637" type="line"/>
			<point x="415.5" y="559"/>
			<point x="465" y="472"/>
			<point x="465" y="433.5" type="curve" smooth="yes"/>
			<point x="465" y="369"/>
			<point x="336.5" y="281.5"/>
		</contour>
	</outline>
</glyph>
<glyph name="A.ss01" format="2">
	<advance width="525"/>
	<anchor x="459" y="0" name="ogonek"/>
	<anchor x="263" y="0" name="bottom"/>
	<anchor x="263" y="700" name="top"/>
	<outline>
		<contour>
			<point x="378" y="0" type="line"/>
			<point x="482" y="0" type="line"/>
			<point x="320" y="700" type="line"/>
			<point x="228.5" y="700" type="line"/>
			<point x="224" y="677" type="line"/>
		</contour>
		<contour>
			<point x="236" y="150" type="curve" smooth="yes"/>
			<point x="269.5" y="150"/>
			<point x="307.5" y="182.5"/>
			<point x="331" y="231" type="curve"/>
			<point x="322" y="250" type="line"/>
			<point x="322" y="240.5"/>
			<point x="314.5" y="234"/>
			<point x="303" y="234" type="curve" smooth="yes"/>
			<point x="274" y="234"/>
			<point x="236" y="279"/>
			<point x="198" y="279" type="curve" smooth="yes"/>
			<point x="163" y="279"/>
			<point x="124" y="247"/>
			<point x="101" y="199" type="curve"/>
			<point x="106" y="179" type="line"/>
			<point x="109" y="189"/>
			<point x="114.5" y="195"/>
			<point x="125.5" y="195" type="curve" smooth="yes"/>
			<point x="154.5" y="195"/>
			<point x="198" y="150"/>
		</contour>
		<contour>
			<point x="217" y="700" type="line"/>
			<point x="29" y="0" type="line"/>
			<point x="58" y="0" type="line"/>
			<point x="246" y="700" type="line"/>
		</contour>
		<component base="_part.shortserif" xOffset="89"/>
		<component base="_part.longserif" xOffset="275" yOffset="-672"/>
		<component base="_part.shortserif" xOffset="-60" yOffset="-672"/>
	</outline>
</glyph>
<glyph name="A.ss02" format="2">
	<advance width="460"/>
	<guideline x="141" y="508" angle="90"/>
	<guideline x="197" y="737" angle="90"/>
	<anchor x="394" y="0" name="ogonek"/>
	<anchor x="223" y="0" name="bottom"/>
	<anchor x="227" y="702.5" name="top"/>
	<outline>
		<contour>
			<point x="176" y="40" type="curve"/>
			<point x="188" y="40" type="line"/>
			<point x="188.5" y="122" type="line"/>
			<point x="188.5" y="160.5"/>
			<point x="128.5" y="203"/>
			<point x="95.5" y="217.5" type="curve"/>
			<point x="95.5" y="199.5" type="line"/>
			<point x="133" y="176"/>
			<point x="163" y="134.5"/>
		</contour>
		<contour>
			<point x="181.5" y="122" type="curve"/>
			<point x="182" y="40" type="line"/>
			<point x="194" y="40" type="line"/>
			<point x="207" y="134.5"/>
			<point x="237" y="176"/>
			<point x="274.5" y="199.5" type="curve"/>
			<point x="274.5" y="217.5" type="line"/>
			<point x="243.5" y="204"/>
			<point x="181.5" y="160.5"/>
		</contour>
		<component base="V" xScale="-1" yScale="-1" xOffset="460" yOffset="700"/>
	</outline>
</glyph>
<glyph name="A.ss03" format="2">
	<advance width="511"/>
	<guideline x="248" y="737" angle="90"/>
	<anchor x="417.5" y="0" name="ogonek"/>
	<anchor x="278" y="0" name="bottom"/>
	<anchor x="278" y="700" name="top"/>
	<outline>
		<contour>
			<point x="344" y="106" type="curve"/>
			<point x="358.5" y="135" type="line"/>
			<point x="305.5" y="189.5"/>
			<point x="209.5" y="220.5"/>
			<point x="122.5" y="220.5" type="curve" smooth="yes"/>
			<point x="27.5" y="220.5"/>
			<point x="-112" y="159.5"/>
			<point x="-183" y="159.5" type="curve" smooth="yes"/>
			<point x="-207.5" y="159.5"/>
			<point x="-242.5" y="172"/>
			<point x="-270.5" y="191" type="curve"/>
			<point x="-280" y="175.5" type="line"/>
			<point x="-234" y="139"/>
			<point x="-141" y="113.5"/>
			<point x="-53.5" y="113.5" type="curve" smooth="yes"/>
			<point x="51" y="113.5"/>
			<point x="170.5" y="145.5"/>
			<point x="247" y="145.5" type="curve" smooth="yes"/>
			<point x="303" y="145.5"/>
			<point x="338" y="129"/>
		</contour>
		<component base="V" xScale="-1" yScale="-1" xOffset="511" yOffset="700"/>
	</outline>
</glyph>
<glyph name="A.ss04" format="2">
	<advance width="460"/>
	<anchor x="394" y="0" name="ogonek"/>
	<anchor x="223" y="0" name="bottom"/>
	<anchor x="219" y="702.5" name="top"/>
	<outline>
		<contour>
			<point x="100" y="229" type="line"/>
			<point x="300" y="229" type="line"/>
			<point x="300" y="319" type="line"/>
			<point x="124" y="319" type="line"/>
		</contour>
		<component base="V" xScale="-1" yScale="-1" xOffset="460" yOffset="700"/>
	</outline>
</glyph>
<glyph name="A.ss05" format="2">
	<advance width="520"/>
	<anchor x="459" y="0" name="ogonek"/>
	<anchor x="263" y="0" name="bottom"/>
	<anchor x="263" y="700" name="top"/>
	<outline>
		<contour>
			<point x="378" y="0" type="line"/>
			<point x="482" y="0" type="line"/>
			<point x="320" y="700" type="line"/>
			<point x="228.5" y="700" type="line"/>
			<point x="224" y="677" type="line"/>
		</contour>
		<contour>
			<point x="36" y="0" type="line"/>
			<point x="65" y="0" type="line"/>
			<point x="253" y="700" type="line"/>
			<point x="224" y="700" type="line"/>
		</contour>
		<contour>
			<point x="241.5" y="100" type="curve" smooth="yes"/>
			<point x="295.5" y="100"/>
			<point x="344" y="121"/>
			<point x="362" y="152.5" type="curve"/>
			<point x="348" y="164.5" type="line"/>
			<point x="340" y="159"/>
			<point x="324.5" y="155.5"/>
			<point x="310" y="155.5" type="curve" smooth="yes"/>
			<point x="211" y="155"/>
			<point x="147" y="319"/>
			<point x="28.5" y="319" type="curve" smooth="yes"/>
			<point x="-10" y="319"/>
			<point x="-59" y="302"/>
			<point x="-95" y="276.5" type="curve"/>
			<point x="-84.5" y="261.5" type="line"/>
			<point x="-72" y="269.5"/>
			<point x="-60" y="273"/>
			<point x="-47" y="273" type="curve" smooth="yes"/>
			<point x="46.5" y="273"/>
			<point x="111" y="100"/>
		</contour>
		<component base="_part.shortserif" xOffset="89"/>
		<component base="_part.longserif" xOffset="270" yOffset="-672"/>
		<component base="_part.shortserif" xOffset="-55" yOffset="-672.500"/>
	</outline>
</glyph>
<glyph name="A.ss06" format="2">
	<advance width="475"/>
	<anchor x="409" y="0" name="ogonek"/>
	<anchor x="238" y="0" name="bottom"/>
	<anchor x="234" y="702.5" name="top"/>
	<outline>
		<contour>
			<point x="113" y="189" type="line"/>
			<point x="317" y="189" type="line"/>
			<point x="317" y="217" type="line"/>
			<point x="113" y="217" type="line"/>
		</contour>
		<component base="V" xScale="-1" yScale="-1" xOffset="475" yOffset="700"/>
	</outline>
</glyph>
<glyph name="AE.ss04" format="2">
	<advance width="615.5"/>
	<outline>
		<contour>
			<point x="33.5" y="0" type="line"/>
			<point x="62" y="0" type="line"/>
			<point x="317" y="700" type="line"/>
			<point x="288.5" y="700" type="line"/>
		</contour>
		<contour>
			<point x="237.5" y="0" type="line"/>
			<point x="457.5" y="0" type="line"/>
			<point x="457.5" y="28" type="line"/>
			<point x="237.5" y="28" type="line"/>
		</contour>
		<contour>
			<point x="377.5" y="0" type="line"/>
			<point x="513.5" y="0" type="line"/>
			<point x="513.5" y="28" type="line"/>
			<point x="377.5" y="28" type="line"/>
		</contour>
		<contour>
			<point x="-15" y="0" type="line"/>
			<point x="113" y="0" type="line"/>
			<point x="113" y="28" type="line"/>
			<point x="-15" y="28" type="line"/>
		</contour>
		<contour>
			<point x="297.5" y="0" type="line"/>
			<point x="397.5" y="0" type="line"/>
			<point x="397.5" y="700" type="line"/>
			<point x="297.5" y="700" type="line"/>
		</contour>
		<contour>
			<point x="542" y="532" type="line"/>
			<point x="560" y="532" type="line"/>
			<point x="535" y="700" type="line"/>
			<point x="485" y="700" type="line"/>
		</contour>
		<contour>
			<point x="456" y="413" type="line"/>
			<point x="497" y="413" type="line"/>
			<point x="497" y="531" type="line"/>
			<point x="479" y="531" type="line"/>
		</contour>
		<contour>
			<point x="479" y="303" type="line"/>
			<point x="497" y="303" type="line"/>
			<point x="497" y="421" type="line"/>
			<point x="456" y="421" type="line"/>
		</contour>
		<contour>
			<point x="387" y="403" type="line"/>
			<point x="497" y="403" type="line"/>
			<point x="497" y="431" type="line"/>
			<point x="387" y="431" type="line"/>
		</contour>
		<contour>
			<point x="208" y="672" type="line"/>
			<point x="368" y="672" type="line"/>
			<point x="368" y="700" type="line"/>
			<point x="208" y="700" type="line"/>
		</contour>
		<contour>
			<point x="480.5" y="0" type="line"/>
			<point x="530.5" y="0" type="line"/>
			<point x="585.5" y="168" type="line"/>
			<point x="567.5" y="168" type="line"/>
		</contour>
		<contour>
			<point x="397.5" y="672" type="line"/>
			<point x="523.5" y="672" type="line"/>
			<point x="523.5" y="700" type="line"/>
			<point x="397.5" y="700" type="line"/>
		</contour>
		<contour>
			<point x="140" y="279" type="line"/>
			<point x="340" y="279" type="line"/>
			<point x="340" y="369" type="line"/>
			<point x="173" y="369" type="line"/>
		</contour>
	</outline>
</glyph>
<glyph name="A_A.dlig" format="2">
	<advance width="820"/>
	<outline>
		<contour>
			<point x="72" y="89" type="line"/>
			<point x="317" y="89" type="line"/>
			<point x="317" y="117" type="line"/>
			<point x="72" y="117" type="line"/>
		</contour>
		<contour>
			<point x="227" y="737" type="line"/>
			<point x="175" y="544" type="line"/>
			<point x="321" y="0" type="line"/>
			<point x="425" y="0" type="line"/>
		</contour>
		<contour>
			<point x="227" y="737" type="line"/>
			<point x="29" y="0" type="line"/>
			<point x="58" y="0" type="line"/>
			<point x="240" y="677" type="line"/>
		</contour>
		<contour>
			<point x="475" y="28" type="line"/>
			<point x="255" y="28" type="line"/>
			<point x="255" y="0" type="line"/>
			<point x="475" y="0" type="line"/>
		</contour>
		<contour>
			<point x="113" y="28" type="line"/>
			<point x="-15" y="28" type="line"/>
			<point x="-15" y="0" type="line"/>
			<point x="113" y="0" type="line"/>
		</contour>
		<contour>
			<point x="432" y="89" type="line"/>
			<point x="677" y="89" type="line"/>
			<point x="677" y="117" type="line"/>
			<point x="432" y="117" type="line"/>
		</contour>
		<contour>
			<point x="587" y="737" type="line"/>
			<point x="535" y="544" type="line"/>
			<point x="681" y="0" type="line"/>
			<point x="785" y="0" type="line"/>
		</contour>
		<contour>
			<point x="587" y="737" type="line"/>
			<point x="389" y="0" type="line"/>
			<point x="418" y="0" type="line"/>
			<point x="600" y="677" type="line"/>
		</contour>
		<contour>
			<point x="835" y="28" type="line"/>
			<point x="615" y="28" type="line"/>
			<point x="615" y="0" type="line"/>
			<point x="835" y="0" type="line"/>
		</contour>
	</outline>
</glyph>
<glyph name="B.ss01" format="2">
	<advance width="508"/>
	<anchor x="247" y="700" name="top"/>
	<anchor x="247" y="0" name="bottom"/>
	<outline>
		<contour>
			<point x="192" y="406" type="curve"/>
			<point x="192" y="393" type="line"/>
			<point x="336" y="393"/>
			<point x="432" y="424.5"/>
			<point x="432" y="551.5" type="curve" smooth="yes"/>
			<point x="432" y="646.5"/>
			<point x="367" y="700"/>
			<point x="251" y="700" type="curve" smooth="yes"/>
			<point x="192" y="700" type="line"/>
			<point x="192" y="672" type="line"/>
			<point x="214" y="672" type="line" smooth="yes"/>
			<point x="288" y="672"/>
			<point x="337" y="645"/>
			<point x="337" y="538" type="curve" smooth="yes"/>
			<point x="337" y="459"/>
			<point x="308" y="406"/>
		</contour>
		<contour>
			<point x="182" y="0" type="line"/>
			<point x="241" y="0" type="line" smooth="yes"/>
			<point x="390" y="0"/>
			<point x="473" y="39"/>
			<point x="473" y="195" type="curve"/>
			<point x="378" y="195" type="line"/>
			<point x="378" y="83"/>
			<point x="348" y="28"/>
			<point x="204" y="28" type="curve" smooth="yes"/>
			<point x="182" y="28" type="line"/>
		</contour>
		<contour>
			<point x="378" y="195" type="curve"/>
			<point x="473" y="195" type="line"/>
			<point x="473" y="315"/>
			<point x="431.5" y="395"/>
			<point x="241" y="395" type="curve" smooth="yes"/>
			<point x="182" y="395" type="line"/>
			<point x="182" y="377" type="line"/>
			<point x="204" y="377" type="line" smooth="yes"/>
			<point x="318.5" y="377"/>
			<point x="378" y="348.5"/>
		</contour>
		<component base="_part.stemserifs" xOffset="-10"/>
	</outline>
</glyph>
<glyph name="B.ss04" format="2">
	<advance width="498"/>
	<outline>
		<contour>
			<point x="192" y="0" type="line"/>
			<point x="251" y="0" type="line" smooth="yes"/>
			<point x="384" y="0"/>
			<point x="473" y="100.5"/>
			<point x="473" y="251" type="curve"/>
			<point x="373" y="251" type="line"/>
			<point x="373" y="105"/>
			<point x="309.5" y="28"/>
			<point x="214" y="28" type="curve" smooth="yes"/>
			<point x="192" y="28" type="line"/>
		</contour>
		<contour>
			<point x="373" y="251" type="curve"/>
			<point x="473" y="251" type="line"/>
			<point x="473" y="445"/>
			<point x="384" y="500"/>
			<point x="251" y="500" type="curve" smooth="yes"/>
			<point x="192" y="500" type="line"/>
			<point x="192" y="482" type="line"/>
			<point x="214" y="482" type="line" smooth="yes"/>
			<point x="309.5" y="482"/>
			<point x="373" y="438.5"/>
		</contour>
		<contour>
			<point x="192" y="492" type="line"/>
			<point x="214" y="492" type="line" smooth="yes"/>
			<point x="312.5" y="492"/>
			<point x="442.5" y="546.5"/>
			<point x="442.5" y="625.5" type="curve" smooth="yes"/>
			<point x="442.5" y="693"/>
			<point x="347.5" y="700"/>
			<point x="250" y="700" type="curve" smooth="yes"/>
			<point x="192" y="700" type="line"/>
			<point x="192" y="672" type="line"/>
			<point x="214" y="672" type="line" smooth="yes"/>
			<point x="281.5" y="672"/>
			<point x="347" y="664.5"/>
			<point x="347" y="614" type="curve" smooth="yes"/>
			<point x="347" y="559.5"/>
			<point x="280" y="510"/>
			<point x="214" y="510" type="curve" smooth="yes"/>
			<point x="192" y="510" type="line"/>
		</contour>
		<component base="_part.halfstemleft" xOffset="10"/>
	</outline>
</glyph>
<glyph name="C.ss04" format="2">
	<advance width="445"/>
	<guideline x="425" y="307" angle="0"/>
	<guideline x="441" y="40" angle="0"/>
	<anchor x="346" y="350" name="center"/>
	<anchor x="346" y="0" name="bottom"/>
	<anchor x="346" y="700" name="top"/>
	<outline>
		<contour>
			<point x="383" y="0" type="curve"/>
			<point x="383" y="28" type="line"/>
			<point x="240" y="28"/>
			<point x="145" y="140"/>
			<point x="145" y="350" type="curve"/>
			<point x="35" y="350" type="line"/>
			<point x="35" y="135"/>
			<point x="174" y="0"/>
		</contour>
		<contour>
			<point x="35" y="350" type="curve"/>
			<point x="145" y="350" type="line"/>
			<point x="145" y="560"/>
			<point x="240" y="680"/>
			<point x="383" y="680" type="curve"/>
			<point x="383" y="708" type="line"/>
			<point x="174" y="708"/>
			<point x="35" y="565"/>
		</contour>
		<contour>
			<point x="380" y="168" type="line"/>
			<point x="370.5" y="6" type="line"/>
			<point x="383" y="0" type="line"/>
			<point x="420" y="0" type="line"/>
			<point x="398" y="168" type="line"/>
		</contour>
		<contour>
			<point x="380" y="540" type="line"/>
			<point x="398" y="540" type="line"/>
			<point x="420" y="708" type="line"/>
			<point x="383" y="708" type="line"/>
			<point x="370.5" y="701.5" type="line"/>
		</contour>
	</outline>
</glyph>
<glyph name="C.ss06" format="2">
	<advance width="461"/>
	<guideline x="385" y="307" angle="0"/>
	<guideline x="13" y="10" angle="0"/>
	<guideline x="327.5" y="474" angle="90"/>
	<anchor x="270" y="708" name="top"/>
	<anchor x="270" y="-10" name="bottom"/>
	<outline>
		<contour>
			<point x="35" y="350" type="curve"/>
			<point x="145" y="350" type="line"/>
			<point x="145" y="558"/>
			<point x="193" y="680"/>
			<point x="270" y="680" type="curve"/>
			<point x="270" y="708" type="line"/>
			<point x="112" y="708"/>
			<point x="35" y="526"/>
		</contour>
		<contour>
			<point x="270" y="-8" type="curve"/>
			<point x="270" y="20" type="line"/>
			<point x="193" y="20"/>
			<point x="145" y="142"/>
			<point x="145" y="350" type="curve"/>
			<point x="35" y="350" type="line"/>
			<point x="35" y="174"/>
			<point x="112" y="-8"/>
		</contour>
		<contour>
			<point x="270" y="20" type="curve"/>
			<point x="270" y="-8" type="line"/>
			<point x="323" y="-8"/>
			<point x="331.5" y="32"/>
			<point x="385.5" y="32" type="curve" smooth="yes"/>
			<point x="399.5" y="32"/>
			<point x="413.5" y="26"/>
			<point x="418.5" y="18" type="curve"/>
			<point x="436.5" y="20" type="line"/>
			<point x="387.5" y="233" type="line"/>
			<point x="369.5" y="231" type="line"/>
			<point x="384.5" y="120"/>
			<point x="351" y="20"/>
		</contour>
		<contour>
			<point x="361" y="510" type="curve" smooth="yes"/>
			<point x="358" y="477" type="line"/>
			<point x="374" y="477" type="line"/>
			<point x="441" y="703" type="line"/>
			<point x="423" y="705" type="line"/>
			<point x="413" y="679"/>
			<point x="404" y="667"/>
			<point x="388" y="667" type="curve" smooth="yes"/>
			<point x="365" y="667"/>
			<point x="326" y="708"/>
			<point x="270" y="708" type="curve"/>
			<point x="270" y="680" type="line"/>
			<point x="355" y="680"/>
			<point x="370" y="609"/>
		</contour>
	</outline>
</glyph>
<glyph name="Ccedilla.ss01" format="2">
	<advance width="435"/>
	<outline>
		<contour>
			<point x="228.5" y="-217" type="curve"/>
			<point x="245.5" y="-229.5" type="line"/>
			<point x="273" y="-204.5"/>
			<point x="291" y="-169.5"/>
			<point x="291" y="-141.5" type="curve" smooth="yes"/>
			<point x="291" y="-123"/>
			<point x="284.5" y="-104"/>
			<point x="271.5" y="-82.5" type="curve" smooth="yes"/>
			<point x="257.5" y="-59"/>
			<point x="248.5" y="-46.5"/>
			<point x="248.5" y="-32.5" type="curve" smooth="yes"/>
			<point x="248.5" y="-24.5"/>
			<point x="250.5" y="-16"/>
			<point x="258.5" y="-5" type="curve"/>
			<point x="240" y="5" type="line"/>
			<point x="216.5" y="-24.5"/>
			<point x="201" y="-57"/>
			<point x="201" y="-75.5" type="curve" smooth="yes"/>
			<point x="201" y="-94"/>
			<point x="211.5" y="-112"/>
			<point x="231.5" y="-136" type="curve" smooth="yes"/>
			<point x="245" y="-152"/>
			<point x="252" y="-164"/>
			<point x="252" y="-176" type="curve" smooth="yes"/>
			<point x="252" y="-189"/>
			<point x="244" y="-201"/>
		</contour>
		<component base="C"/>
	</outline>
</glyph>
<glyph name="E.ss01" format="2">
	<advance width="491"/>
	<guideline x="251" y="484" angle="0"/>
	<anchor x="304" y="0" name="ogonek"/>
	<anchor x="233" y="700" name="top"/>
	<anchor x="20" y="700" name="topleft"/>
	<anchor x="233" y="0" name="bottom"/>
	<outline>
		<contour>
			<point x="327" y="0" type="line"/>
			<point x="399" y="1" type="line"/>
			<point x="461" y="263" type="line"/>
			<point x="451" y="263" type="line"/>
		</contour>
		<contour>
			<point x="225" y="0" type="line"/>
			<point x="361" y="0" type="line"/>
			<point x="361" y="28" type="line"/>
			<point x="225" y="28" type="line"/>
		</contour>
		<contour>
			<point x="245" y="672" type="line"/>
			<point x="371" y="672" type="line"/>
			<point x="371" y="700" type="line"/>
			<point x="245" y="700" type="line"/>
		</contour>
		<contour>
			<point x="436" y="557" type="line"/>
			<point x="443" y="564" type="line"/>
			<point x="378" y="700" type="line"/>
			<point x="327" y="700" type="line"/>
			<point x="363" y="625" type="line"/>
		</contour>
		<component base="_part.stemserifs" xOffset="-10"/>
		<component base="_part.wavestrokehorizontal" xOffset="125" yOffset="80"/>
	</outline>
</glyph>
<glyph name="E.ss03" format="2">
	<advance width="491"/>
	<anchor x="304" y="0" name="ogonek"/>
	<anchor x="241" y="700" name="top"/>
	<anchor x="20" y="700" name="topleft"/>
	<anchor x="241" y="0" name="bottom"/>
	<outline>
		<contour>
			<point x="225" y="0" type="line"/>
			<point x="361" y="0" type="line"/>
			<point x="361" y="28" type="line"/>
			<point x="225" y="28" type="line"/>
		</contour>
		<contour>
			<point x="327" y="0" type="line"/>
			<point x="399" y="1" type="line"/>
			<point x="461" y="263" type="line"/>
			<point x="443" y="263" type="line"/>
		</contour>
		<contour>
			<point x="245" y="672" type="line"/>
			<point x="371" y="672" type="line"/>
			<point x="371" y="700" type="line"/>
			<point x="245" y="700" type="line"/>
		</contour>
		<contour>
			<point x="430" y="551" type="line"/>
			<point x="443" y="564" type="line"/>
			<point x="378" y="700" type="line"/>
			<point x="327" y="700" type="line"/>
			<point x="363" y="625" type="line"/>
		</contour>
		<contour>
			<point x="170" y="346" type="curve"/>
			<point x="195" y="317" type="line"/>
			<point x="195" y="340"/>
			<point x="229" y="356.5"/>
			<point x="285" y="356.5" type="curve" smooth="yes"/>
			<point x="361.5" y="356.5"/>
			<point x="481" y="324.5"/>
			<point x="585.5" y="324.5" type="curve" smooth="yes"/>
			<point x="673" y="324.5"/>
			<point x="766" y="350"/>
			<point x="812" y="386.5" type="curve"/>
			<point x="802.5" y="402" type="line"/>
			<point x="774.5" y="383"/>
			<point x="739.5" y="370.5"/>
			<point x="715" y="370.5" type="curve" smooth="yes"/>
			<point x="644" y="370.5"/>
			<point x="504.5" y="431.5"/>
			<point x="409.5" y="431.5" type="curve" smooth="yes"/>
			<point x="315.5" y="431.5"/>
			<point x="220" y="397.5"/>
		</contour>
		<component base="_part.stemserifs" xOffset="-10"/>
	</outline>
</glyph>
<glyph name="F.ss01" format="2">
	<advance width="432.5"/>
	<guideline x="442" y="699" angle="90"/>
	<outline>
		<contour>
			<point x="95" y="0" type="line"/>
			<point x="315" y="0" type="line"/>
			<point x="315" y="28" type="line"/>
			<point x="95" y="28" type="line"/>
		</contour>
		<contour>
			<point x="393" y="417" type="line"/>
			<point x="411" y="417" type="line"/>
			<point x="399" y="700" type="line"/>
			<point x="329" y="700" type="line"/>
		</contour>
		<contour>
			<point x="245" y="672" type="line"/>
			<point x="391" y="672" type="line"/>
			<point x="391" y="700" type="line"/>
			<point x="245" y="700" type="line"/>
		</contour>
		<component base="_part.stemserifs" xOffset="-10"/>
		<component base="_part.wavestrokehorizontal" xOffset="115" yOffset="-70"/>
	</outline>
</glyph>
<glyph name="G.ss04" format="2">
	<advance width="550"/>
	<guideline x="230" y="427" angle="90"/>
	<guideline x="514" y="-15" angle="0"/>
	<guideline x="349" y="477" angle="90"/>
	<anchor x="346" y="350" name="center"/>
	<anchor x="346" y="0" name="bottom"/>
	<anchor x="346" y="700" name="top"/>
	<outline>
		<contour>
			<point x="359" y="0" type="line"/>
			<point x="383" y="0" type="line"/>
			<point x="459" y="0" type="line"/>
			<point x="459" y="427" type="line"/>
			<point x="359" y="427" type="line"/>
		</contour>
		<contour>
			<point x="383" y="-8" type="curve"/>
			<point x="383" y="20" type="line"/>
			<point x="240" y="20"/>
			<point x="145" y="140"/>
			<point x="145" y="350" type="curve"/>
			<point x="35" y="350" type="line"/>
			<point x="35" y="135"/>
			<point x="174" y="-8"/>
		</contour>
		<contour>
			<point x="35" y="350" type="curve"/>
			<point x="145" y="350" type="line"/>
			<point x="145" y="560"/>
			<point x="240" y="680"/>
			<point x="383" y="680" type="curve"/>
			<point x="383" y="708" type="line"/>
			<point x="174" y="708"/>
			<point x="35" y="565"/>
		</contour>
		<contour>
			<point x="383" y="10" type="line"/>
			<point x="383" y="-8" type="line"/>
			<point x="407.5" y="-8"/>
			<point x="438" y="-5"/>
			<point x="459" y="0" type="curve"/>
			<point x="459" y="9" type="line"/>
		</contour>
		<contour>
			<point x="380" y="540" type="line"/>
			<point x="398" y="540" type="line"/>
			<point x="420" y="708" type="line"/>
			<point x="383" y="708" type="line"/>
			<point x="370.5" y="701.5" type="line"/>
		</contour>
		<component base="_part.longserif" xOffset="265" yOffset="-273"/>
		<component base="_part.longserif" xOffset="205" yOffset="-273"/>
	</outline>
</glyph>
<glyph name="G.ss06" format="2">
	<advance width="512"/>
	<guideline x="163" y="700" angle="90"/>
	<guideline x="494" y="-15" angle="0"/>
	<guideline x="267" y="264.5" angle="90"/>
	<anchor x="270" y="700" name="top"/>
	<anchor x="270" y="0" name="bottom"/>
	<outline>
		<contour>
			<point x="279" y="-8" type="curve"/>
			<point x="279" y="20" type="line"/>
			<point x="202" y="20"/>
			<point x="145" y="142"/>
			<point x="145" y="350" type="curve"/>
			<point x="35" y="350" type="line"/>
			<point x="35" y="174"/>
			<point x="121" y="-8"/>
		</contour>
		<contour>
			<point x="35" y="350" type="curve"/>
			<point x="145" y="350" type="line"/>
			<point x="145" y="558"/>
			<point x="193" y="680"/>
			<point x="270" y="680" type="curve"/>
			<point x="270" y="708" type="line"/>
			<point x="112" y="708"/>
			<point x="35" y="526"/>
		</contour>
		<contour>
			<point x="279" y="20" type="curve"/>
			<point x="279" y="-8" type="line"/>
			<point x="364.5" y="-8"/>
			<point x="413.5" y="46"/>
			<point x="477" y="46" type="curve"/>
			<point x="477" y="74" type="line"/>
			<point x="462.5" y="75.5"/>
			<point x="459" y="96.5"/>
			<point x="459" y="180.5" type="curve" smooth="yes"/>
			<point x="459" y="242" type="line" smooth="yes"/>
			<point x="459" y="327.5"/>
			<point x="466" y="349"/>
			<point x="477" y="349" type="curve"/>
			<point x="477" y="377" type="line"/>
			<point x="359" y="377" type="line"/>
			<point x="359" y="81.5" type="line" smooth="yes"/>
			<point x="359" y="51.5"/>
			<point x="353" y="41.5"/>
			<point x="329.5" y="30" type="curve" smooth="yes"/>
			<point x="316.5" y="23.5"/>
			<point x="299.5" y="20"/>
		</contour>
		<contour>
			<point x="362" y="510" type="curve" smooth="yes"/>
			<point x="359" y="477" type="line"/>
			<point x="375" y="477" type="line"/>
			<point x="442" y="703" type="line"/>
			<point x="424" y="705" type="line"/>
			<point x="414" y="679"/>
			<point x="405" y="667"/>
			<point x="389" y="667" type="curve" smooth="yes"/>
			<point x="366" y="667"/>
			<point x="327" y="708"/>
			<point x="270" y="708" type="curve"/>
			<point x="270" y="680" type="line"/>
			<point x="356" y="680"/>
			<point x="371" y="609"/>
		</contour>
		<component base="_part.longserif" xOffset="195" yOffset="-323"/>
	</outline>
</glyph>
<glyph name="H.ss01" format="2">
	<advance width="580"/>
	<outline>
		<contour>
			<point x="299" y="302" type="curve" smooth="yes"/>
			<point x="336.5" y="302"/>
			<point x="376" y="333"/>
			<point x="398" y="379" type="curve"/>
			<point x="385" y="392" type="line"/>
			<point x="385" y="382"/>
			<point x="377" y="376"/>
			<point x="366" y="376" type="curve" smooth="yes"/>
			<point x="337" y="376"/>
			<point x="319" y="421"/>
			<point x="281" y="421" type="curve" smooth="yes"/>
			<point x="243.5" y="421"/>
			<point x="204" y="390"/>
			<point x="182" y="344" type="curve"/>
			<point x="195" y="331" type="line"/>
			<point x="195" y="341"/>
			<point x="203" y="347"/>
			<point x="214" y="347" type="curve" smooth="yes"/>
			<point x="243" y="347"/>
			<point x="261" y="302"/>
		</contour>
		<component base="_part.stemserifs" xOffset="-10"/>
		<component base="_part.stemserifs" xOffset="280"/>
	</outline>
</glyph>
<glyph name="H.ss03" format="2">
	<advance width="590"/>
	<anchor x="290" y="350" name="center"/>
	<anchor x="290" y="700" name="top"/>
	<anchor x="20" y="700" name="topleft"/>
	<anchor x="290" y="0" name="bottom"/>
	<outline>
		<contour>
			<point x="395" y="450.5" type="curve"/>
			<point x="403" y="454" type="line"/>
			<point x="402.5" y="519.5"/>
			<point x="357.5" y="573.5"/>
			<point x="290" y="573.5" type="curve" smooth="yes"/>
			<point x="206.5" y="573.5"/>
			<point x="136.5" y="510"/>
			<point x="56" y="510" type="curve" smooth="yes"/>
			<point x="16.5" y="510"/>
			<point x="-23" y="522.5"/>
			<point x="-51" y="541.5" type="curve"/>
			<point x="-60" y="525" type="line"/>
			<point x="-16.5" y="491"/>
			<point x="56.5" y="468"/>
			<point x="125.5" y="468" type="curve" smooth="yes"/>
			<point x="210" y="468"/>
			<point x="251.5" y="500"/>
			<point x="313" y="500" type="curve"/>
			<point x="362" y="500"/>
			<point x="395" y="480"/>
		</contour>
		<component base="_part.stemserifs"/>
		<component base="_part.stemserifs" xOffset="290"/>
	</outline>
</glyph>
<glyph name="H_E.dlig" format="2">
	<advance width="753"/>
	<anchor x="290" y="350" name="center"/>
	<outline>
		<contour>
			<point x="95" y="0" type="line"/>
			<point x="195" y="0" type="line"/>
			<point x="195" y="700" type="line"/>
			<point x="95" y="700" type="line"/>
		</contour>
		<contour>
			<point x="185" y="409" type="line"/>
			<point x="395" y="409" type="line"/>
			<point x="395" y="437" type="line"/>
			<point x="185" y="437" type="line"/>
		</contour>
		<contour>
			<point x="385" y="0" type="line"/>
			<point x="485" y="0" type="line"/>
			<point x="485" y="700" type="line"/>
			<point x="385" y="700" type="line"/>
		</contour>
		<contour>
			<point x="645" y="28" type="line"/>
			<point x="325" y="28" type="line"/>
			<point x="325" y="0" type="line"/>
			<point x="645" y="0" type="line"/>
		</contour>
		<contour>
			<point x="255" y="28" type="line"/>
			<point x="35" y="28" type="line"/>
			<point x="35" y="0" type="line"/>
			<point x="255" y="0" type="line"/>
		</contour>
		<contour>
			<point x="618" y="0" type="line"/>
			<point x="668" y="0" type="line"/>
			<point x="723" y="168" type="line"/>
			<point x="705" y="168" type="line"/>
		</contour>
		<contour>
			<point x="581" y="309" type="line"/>
			<point x="599" y="309" type="line"/>
			<point x="599" y="427" type="line"/>
			<point x="558" y="427" type="line"/>
		</contour>
		<contour>
			<point x="475" y="409" type="line"/>
			<point x="599" y="409" type="line"/>
			<point x="599" y="437" type="line"/>
			<point x="475" y="437" type="line"/>
		</contour>
		<contour>
			<point x="558" y="419" type="line"/>
			<point x="599" y="419" type="line"/>
			<point x="599" y="537" type="line"/>
			<point x="581" y="537" type="line"/>
		</contour>
		<contour>
			<point x="675" y="532" type="line"/>
			<point x="693" y="532" type="line"/>
			<point x="668" y="700" type="line"/>
			<point x="618" y="700" type="line"/>
		</contour>
		<contour>
			<point x="535" y="672" type="line"/>
			<point x="661" y="672" type="line"/>
			<point x="661" y="700" type="line"/>
			<point x="535" y="700" type="line"/>
		</contour>
		<contour>
			<point x="385" y="0" type="line"/>
			<point x="485" y="0" type="line"/>
			<point x="485" y="700" type="line"/>
			<point x="385" y="700" type="line"/>
		</contour>
		<contour>
			<point x="325" y="672" type="line"/>
			<point x="545" y="672" type="line"/>
			<point x="545" y="700" type="line"/>
			<point x="325" y="700" type="line"/>
		</contour>
		<contour>
			<point x="255" y="700" type="line"/>
			<point x="35" y="700" type="line"/>
			<point x="35" y="672" type="line"/>
			<point x="255" y="672" type="line"/>
		</contour>
	</outline>
</glyph>
<glyph name="J.ss01" format="2">
	<advance width="494"/>
	<anchor x="356.5" y="700" name="top"/>
	<anchor x="356.5" y="0" name="bottom"/>
	<outline>
		<contour>
			<point x="215" y="-8" type="curve" smooth="yes"/>
			<point x="347.5" y="-8"/>
			<point x="404" y="63.5"/>
			<point x="404" y="181.5" type="curve"/>
			<point x="304" y="178.5" type="line"/>
			<point x="302" y="91.5"/>
			<point x="284.5" y="20"/>
			<point x="215" y="20" type="curve" smooth="yes"/>
			<point x="162" y="20"/>
			<point x="113.5" y="41"/>
			<point x="113.5" y="89" type="curve" smooth="yes"/>
			<point x="113.5" y="156.5"/>
			<point x="209.5" y="210.5"/>
			<point x="209.5" y="304" type="curve" smooth="yes"/>
			<point x="209.5" y="391.5"/>
			<point x="126" y="472.5"/>
			<point x="32" y="536" type="curve"/>
			<point x="20" y="522.5" type="line"/>
			<point x="82" y="472"/>
			<point x="123.5" y="423.5"/>
			<point x="123.5" y="365" type="curve" smooth="yes"/>
			<point x="123.5" y="291.5"/>
			<point x="62.5" y="239"/>
			<point x="62.5" y="122" type="curve" smooth="yes"/>
			<point x="62.5" y="42"/>
			<point x="131.5" y="-8"/>
		</contour>
		<contour>
			<point x="81" y="532" type="line"/>
			<point x="101" y="532" type="line"/>
			<point x="158" y="700" type="line"/>
			<point x="106" y="700" type="line"/>
		</contour>
		<contour>
			<point x="304" y="178.5" type="line"/>
			<point x="404" y="181.5" type="line"/>
			<point x="404" y="700" type="line"/>
			<point x="304" y="700" type="line"/>
		</contour>
		<contour>
			<point x="130" y="672" type="line"/>
			<point x="464" y="672" type="line"/>
			<point x="464" y="700" type="line"/>
			<point x="130" y="700" type="line"/>
		</contour>
	</outline>
</glyph>
<glyph name="J.ss04" format="2">
	<advance width="408"/>
	<guideline x="-65.5" y="379.5" angle="90"/>
	<anchor x="209" y="700" name="top"/>
	<anchor x="209" y="0" name="bottom"/>
	<outline>
		<contour>
			<point x="25" y="532" type="line"/>
			<point x="43" y="532" type="line"/>
			<point x="101" y="700" type="line"/>
			<point x="50" y="700" type="line"/>
		</contour>
		<contour>
			<point x="323" y="350" type="line"/>
			<point x="323" y="700" type="line"/>
			<point x="223" y="700" type="line"/>
			<point x="223" y="350" type="line"/>
		</contour>
		<contour>
			<point x="74" y="672" type="line"/>
			<point x="383" y="672" type="line"/>
			<point x="383" y="700" type="line"/>
			<point x="74" y="700" type="line"/>
		</contour>
		<contour>
			<point x="85" y="0" type="line"/>
			<point x="106.5" y="7" type="line"/>
			<point x="88" y="233" type="line"/>
			<point x="70" y="233" type="line"/>
			<point x="47" y="0" type="line"/>
		</contour>
		<contour>
			<point x="85" y="28" type="curve"/>
			<point x="85" y="0" type="line"/>
			<point x="294" y="0"/>
			<point x="323" y="135"/>
			<point x="323" y="350" type="curve"/>
			<point x="223" y="350" type="line"/>
			<point x="223" y="140"/>
			<point x="228" y="28"/>
		</contour>
	</outline>
</glyph>
<glyph name="J.ss06" format="2">
	<advance width="281.5"/>
	<guideline x="132" y="-93" angle="0"/>
	<guideline x="166" y="-65" angle="0"/>
	<anchor x="149" y="700" name="top"/>
	<anchor x="149" y="0" name="bottom"/>
	<outline>
		<contour>
			<point x="196.5" y="70" type="line"/>
			<point x="196.5" y="700" type="line"/>
			<point x="96.5" y="700" type="line"/>
			<point x="96.5" y="85" type="line"/>
		</contour>
		<contour>
			<point x="-22" y="-19.5" type="curve"/>
			<point x="-40" y="-19.5" type="line"/>
			<point x="-40" y="-69.5"/>
			<point x="6" y="-93"/>
			<point x="56.5" y="-93" type="curve" smooth="yes"/>
			<point x="140.5" y="-93"/>
			<point x="196.5" y="-54"/>
			<point x="196.5" y="70" type="curve"/>
			<point x="96.5" y="85" type="line"/>
			<point x="96.5" y="-39.5"/>
			<point x="73" y="-65"/>
			<point x="38" y="-65" type="curve" smooth="yes"/>
			<point x="9" y="-65"/>
			<point x="-22" y="-47.5"/>
		</contour>
		<component base="_part.longserif" xScale="-1" xOffset="301.500"/>
	</outline>
</glyph>
<glyph name="J.ss09" format="2">
	<advance width="800"/>
	<guideline x="496" y="-8" angle="0"/>
	<guideline x="-5" y="90.5" angle="90"/>
	<anchor x="667.5" y="700" name="top"/>
	<anchor x="667.5" y="0" name="bottom"/>
	<outline>
		<contour>
			<point x="402" y="532" type="line"/>
			<point x="420" y="532" type="line"/>
			<point x="477" y="700" type="line"/>
			<point x="427" y="700" type="line"/>
		</contour>
		<contour>
			<point x="615" y="178.5" type="line"/>
			<point x="715" y="181.5" type="line"/>
			<point x="715" y="700" type="line"/>
			<point x="615" y="700" type="line"/>
		</contour>
		<contour>
			<point x="441" y="672" type="line"/>
			<point x="775" y="672" type="line"/>
			<point x="775" y="700" type="line"/>
			<point x="441" y="700" type="line"/>
		</contour>
		<contour>
			<point x="25" y="90.5" type="curve" smooth="yes"/>
			<point x="25" y="22.5"/>
			<point x="76" y="-8"/>
			<point x="125.5" y="-8" type="curve" smooth="yes"/>
			<point x="219" y="-8"/>
			<point x="320.5" y="85.5"/>
			<point x="320.5" y="186" type="curve" smooth="yes"/>
			<point x="320.5" y="240.5"/>
			<point x="290.5" y="291"/>
			<point x="241" y="339.5" type="curve" smooth="yes"/>
			<point x="209" y="370.5"/>
			<point x="130" y="426"/>
			<point x="130" y="500" type="curve" smooth="yes"/>
			<point x="130" y="597"/>
			<point x="225.5" y="595"/>
			<point x="309.5" y="545" type="curve" smooth="yes"/>
			<point x="375.5" y="506"/>
			<point x="434.5" y="437.5"/>
			<point x="434.5" y="365" type="curve" smooth="yes"/>
			<point x="434.5" y="301.5"/>
			<point x="373.5" y="194"/>
			<point x="373.5" y="122" type="curve" smooth="yes"/>
			<point x="373.5" y="44"/>
			<point x="442.5" y="-8"/>
			<point x="526" y="-8" type="curve" smooth="yes"/>
			<point x="658.5" y="-8"/>
			<point x="715" y="63.5"/>
			<point x="715" y="181.5" type="curve"/>
			<point x="615" y="178.5" type="line"/>
			<point x="613" y="71.5"/>
			<point x="595.5" y="20"/>
			<point x="526" y="20" type="curve" smooth="yes"/>
			<point x="457" y="20"/>
			<point x="424.5" y="43.5"/>
			<point x="424.5" y="79" type="curve" smooth="yes"/>
			<point x="424.5" y="166.5"/>
			<point x="520.5" y="224"/>
			<point x="520.5" y="304" type="curve" smooth="yes"/>
			<point x="520.5" y="405.5"/>
			<point x="420" y="511.5"/>
			<point x="313.5" y="572" type="curve" smooth="yes"/>
			<point x="262" y="601.5"/>
			<point x="207" y="617.5"/>
			<point x="159.5" y="617.5" type="curve" smooth="yes"/>
			<point x="79" y="617.5"/>
			<point x="25" y="574.5"/>
			<point x="25" y="510" type="curve" smooth="yes"/>
			<point x="25" y="432"/>
			<point x="104" y="387.5"/>
			<point x="222" y="310" type="curve" smooth="yes"/>
			<point x="266" y="281"/>
			<point x="290.5" y="249.5"/>
			<point x="290.5" y="211" type="curve" smooth="yes"/>
			<point x="290.5" y="145"/>
			<point x="218.5" y="108"/>
			<point x="163" y="108" type="curve" smooth="yes"/>
			<point x="120.5" y="108"/>
			<point x="84.5" y="130"/>
			<point x="84.5" y="168.5" type="curve" smooth="yes"/>
			<point x="84.5" y="191.5"/>
			<point x="97.5" y="216"/>
			<point x="124" y="231" type="curve"/>
			<point x="108" y="242" type="line"/>
			<point x="58" y="211"/>
			<point x="25" y="150.5"/>
		</contour>
	</outline>
</glyph>
<glyph name="K.ss04" format="2">
	<advance width="536"/>
	<anchor x="258" y="700" name="top"/>
	<anchor x="258" y="0" name="bottom"/>
	<outline>
		<contour>
			<point x="360" y="0" type="line"/>
			<point x="461" y="0" type="line"/>
			<point x="290.5" y="605.5" type="line"/>
			<point x="213" y="551.5" type="line"/>
		</contour>
		<contour>
			<point x="291" y="0" type="line"/>
			<point x="511" y="0" type="line"/>
			<point x="511" y="28" type="line"/>
			<point x="291" y="28" type="line"/>
		</contour>
		<contour>
			<point x="132" y="515" type="line"/>
			<point x="181.5" y="515" type="line"/>
			<point x="446.5" y="700" type="line"/>
			<point x="397" y="700" type="line"/>
		</contour>
		<contour>
			<point x="291" y="672" type="line"/>
			<point x="461" y="672" type="line"/>
			<point x="461" y="700" type="line"/>
			<point x="291" y="700" type="line"/>
		</contour>
		<component base="_part.stemserifs" xOffset="-10"/>
	</outline>
</glyph>
<glyph name="L.ss01" format="2">
	<advance width="433"/>
	<outline>
		<contour>
			<point x="298" y="0" type="curve"/>
			<point x="316" y="0" type="line"/>
			<point x="380" y="71"/>
			<point x="396" y="121.5"/>
			<point x="396" y="167" type="curve" smooth="yes"/>
			<point x="396" y="208"/>
			<point x="383" y="243"/>
			<point x="372" y="275" type="curve" smooth="yes"/>
			<point x="365" y="297"/>
			<point x="362" y="323"/>
			<point x="362" y="346" type="curve" smooth="yes"/>
			<point x="362" y="394"/>
			<point x="375" y="441"/>
			<point x="403" y="471" type="curve"/>
			<point x="387" y="479.5" type="line"/>
			<point x="318" y="424.5"/>
			<point x="272" y="335.5"/>
			<point x="272" y="260" type="curve" smooth="yes"/>
			<point x="272" y="223"/>
			<point x="283" y="197"/>
			<point x="294" y="171" type="curve" smooth="yes"/>
			<point x="307" y="140"/>
			<point x="314" y="112"/>
			<point x="314" y="83" type="curve" smooth="yes"/>
			<point x="314" y="58"/>
			<point x="309" y="31"/>
		</contour>
		<contour>
			<point x="225" y="0" type="line"/>
			<point x="311" y="0" type="line"/>
			<point x="311" y="28" type="line"/>
			<point x="225" y="28" type="line"/>
		</contour>
		<component base="_part.stemserifs" xOffset="-10"/>
	</outline>
</glyph>
<glyph name="L.ss02" format="2">
	<advance width="413"/>
	<anchor x="207" y="350" name="center"/>
	<anchor x="207" y="700" name="top"/>
	<anchor x="393" y="700" name="topright"/>
	<anchor x="207" y="0" name="bottom"/>
	<outline>
		<contour>
			<point x="306" y="0" type="line"/>
			<point x="366" y="0" type="line"/>
			<point x="388" y="383" type="line"/>
			<point x="370" y="383" type="line"/>
		</contour>
		<contour>
			<point x="245" y="0" type="line"/>
			<point x="331" y="0" type="line"/>
			<point x="331" y="28" type="line"/>
			<point x="245" y="28" type="line"/>
		</contour>
		<component base="_part.stemserifs" xOffset="-10"/>
	</outline>
</glyph>
<glyph name="L.ss07" format="2">
	<advance width="443"/>
	<outline>
		<contour>
			<point x="246" y="0" type="line"/>
			<point x="316" y="0" type="line"/>
			<point x="348" y="283" type="line"/>
			<point x="330" y="283" type="line"/>
		</contour>
		<contour>
			<point x="245" y="0" type="line"/>
			<point x="346" y="0" type="line"/>
			<point x="346" y="28" type="line"/>
			<point x="245" y="28" type="line"/>
		</contour>
		<contour>
			<point x="318" y="0" type="line"/>
			<point x="368" y="0" type="line"/>
			<point x="423" y="168" type="line"/>
			<point x="405" y="168" type="line"/>
		</contour>
		<component base="_part.stemserifs" xOffset="-10"/>
	</outline>
</glyph>
<glyph name="L_L.dlig" format="2">
	<advance width="684.5"/>
	<outline>
		<contour>
			<point x="95" y="0" type="line"/>
			<point x="195" y="0" type="line"/>
			<point x="195" y="700" type="line"/>
			<point x="95" y="700" type="line"/>
		</contour>
		<contour>
			<point x="35" y="0" type="line"/>
			<point x="576.5" y="0" type="line"/>
			<point x="576.5" y="28" type="line"/>
			<point x="35" y="28" type="line"/>
		</contour>
		<contour>
			<point x="304.5" y="283" type="line"/>
			<point x="574.5" y="283" type="line"/>
			<point x="574.5" y="311" type="line"/>
			<point x="304.5" y="311" type="line"/>
		</contour>
		<contour>
			<point x="527.5" y="0" type="line"/>
			<point x="587.5" y="0" type="line"/>
			<point x="659.5" y="233" type="line"/>
			<point x="641.5" y="233" type="line"/>
		</contour>
		<contour>
			<point x="35" y="672" type="line"/>
			<point x="255" y="672" type="line"/>
			<point x="255" y="700" type="line"/>
			<point x="35" y="700" type="line"/>
		</contour>
		<contour>
			<point x="364.5" y="283" type="line"/>
			<point x="464.5" y="283" type="line"/>
			<point x="464.5" y="700" type="line"/>
			<point x="364.5" y="700" type="line"/>
		</contour>
		<contour>
			<point x="527.5" y="283" type="line"/>
			<point x="587.5" y="283" type="line"/>
			<point x="659.5" y="516" type="line"/>
			<point x="641.5" y="516" type="line"/>
		</contour>
		<contour>
			<point x="304.5" y="672" type="line"/>
			<point x="524.5" y="672" type="line"/>
			<point x="524.5" y="700" type="line"/>
			<point x="304.5" y="700" type="line"/>
		</contour>
	</outline>
</glyph>
<glyph name="M.ss03" format="2">
	<advance width="581"/>
	<guideline x="405" y="-106.5" angle="0"/>
	<outline>
		<contour>
			<point x="436" y="0" type="line"/>
			<point x="538" y="0" type="line"/>
			<point x="368.5" y="737" type="line"/>
			<point x="319" y="504" type="line"/>
		</contour>
		<contour>
			<point x="36" y="0" type="line"/>
			<point x="64.5" y="0" type="line"/>
			<point x="212.5" y="640.5" type="line"/>
			<point x="205.5" y="737" type="line"/>
		</contour>
		<contour>
			<point x="219.5" y="-56.5" type="line"/>
			<point x="270.5" y="212" type="line"/>
			<point x="205.5" y="737" type="line"/>
			<point x="138" y="443" type="line"/>
		</contour>
		<contour>
			<point x="219.5" y="-56.5" type="line"/>
			<point x="377" y="640.5" type="line"/>
			<point x="368.5" y="737" type="line"/>
			<point x="221.5" y="46" type="line"/>
		</contour>
		<component base="_part.longserif" xOffset="331" yOffset="-692"/>
		<component base="_part.shortserif" xOffset="-60" yOffset="-692"/>
	</outline>
</glyph>
<glyph name="M.ss04" format="2">
	<advance width="552.5"/>
	<outline>
		<contour>
			<point x="357.5" y="0" type="line"/>
			<point x="457.5" y="0" type="line"/>
			<point x="457.5" y="700" type="line"/>
			<point x="372" y="700" type="line"/>
			<point x="357.5" y="680" type="line"/>
		</contour>
		<contour>
			<point x="223" y="484" type="line"/>
			<point x="279.5" y="561.5" type="line"/>
			<point x="182.5" y="700" type="line"/>
			<point x="72.5" y="700" type="line"/>
		</contour>
		<contour>
			<point x="224" y="482.5" type="line"/>
			<point x="377" y="700" type="line"/>
			<point x="342" y="700" type="line"/>
			<point x="207" y="507" type="line"/>
		</contour>
		<component base="_part.stemthin" xOffset="10"/>
		<component base="_part.longserif" xScale="-1" yScale="-1" xOffset="562.500" yOffset="700"/>
		<component base="_part.shortserif" xOffset="344.500"/>
	</outline>
</glyph>
<glyph name="M.ss06" format="2">
	<advance width="582"/>
	<anchor x="291" y="700" name="top"/>
	<anchor x="291" y="0" name="bottom"/>
	<outline>
		<contour>
			<point x="245" y="-58" type="line"/>
			<point x="288" y="199.5" type="line"/>
			<point x="204" y="700" type="line"/>
			<point x="112" y="700" type="line"/>
		</contour>
		<contour>
			<point x="233.5" y="36.5" type="line"/>
			<point x="245" y="-58" type="line"/>
			<point x="378" y="700" type="line"/>
			<point x="349.5" y="700" type="line"/>
		</contour>
		<contour>
			<point x="65" y="0" type="line"/>
			<point x="93" y="0" type="line"/>
			<point x="125" y="700" type="line"/>
			<point x="97" y="700" type="line"/>
		</contour>
		<contour>
			<point x="407" y="0" type="line"/>
			<point x="507" y="0" type="line"/>
			<point x="475" y="700" type="line"/>
			<point x="375" y="700" type="line"/>
		</contour>
		<component base="_part.longserif" xScale="-1" yScale="-1" xOffset="612" yOffset="700"/>
		<component base="_part.shortserif" xOffset="364"/>
		<component base="_part.shortserif"/>
		<component base="_part.shortserif" xOffset="-30" yOffset="-672"/>
	</outline>
</glyph>
<glyph name="O.ss03" format="2">
	<advance width="550"/>
	<guideline x="-64" y="-8" angle="0"/>
	<guideline x="115" y="350" angle="0"/>
	<anchor x="275" y="350" name="center"/>
	<anchor x="491" y="10" name="ogonek"/>
	<anchor x="275" y="700" name="top"/>
	<anchor x="525" y="700" name="topright"/>
	<anchor x="25" y="700" name="topleft"/>
	<anchor x="275" y="0" name="bottom"/>
	<outline>
		<contour>
			<point x="405" y="350" type="curve"/>
			<point x="515" y="350" type="line"/>
			<point x="515" y="526"/>
			<point x="448" y="708"/>
			<point x="275" y="708" type="curve"/>
			<point x="275" y="680" type="line"/>
			<point x="367" y="680"/>
			<point x="405" y="558"/>
		</contour>
		<contour>
			<point x="275" y="-8" type="curve"/>
			<point x="275" y="20" type="line"/>
			<point x="183" y="20"/>
			<point x="145" y="142"/>
			<point x="145" y="350" type="curve"/>
			<point x="35" y="350" type="line"/>
			<point x="35" y="174"/>
			<point x="102" y="-8"/>
		</contour>
		<contour>
			<point x="275" y="20" type="curve"/>
			<point x="275" y="-8" type="line"/>
			<point x="448" y="-8"/>
			<point x="515" y="174"/>
			<point x="515" y="350" type="curve"/>
			<point x="405" y="350" type="line"/>
			<point x="405" y="142"/>
			<point x="367" y="20"/>
		</contour>
		<contour>
			<point x="275" y="299" type="curve" smooth="yes"/>
			<point x="303" y="299"/>
			<point x="326" y="322"/>
			<point x="326" y="350" type="curve" smooth="yes"/>
			<point x="326" y="378"/>
			<point x="303" y="401"/>
			<point x="275" y="401" type="curve" smooth="yes"/>
			<point x="247" y="401"/>
			<point x="224" y="378"/>
			<point x="224" y="350" type="curve" smooth="yes"/>
			<point x="224" y="322"/>
			<point x="247" y="299"/>
		</contour>
		<contour>
			<point x="35" y="350" type="curve"/>
			<point x="145" y="350" type="line"/>
			<point x="145" y="558"/>
			<point x="183" y="680"/>
			<point x="275" y="680" type="curve"/>
			<point x="275" y="708" type="line"/>
			<point x="102" y="708"/>
			<point x="35" y="526"/>
		</contour>
	</outline>
</glyph>
<glyph name="O.ss04" format="2">
	<advance width="766"/>
	<anchor x="383" y="350" name="center"/>
	<anchor x="689" y="10" name="ogonek"/>
	<anchor x="383" y="700" name="top"/>
	<anchor x="746" y="700" name="topright"/>
	<anchor x="20" y="700" name="topleft"/>
	<anchor x="383" y="0" name="bottom"/>
	<outline>
		<contour>
			<point x="383" y="-8" type="curve"/>
			<point x="383" y="20" type="line"/>
			<point x="240" y="20"/>
			<point x="145" y="140"/>
			<point x="145" y="350" type="curve"/>
			<point x="35" y="350" type="line"/>
			<point x="35" y="135"/>
			<point x="174" y="-8"/>
		</contour>
		<contour>
			<point x="35" y="350" type="curve"/>
			<point x="145" y="350" type="line"/>
			<point x="145" y="560"/>
			<point x="240" y="680"/>
			<point x="383" y="680" type="curve"/>
			<point x="383" y="708" type="line"/>
			<point x="174" y="708"/>
			<point x="35" y="565"/>
		</contour>
		<contour>
			<point x="383" y="20" type="curve"/>
			<point x="383" y="-8" type="line"/>
			<point x="592" y="-8"/>
			<point x="731" y="135"/>
			<point x="731" y="350" type="curve"/>
			<point x="621" y="350" type="line"/>
			<point x="621" y="140"/>
			<point x="526" y="20"/>
		</contour>
		<contour>
			<point x="621" y="350" type="curve"/>
			<point x="731" y="350" type="line"/>
			<point x="731" y="565"/>
			<point x="592" y="708"/>
			<point x="383" y="708" type="curve"/>
			<point x="383" y="680" type="line"/>
			<point x="526" y="680"/>
			<point x="621" y="560"/>
		</contour>
	</outline>
</glyph>
<glyph name="Oslash.ss03" format="2">
	<advance width="550"/>
	<outline>
		<contour>
			<point x="83.5" y="-50" type="line"/>
			<point x="116.5" y="-50" type="line"/>
			<point x="466.5" y="750" type="line"/>
			<point x="433.5" y="750" type="line"/>
		</contour>
		<component base="O.ss03"/>
	</outline>
</glyph>
<glyph name="Oslash.ss04" format="2">
	<advance width="766"/>
	<outline>
		<contour>
			<point x="191.5" y="-50" type="line"/>
			<point x="224.5" y="-50" type="line"/>
			<point x="574.5" y="750" type="line"/>
			<point x="541.5" y="750" type="line"/>
		</contour>
		<component base="O.ss04"/>
	</outline>
</glyph>
<glyph name="P.ss04" format="2">
	<advance width="472.5"/>
	<outline>
		<contour>
			<point x="192" y="492" type="line"/>
			<point x="214" y="492" type="line" smooth="yes"/>
			<point x="312.5" y="492"/>
			<point x="442.5" y="546.5"/>
			<point x="442.5" y="625.5" type="curve" smooth="yes"/>
			<point x="442.5" y="693"/>
			<point x="347.5" y="700"/>
			<point x="250" y="700" type="curve" smooth="yes"/>
			<point x="192" y="700" type="line"/>
			<point x="192" y="672" type="line"/>
			<point x="214" y="672" type="line" smooth="yes"/>
			<point x="281.5" y="672"/>
			<point x="347" y="664.5"/>
			<point x="347" y="614" type="curve" smooth="yes"/>
			<point x="347" y="559.5"/>
			<point x="280" y="510"/>
			<point x="214" y="510" type="curve" smooth="yes"/>
			<point x="192" y="510" type="line"/>
		</contour>
		<component base="_part.halfstemleft" xOffset="10"/>
	</outline>
</glyph>
<glyph name="P.ss06" format="2">
	<advance width="498"/>
	<anchor x="247" y="700" name="top"/>
	<anchor x="247" y="0" name="bottom"/>
	<outline>
		<contour>
			<point x="373" y="500" type="curve"/>
			<point x="468" y="500" type="line"/>
			<point x="468" y="630"/>
			<point x="379" y="700"/>
			<point x="251" y="700" type="curve" smooth="yes"/>
			<point x="192" y="700" type="line"/>
			<point x="192" y="672" type="line"/>
			<point x="214" y="672" type="line" smooth="yes"/>
			<point x="301" y="672"/>
			<point x="373" y="638"/>
		</contour>
		<contour>
			<point x="192" y="305" type="line"/>
			<point x="251" y="305" type="line" smooth="yes"/>
			<point x="379" y="305"/>
			<point x="468" y="377"/>
			<point x="468" y="500" type="curve"/>
			<point x="373" y="500" type="line"/>
			<point x="373" y="382"/>
			<point x="309" y="333"/>
			<point x="214" y="333" type="curve" smooth="yes"/>
			<point x="192" y="333" type="line"/>
		</contour>
		<component base="_part.stemserifs" xOffset="-10"/>
	</outline>
</glyph>
<glyph name="Q.ss03" format="2">
	<advance width="530"/>
	<outline>
		<contour>
			<point x="393.5" y="-145" type="curve"/>
			<point x="393.5" y="-137" type="line"/>
			<point x="352.5" y="-137"/>
			<point x="342.5" y="-82"/>
			<point x="342.5" y="0" type="curve"/>
			<point x="247.5" y="0" type="line"/>
			<point x="247.5" y="-104.5"/>
			<point x="288.5" y="-145"/>
		</contour>
		<contour>
			<point x="196.5" y="145" type="curve"/>
			<point x="196.5" y="137" type="line"/>
			<point x="237.5" y="137"/>
			<point x="247.5" y="82"/>
			<point x="247.5" y="0" type="curve"/>
			<point x="342.5" y="0" type="line"/>
			<point x="342.5" y="104.5"/>
			<point x="301.5" y="145"/>
		</contour>
		<component base="O.ss03"/>
	</outline>
</glyph>
<glyph name="Q.ss04" format="2">
	<advance width="766"/>
	<outline>
		<contour>
			<point x="517" y="-106" type="curve" smooth="yes"/>
			<point x="563.5" y="-106"/>
			<point x="619.5" y="-78.5"/>
			<point x="657" y="-37" type="curve"/>
			<point x="644" y="-24" type="line"/>
			<point x="613" y="-56.5"/>
			<point x="568.5" y="-78"/>
			<point x="532" y="-78" type="curve" smooth="yes"/>
			<point x="456" y="-78"/>
			<point x="407.5" y="-38.5"/>
			<point x="367" y="78.5" type="curve" smooth="yes"/>
			<point x="336.5" y="167"/>
			<point x="319.5" y="189"/>
			<point x="283" y="189" type="curve" smooth="yes"/>
			<point x="259.5" y="189"/>
			<point x="221.5" y="164.5"/>
			<point x="188.5" y="128" type="curve"/>
			<point x="197.5" y="112" type="line"/>
			<point x="208.5" y="122"/>
			<point x="221.5" y="129"/>
			<point x="230" y="129" type="curve" smooth="yes"/>
			<point x="260" y="129"/>
			<point x="280" y="86"/>
			<point x="303" y="37" type="curve" smooth="yes"/>
			<point x="342.5" y="-49"/>
			<point x="428" y="-106"/>
		</contour>
		<component base="O.ss04"/>
	</outline>
</glyph>
<glyph name="Q.ss06" format="2">
	<advance width="520"/>
	<anchor x="305" y="700" name="top"/>
	<anchor x="305" y="0" name="bottom"/>
	<outline>
		<contour>
			<point x="325" y="-104" type="curve" smooth="yes"/>
			<point x="354.5" y="-104"/>
			<point x="385" y="-81.5"/>
			<point x="403" y="-46.5" type="curve"/>
			<point x="385.5" y="-25" type="line"/>
			<point x="380.5" y="-36"/>
			<point x="366.5" y="-50.5"/>
			<point x="351.5" y="-50.5" type="curve" smooth="yes"/>
			<point x="335.5" y="-50.5"/>
			<point x="318" y="-33"/>
			<point x="305.5" y="45.5" type="curve" smooth="yes"/>
			<point x="288" y="155.5"/>
			<point x="276.5" y="177"/>
			<point x="247" y="177" type="curve" smooth="yes"/>
			<point x="217.5" y="177"/>
			<point x="176.5" y="162.5"/>
			<point x="145" y="141" type="curve"/>
			<point x="155" y="113.5" type="line"/>
			<point x="166.5" y="121"/>
			<point x="185" y="126"/>
			<point x="201" y="126" type="curve" smooth="yes"/>
			<point x="223.5" y="126"/>
			<point x="234" y="108.5"/>
			<point x="248" y="12.5" type="curve" smooth="yes"/>
			<point x="262" y="-83"/>
			<point x="289.5" y="-104"/>
		</contour>
		<component base="O"/>
	</outline>
</glyph>
<glyph name="R.ss01" format="2">
	<advance width="493"/>
	<guideline x="247" y="-8" angle="0"/>
	<anchor x="252" y="700" name="top"/>
	<anchor x="302" y="0" name="bottom"/>
	<outline>
		<contour>
			<point x="467" y="-8" type="curve" smooth="yes"/>
			<point x="490" y="-8"/>
			<point x="510" y="-4"/>
			<point x="518" y="1" type="curve"/>
			<point x="515" y="19" type="line"/>
			<point x="512" y="18"/>
			<point x="507" y="17"/>
			<point x="504" y="17" type="curve" smooth="yes"/>
			<point x="434" y="17"/>
			<point x="425" y="44"/>
			<point x="366" y="144" type="curve" smooth="yes"/>
			<point x="334.5" y="199"/>
			<point x="269" y="213"/>
			<point x="182" y="213" type="curve"/>
			<point x="182" y="190" type="line"/>
			<point x="245" y="190"/>
			<point x="269" y="169"/>
			<point x="286.5" y="103" type="curve" smooth="yes"/>
			<point x="301" y="48.5"/>
			<point x="342" y="-8"/>
		</contour>
		<contour>
			<point x="192" y="195" type="line"/>
			<point x="251" y="195" type="line" smooth="yes"/>
			<point x="375" y="195"/>
			<point x="458" y="254"/>
			<point x="458" y="450" type="curve"/>
			<point x="363" y="450" type="line"/>
			<point x="363" y="308"/>
			<point x="333" y="218"/>
			<point x="214" y="218" type="curve" smooth="yes"/>
			<point x="192" y="218" type="line"/>
		</contour>
		<contour>
			<point x="363" y="450" type="curve"/>
			<point x="458" y="450" type="line"/>
			<point x="458" y="600"/>
			<point x="375" y="700"/>
			<point x="251" y="700" type="curve" smooth="yes"/>
			<point x="192" y="700" type="line"/>
			<point x="192" y="672" type="line"/>
			<point x="214" y="672" type="line" smooth="yes"/>
			<point x="303.5" y="672"/>
			<point x="363" y="595"/>
		</contour>
		<component base="_part.stemserifs" xOffset="-10"/>
	</outline>
</glyph>
<glyph name="R.ss03" format="2">
	<advance width="501"/>
	<anchor x="267" y="700" name="top"/>
	<anchor x="267" y="0" name="bottom"/>
	<outline>
		<contour>
			<point x="636" y="-109.5" type="curve"/>
			<point x="636" y="-81.5" type="line"/>
			<point x="623.5" y="-83.5"/>
			<point x="612" y="-84.5"/>
			<point x="601" y="-84.5" type="curve" smooth="yes"/>
			<point x="511" y="-84.5"/>
			<point x="475" y="-40"/>
			<point x="445" y="82" type="curve" smooth="yes"/>
			<point x="424.5" y="167"/>
			<point x="397" y="233"/>
			<point x="325" y="233" type="curve" smooth="yes"/>
			<point x="284.5" y="233"/>
			<point x="239" y="212"/>
			<point x="189" y="184.5" type="curve"/>
			<point x="195" y="178" type="line"/>
			<point x="297" y="228.5"/>
			<point x="315.5" y="164"/>
			<point x="347.5" y="59" type="curve" smooth="yes"/>
			<point x="362.5" y="9.5"/>
			<point x="378" y="-39.5"/>
			<point x="404.5" y="-68.5" type="curve" smooth="yes"/>
			<point x="451.5" y="-120"/>
			<point x="542.5" y="-137.5"/>
		</contour>
		<contour>
			<point x="183" y="191" type="curve"/>
			<point x="191" y="182" type="line"/>
			<point x="363.5" y="267"/>
			<point x="452" y="373.5"/>
			<point x="452" y="516.5" type="curve" smooth="yes"/>
			<point x="452" y="616.5"/>
			<point x="389" y="700"/>
			<point x="251" y="700" type="curve" smooth="yes"/>
			<point x="192" y="700" type="line"/>
			<point x="192" y="672" type="line"/>
			<point x="214" y="672" type="line" smooth="yes"/>
			<point x="313" y="672"/>
			<point x="357" y="615"/>
			<point x="357" y="516.5" type="curve" smooth="yes"/>
			<point x="357" y="387.5"/>
			<point x="286" y="258"/>
		</contour>
		<component base="_part.stemserifs" xOffset="-10"/>
	</outline>
</glyph>
<glyph name="R.ss04" format="2">
	<advance width="531"/>
	<outline>
		<contour>
			<point x="217" y="491.5" type="line"/>
			<point x="360" y="0" type="line"/>
			<point x="461" y="0" type="line"/>
			<point x="305.5" y="514" type="line"/>
		</contour>
		<contour>
			<point x="291" y="0" type="line"/>
			<point x="511" y="0" type="line"/>
			<point x="511" y="28" type="line"/>
			<point x="291" y="28" type="line"/>
		</contour>
		<contour>
			<point x="192" y="492" type="line"/>
			<point x="214" y="492" type="line" smooth="yes"/>
			<point x="312.5" y="492"/>
			<point x="442.5" y="546.5"/>
			<point x="442.5" y="625.5" type="curve" smooth="yes"/>
			<point x="442.5" y="693"/>
			<point x="347.5" y="700"/>
			<point x="250" y="700" type="curve" smooth="yes"/>
			<point x="192" y="700" type="line"/>
			<point x="192" y="672" type="line"/>
			<point x="214" y="672" type="line" smooth="yes"/>
			<point x="281.5" y="672"/>
			<point x="347" y="664.5"/>
			<point x="347" y="614" type="curve" smooth="yes"/>
			<point x="347" y="559.5"/>
			<point x="280" y="510"/>
			<point x="214" y="510" type="curve" smooth="yes"/>
			<point x="192" y="510" type="line"/>
		</contour>
		<component base="_part.halfstemleft" xOffset="10"/>
	</outline>
</glyph>
<glyph name="R.ss06" format="2">
	<advance width="513"/>
	<anchor x="247" y="700" name="top"/>
	<anchor x="247" y="0" name="bottom"/>
	<outline>
		<contour>
			<point x="497" y="-8" type="curve" smooth="yes"/>
			<point x="520" y="-8"/>
			<point x="540" y="-4"/>
			<point x="548" y="1" type="curve"/>
			<point x="545" y="28.5" type="line"/>
			<point x="541" y="27"/>
			<point x="538" y="26.5"/>
			<point x="534" y="26.5" type="curve" smooth="yes"/>
			<point x="457" y="26.5"/>
			<point x="427.5" y="71"/>
			<point x="306" y="330" type="curve"/>
			<point x="216" y="305" type="line"/>
			<point x="330" y="54.5"/>
			<point x="370" y="-8"/>
		</contour>
		<contour>
			<point x="192" y="305" type="line"/>
			<point x="251" y="305" type="line" smooth="yes"/>
			<point x="369" y="305"/>
			<point x="458" y="377"/>
			<point x="458" y="500" type="curve"/>
			<point x="363" y="500" type="line"/>
			<point x="363" y="382"/>
			<point x="299" y="333"/>
			<point x="214" y="333" type="curve" smooth="yes"/>
			<point x="192" y="333" type="line"/>
		</contour>
		<contour>
			<point x="363" y="500" type="curve"/>
			<point x="458" y="500" type="line"/>
			<point x="458" y="630"/>
			<point x="369" y="700"/>
			<point x="251" y="700" type="curve" smooth="yes"/>
			<point x="192" y="700" type="line"/>
			<point x="192" y="672" type="line"/>
			<point x="214" y="672" type="line" smooth="yes"/>
			<point x="291" y="672"/>
			<point x="363" y="638"/>
		</contour>
		<component base="_part.stemserifs" xOffset="-10"/>
	</outline>
</glyph>
<glyph name="S.ss06" format="2">
	<advance width="443"/>
	<anchor x="219" y="700" name="top"/>
	<anchor x="219" y="0" name="bottom"/>
	<outline>
		<contour>
			<point x="219" y="20" type="curve"/>
			<point x="219" y="-8" type="line"/>
			<point x="330" y="-8"/>
			<point x="412" y="73"/>
			<point x="412" y="194" type="curve" smooth="yes"/>
			<point x="412" y="281"/>
			<point x="346" y="344"/>
			<point x="301" y="389" type="curve" smooth="yes"/>
			<point x="256" y="434"/>
			<point x="153" y="528"/>
			<point x="153" y="606" type="curve" smooth="yes"/>
			<point x="153" y="647.5"/>
			<point x="187.5" y="680"/>
			<point x="239" y="680" type="curve" smooth="yes"/>
			<point x="330" y="680"/>
			<point x="340" y="609"/>
			<point x="331" y="510" type="curve" smooth="yes"/>
			<point x="328" y="477" type="line"/>
			<point x="346" y="477" type="line"/>
			<point x="413" y="703" type="line"/>
			<point x="393" y="705" type="line"/>
			<point x="383" y="679"/>
			<point x="374" y="667"/>
			<point x="358" y="667" type="curve" smooth="yes"/>
			<point x="335" y="667"/>
			<point x="296" y="708"/>
			<point x="239" y="708" type="curve" smooth="yes"/>
			<point x="140" y="708"/>
			<point x="71" y="642"/>
			<point x="71" y="550" type="curve" smooth="yes"/>
			<point x="71" y="457"/>
			<point x="174" y="363"/>
			<point x="219" y="318" type="curve" smooth="yes"/>
			<point x="264" y="273"/>
			<point x="330" y="215"/>
			<point x="330" y="128" type="curve" smooth="yes"/>
			<point x="330" y="63"/>
			<point x="285.5" y="20"/>
		</contour>
		<contour>
			<point x="219" y="-8" type="curve"/>
			<point x="219" y="20" type="line"/>
			<point x="131.5" y="20"/>
			<point x="73.5" y="92.5"/>
			<point x="92" y="231" type="curve"/>
			<point x="74" y="233" type="line"/>
			<point x="25" y="20" type="line"/>
			<point x="43" y="18" type="line"/>
			<point x="48" y="26"/>
			<point x="62" y="32"/>
			<point x="76" y="32" type="curve" smooth="yes"/>
			<point x="115" y="32"/>
			<point x="151" y="-8"/>
		</contour>
	</outline>
</glyph>
<glyph name="T.ss01" format="2">
	<advance width="466"/>
	<anchor x="233" y="350" name="center"/>
	<anchor x="233" y="0" name="bottom"/>
	<anchor x="233" y="700" name="top"/>
	<outline>
		<contour>
			<point x="423" y="317" type="line"/>
			<point x="441" y="317" type="line"/>
			<point x="419" y="700" type="line"/>
			<point x="359" y="700" type="line"/>
		</contour>
		<contour>
			<point x="25" y="317" type="line"/>
			<point x="43" y="317" type="line"/>
			<point x="107" y="700" type="line"/>
			<point x="47" y="700" type="line"/>
		</contour>
		<contour>
			<point x="77" y="672" type="line"/>
			<point x="163" y="672" type="line"/>
			<point x="163" y="700" type="line"/>
			<point x="77" y="700" type="line"/>
		</contour>
		<contour>
			<point x="303" y="672" type="line"/>
			<point x="389" y="672" type="line"/>
			<point x="389" y="700" type="line"/>
			<point x="303" y="700" type="line"/>
		</contour>
		<component base="_part.stemserifs" xOffset="78"/>
	</outline>
</glyph>
<glyph name="W.ss03" format="2">
	<advance width="581"/>
	<anchor x="340" y="700" name="top"/>
	<anchor x="290" y="0" name="bottom"/>
	<outline>
		<contour>
			<point x="212.5" y="-37" type="line"/>
			<point x="264" y="187" type="line"/>
			<point x="145" y="700" type="line"/>
			<point x="43" y="700" type="line"/>
		</contour>
		<contour>
			<point x="212.5" y="-37" type="line"/>
			<point x="343" y="532" type="line"/>
			<point x="330.5" y="602.5" type="line"/>
			<point x="200" y="36" type="line"/>
		</contour>
		<contour>
			<point x="375.5" y="-37" type="line"/>
			<point x="427" y="187" type="line"/>
			<point x="330.5" y="602.5" type="line"/>
			<point x="289.5" y="336" type="line"/>
		</contour>
		<contour>
			<point x="375.5" y="-37" type="line"/>
			<point x="545" y="700" type="line"/>
			<point x="516.5" y="700" type="line"/>
			<point x="362" y="32" type="line"/>
		</contour>
		<component base="_part.longserif" xOffset="-60"/>
		<component base="_part.shortserif" xOffset="423"/>
	</outline>
</glyph>
<glyph name="X.ss04" format="2">
	<advance width="441"/>
	<guideline x="234.5" y="540" angle="0"/>
	<anchor x="236" y="700" name="top"/>
	<anchor x="6" y="700" name="topleft"/>
	<outline>
		<contour>
			<point x="275.5" y="0" type="line"/>
			<point x="378" y="0" type="line"/>
			<point x="264.5" y="540" type="line"/>
			<point x="183" y="500" type="line"/>
		</contour>
		<contour>
			<point x="80" y="0" type="line"/>
			<point x="108.5" y="0" type="line"/>
			<point x="208.5" y="540" type="line"/>
			<point x="180" y="540" type="line"/>
		</contour>
		<contour>
			<point x="183" y="500" type="line"/>
			<point x="264.5" y="540" type="line"/>
			<point x="153" y="700" type="line"/>
			<point x="53" y="700" type="line"/>
		</contour>
		<contour>
			<point x="243.5" y="523.5" type="line"/>
			<point x="261" y="500" type="line"/>
			<point x="403.5" y="700" type="line"/>
			<point x="370.5" y="700" type="line"/>
		</contour>
		<component base="_part.longserif" xScale="-1" yScale="-1" xOffset="481" yOffset="700"/>
		<component base="_part.longserif" xOffset="-40"/>
		<component base="_part.shortserif" xOffset="263"/>
		<component base="_part.shortserif" xOffset="-13.500" yOffset="-672"/>
	</outline>
</glyph>
<glyph name="Y.ss04" format="2">
	<advance width="393"/>
	<guideline x="224.5" y="540" angle="0"/>
	<anchor x="235" y="700" name="top"/>
	<anchor x="205" y="0" name="bottom"/>
	<anchor x="0" y="700" name="topleft"/>
	<outline>
		<contour>
			<point x="156.5" y="0" type="line"/>
			<point x="256.5" y="0" type="line"/>
			<point x="256.5" y="540" type="line"/>
			<point x="156.5" y="540" type="line"/>
		</contour>
		<contour>
			<point x="156.5" y="531.5" type="line"/>
			<point x="256.5" y="531.5" type="line"/>
			<point x="143" y="700" type="line"/>
			<point x="43" y="700" type="line"/>
		</contour>
		<contour>
			<point x="225" y="531.5" type="line"/>
			<point x="241" y="504.5" type="line"/>
			<point x="374.5" y="700" type="line"/>
			<point x="340" y="700" type="line"/>
		</contour>
		<component base="_part.longserif" xScale="-1" yScale="-1" xOffset="361.500" yOffset="700"/>
		<component base="_part.longserif" xOffset="-60"/>
		<component base="_part.shortserif" xOffset="235"/>
	</outline>
</glyph>
<glyph name="Z.ss01" format="2">
	<advance width="409"/>
	<guideline x="381" y="700" angle="90"/>
	<anchor x="212" y="350" name="center"/>
	<anchor x="212" y="0" name="bottom"/>
	<anchor x="212" y="700" name="top"/>
	<outline>
		<contour>
			<point x="25" y="0" type="line"/>
			<point x="126" y="0" type="line"/>
			<point x="381" y="700" type="line"/>
			<point x="280" y="700" type="line"/>
		</contour>
		<contour>
			<point x="91" y="0" type="line"/>
			<point x="327" y="0" type="line"/>
			<point x="327" y="28" type="line"/>
			<point x="91" y="28" type="line"/>
		</contour>
		<contour>
			<point x="74" y="672" type="line"/>
			<point x="301" y="672" type="line"/>
			<point x="301" y="700" type="line"/>
			<point x="74" y="700" type="line"/>
		</contour>
		<contour>
			<point x="25" y="317" type="line"/>
			<point x="43" y="317" type="line"/>
			<point x="107" y="700" type="line"/>
			<point x="47" y="700" type="line"/>
		</contour>
		<contour>
			<point x="384" y="383" type="line"/>
			<point x="366" y="383" type="line"/>
			<point x="302" y="0" type="line"/>
			<point x="362" y="0" type="line"/>
		</contour>
	</outline>
</glyph>
<glyph name="_part.longserif" format="2">
	<advance width="310"/>
	<outline>
		<contour>
			<point x="45" y="672" type="line"/>
			<point x="265" y="672" type="line"/>
			<point x="265" y="700" type="line"/>
			<point x="45" y="700" type="line"/>
		</contour>
	</outline>
</glyph>
<glyph name="_part.shortserif" format="2">
	<advance width="218"/>
	<outline>
		<contour>
			<point x="45" y="672" type="line"/>
			<point x="173" y="672" type="line"/>
			<point x="173" y="700" type="line"/>
			<point x="45" y="700" type="line"/>
		</contour>
	</outline>
</glyph>
<glyph name="_part.stem" format="2">
	<advance width="310"/>
	<outline>
		<contour>
			<point x="105" y="0" type="line"/>
			<point x="205" y="0" type="line"/>
			<point x="205" y="700" type="line"/>
			<point x="105" y="700" type="line"/>
		</contour>
	</outline>
</glyph>
<glyph name="_part.wavestrokehorizontal" format="2">
	<advance width="354.5"/>
	<outline>
		<contour>
			<point x="174" y="280" type="curve" smooth="yes"/>
			<point x="207.5" y="280"/>
			<point x="255.5" y="318"/>
			<point x="294.5" y="375" type="curve"/>
			<point x="279" y="391" type="line"/>
			<point x="265.5" y="372.5"/>
			<point x="251" y="364.5"/>
			<point x="236.5" y="364.5" type="curve" smooth="yes"/>
			<point x="200" y="364.5"/>
			<point x="183" y="409"/>
			<point x="146" y="409" type="curve" smooth="yes"/>
			<point x="112" y="409"/>
			<point x="73" y="367"/>
			<point x="60" y="319" type="curve"/>
			<point x="70" y="309" type="line"/>
			<point x="70" y="319"/>
			<point x="78" y="325"/>
			<point x="89" y="325" type="curve" smooth="yes"/>
			<point x="118" y="325"/>
			<point x="136" y="280"/>
		</contour>
	</outline>
</glyph>
<glyph name="ampersand.ss09" format="2">
	<advance width="792.5"/>
	<guideline x="210.5" y="615.5" angle="0"/>
	<guideline x="950.5" y="-8" angle="0"/>
	<guideline x="306.5" y="708" angle="0"/>
	<outline>
		<contour>
			<point x="601" y="-8" type="curve" smooth="yes"/>
			<point x="726.5" y="-7.5"/>
			<point x="811" y="55"/>
			<point x="811" y="148" type="curve" smooth="yes"/>
			<point x="811" y="208.5"/>
			<point x="752.5" y="262"/>
			<point x="665" y="262" type="curve"/>
			<point x="664" y="244" type="line"/>
			<point x="704" y="241.5"/>
			<point x="731" y="209.5"/>
			<point x="731" y="155.5" type="curve" smooth="yes"/>
			<point x="731" y="71.5"/>
			<point x="685" y="20"/>
			<point x="621.5" y="20" type="curve" smooth="yes"/>
			<point x="570.5" y="20"/>
			<point x="517.5" y="53.5"/>
			<point x="485" y="97.5" type="curve" smooth="yes"/>
			<point x="430" y="173"/>
			<point x="366.5" y="287"/>
			<point x="300" y="421" type="curve" smooth="yes"/>
			<point x="266.5" y="489"/>
			<point x="240.5" y="561.5"/>
			<point x="240.5" y="615.5" type="curve" smooth="yes"/>
			<point x="240.5" y="649"/>
			<point x="268.5" y="680"/>
			<point x="330" y="680" type="curve"/>
			<point x="336.5" y="708" type="line"/>
			<point x="245.5" y="708"/>
			<point x="154" y="661"/>
			<point x="154" y="567.5" type="curve" smooth="yes"/>
			<point x="154" y="517"/>
			<point x="167.5" y="452"/>
			<point x="203" y="386.5" type="curve" smooth="yes"/>
			<point x="253" y="294.5"/>
			<point x="307.5" y="197"/>
			<point x="371" y="122.5" type="curve" smooth="yes"/>
			<point x="436" y="46"/>
			<point x="511" y="-8.5"/>
		</contour>
		<contour>
			<point x="250.5" y="397.5" type="curve"/>
			<point x="278" y="388.5" type="line"/>
			<point x="415.5" y="388.5"/>
			<point x="505.5" y="484"/>
			<point x="505.5" y="570.5" type="curve" smooth="yes"/>
			<point x="505.5" y="642.5"/>
			<point x="443" y="708"/>
			<point x="336.5" y="708" type="curve"/>
			<point x="330" y="680" type="line"/>
			<point x="391" y="680"/>
			<point x="415.5" y="649"/>
			<point x="415.5" y="588.5" type="curve" smooth="yes"/>
			<point x="415.5" y="508.5"/>
			<point x="355.5" y="410"/>
		</contour>
		<contour>
			<point x="25" y="173.5" type="curve" smooth="yes"/>
			<point x="25" y="64.5"/>
			<point x="130.5" y="-8"/>
			<point x="288.5" y="-8" type="curve" smooth="yes"/>
			<point x="368.5" y="-8"/>
			<point x="434" y="19.5"/>
			<point x="490" y="69.5" type="curve" smooth="yes"/>
			<point x="561" y="132"/>
			<point x="617.5" y="229"/>
			<point x="670" y="350" type="curve" smooth="yes"/>
			<point x="750.5" y="535"/>
			<point x="788.5" y="654"/>
			<point x="933.5" y="654" type="curve" smooth="yes"/>
			<point x="1047" y="654"/>
			<point x="1118" y="578.5"/>
			<point x="1118" y="469" type="curve" smooth="yes"/>
			<point x="1118" y="266"/>
			<point x="835.5" y="323"/>
			<point x="835.5" y="156.5" type="curve" smooth="yes"/>
			<point x="835.5" y="70"/>
			<point x="931.5" y="-8"/>
			<point x="1096" y="-8" type="curve" smooth="yes"/>
			<point x="1191.5" y="-8"/>
			<point x="1255" y="26.5"/>
			<point x="1255" y="78.5" type="curve" smooth="yes"/>
			<point x="1255" y="100.5"/>
			<point x="1243.5" y="127"/>
			<point x="1225.5" y="159.5" type="curve" smooth="yes"/>
			<point x="1209.5" y="187.5"/>
			<point x="1193" y="216"/>
			<point x="1193" y="255.5" type="curve" smooth="yes"/>
			<point x="1193" y="324.5"/>
			<point x="1247.5" y="356.5"/>
			<point x="1307" y="356.5" type="curve" smooth="yes"/>
			<point x="1357.5" y="356.5"/>
			<point x="1408" y="346.5"/>
			<point x="1408" y="251" type="curve" smooth="yes"/>
			<point x="1408" y="207.5"/>
			<point x="1380.5" y="193.5"/>
			<point x="1352.5" y="174" type="curve" smooth="yes"/>
			<point x="1323" y="153.5"/>
			<point x="1292.5" y="127.5"/>
			<point x="1292.5" y="77" type="curve" smooth="yes"/>
			<point x="1292.5" y="18.5"/>
			<point x="1347.5" y="-8.5"/>
			<point x="1408.5" y="-8.5" type="curve" smooth="yes"/>
			<point x="1485" y="-8.5"/>
			<point x="1580.5" y="39"/>
			<point x="1580.5" y="115" type="curve" smooth="yes"/>
			<point x="1580.5" y="152.5"/>
			<point x="1565" y="208.5"/>
			<point x="1547.5" y="255.5" type="curve"/>
			<point x="1531.5" y="246" type="line"/>
			<point x="1539.5" y="228"/>
			<point x="1543" y="211.5"/>
			<point x="1543" y="196.5" type="curve" smooth="yes"/>
			<point x="1543" y="129.5"/>
			<point x="1448" y="85.5"/>
			<point x="1389.5" y="85.5" type="curve" smooth="yes"/>
			<point x="1363" y="85.5"/>
			<point x="1344" y="94.5"/>
			<point x="1344" y="114" type="curve" smooth="yes"/>
			<point x="1344" y="126.5"/>
			<point x="1354" y="141"/>
			<point x="1373.5" y="153.5" type="curve" smooth="yes"/>
			<point x="1416.5" y="180.5"/>
			<point x="1492" y="198"/>
			<point x="1492" y="266.5" type="curve" smooth="yes"/>
			<point x="1492" y="321.5"/>
			<point x="1449.5" y="384.5"/>
			<point x="1307" y="384.5" type="curve" smooth="yes"/>
			<point x="1188" y="384.5"/>
			<point x="1106" y="327.5"/>
			<point x="1106" y="234.5" type="curve" smooth="yes"/>
			<point x="1106" y="203.5"/>
			<point x="1113.5" y="174"/>
			<point x="1129" y="136" type="curve" smooth="yes"/>
			<point x="1143.5" y="99"/>
			<point x="1157" y="81"/>
			<point x="1157" y="56.5" type="curve" smooth="yes"/>
			<point x="1157" y="31.5"/>
			<point x="1134" y="20"/>
			<point x="1099.5" y="20" type="curve" smooth="yes"/>
			<point x="1036" y="20"/>
			<point x="943.5" y="54.5"/>
			<point x="943.5" y="146" type="curve" smooth="yes"/>
			<point x="943.5" y="279.5"/>
			<point x="1146" y="281.5"/>
			<point x="1146" y="469" type="curve" smooth="yes"/>
			<point x="1146" y="611"/>
			<point x="1027.5" y="708"/>
			<point x="872" y="708" type="curve" smooth="yes"/>
			<point x="703.5" y="708"/>
			<point x="656" y="594"/>
			<point x="601.5" y="414" type="curve" smooth="yes"/>
			<point x="547" y="233.5"/>
			<point x="476.5" y="20"/>
			<point x="288.5" y="20" type="curve" smooth="yes"/>
			<point x="190.5" y="20"/>
			<point x="125" y="83.5"/>
			<point x="125" y="208.5" type="curve" smooth="yes"/>
			<point x="125" y="295"/>
			<point x="165.5" y="363"/>
			<point x="249.5" y="394.5" type="curve"/>
			<point x="223" y="407.5" type="line"/>
			<point x="102.5" y="369.5"/>
			<point x="25" y="276.5"/>
		</contour>
	</outline>
</glyph>
<glyph name="bullet.ss06" format="2">
	<advance width="240"/>
	<outline>
		<contour>
			<point x="35" y="287.5" type="line"/>
			<point x="112.5" y="210" type="line"/>
			<point x="127.5" y="210" type="line"/>
			<point x="205" y="287.5" type="line"/>
			<point x="205" y="302.5" type="line"/>
			<point x="127.5" y="380" type="line"/>
			<point x="112.5" y="380" type="line"/>
			<point x="35" y="302.5" type="line"/>
		</contour>
	</outline>
</glyph>
<glyph name="dagger.ss06" format="2">
	<advance width="276"/>
	<outline>
		<contour>
			<point x="20" y="539" type="line"/>
			<point x="81.5" y="514" type="line"/>
			<point x="132" y="540.5" type="line"/>
			<point x="105.5" y="465" type="line"/>
			<point x="130.5" y="283.5" type="line"/>
			<point x="145.5" y="283.5" type="line"/>
			<point x="170.5" y="465" type="line"/>
			<point x="144" y="540.5" type="line"/>
			<point x="194.5" y="514" type="line"/>
			<point x="256" y="539" type="line"/>
			<point x="256" y="554" type="line"/>
			<point x="194.5" y="579" type="line"/>
			<point x="144" y="552.5" type="line"/>
			<point x="170.5" y="628" type="line"/>
			<point x="145.5" y="709.5" type="line"/>
			<point x="130.5" y="709.5" type="line"/>
			<point x="105.5" y="628" type="line"/>
			<point x="132" y="552.5" type="line"/>
			<point x="81.5" y="579" type="line"/>
			<point x="20" y="554" type="line"/>
		</contour>
	</outline>
</glyph>
<glyph name="daggerdbl.ss06" format="2">
	<advance width="276"/>
	<outline>
		<contour>
			<point x="20" y="376" type="line"/>
			<point x="81.5" y="351" type="line"/>
			<point x="132" y="377.5" type="line"/>
			<point x="105.5" y="302" type="line"/>
			<point x="130.5" y="220.5" type="line"/>
			<point x="145.5" y="220.5" type="line"/>
			<point x="170.5" y="302" type="line"/>
			<point x="144" y="377.5" type="line"/>
			<point x="194.5" y="351" type="line"/>
			<point x="256" y="376" type="line"/>
			<point x="256" y="391" type="line"/>
			<point x="194.5" y="416" type="line"/>
			<point x="144" y="389.5" type="line"/>
			<point x="170.5" y="465" type="line"/>
			<point x="144" y="540.5" type="line"/>
			<point x="194.5" y="514" type="line"/>
			<point x="256" y="539" type="line"/>
			<point x="256" y="554" type="line"/>
			<point x="194.5" y="579" type="line"/>
			<point x="144" y="552.5" type="line"/>
			<point x="170.5" y="628" type="line"/>
			<point x="145.5" y="709.5" type="line"/>
			<point x="130.5" y="709.5" type="line"/>
			<point x="105.5" y="628" type="line"/>
			<point x="132" y="552.5" type="line"/>
			<point x="81.5" y="579" type="line"/>
			<point x="20" y="554" type="line"/>
			<point x="20" y="539" type="line"/>
			<point x="81.5" y="514" type="line"/>
			<point x="132" y="540.5" type="line"/>
			<point x="105.5" y="465" type="line"/>
			<point x="132" y="389.5" type="line"/>
			<point x="81.5" y="416" type="line"/>
			<point x="20" y="391" type="line"/>
		</contour>
	</outline>
</glyph>
<glyph name="quotedblleft.ss08" format="2">
	<advance width="273"/>
	<outline>
		<contour>
			<point x="140" y="500" type="line"/>
			<point x="210" y="500" type="line"/>
			<point x="238.5" y="750" type="line"/>
			<point x="225.5" y="750" type="line"/>
		</contour>
		<contour>
			<point x="35" y="500" type="line"/>
			<point x="105" y="500" type="line"/>
			<point x="133.5" y="750" type="line"/>
			<point x="120.5" y="750" type="line"/>
		</contour>
	</outline>
</glyph>
<glyph name="quotedblright.ss08" format="2">
	<advance width="273"/>
	<outline>
		<contour>
			<point x="140" y="450" type="line"/>
			<point x="153" y="450" type="line"/>
			<point x="238.5" y="700" type="line"/>
			<point x="168.5" y="700" type="line"/>
		</contour>
		<contour>
			<point x="35" y="450" type="line"/>
			<point x="48" y="450" type="line"/>
			<point x="133.5" y="700" type="line"/>
			<point x="63.5" y="700" type="line"/>
		</contour>
	</outline>
</glyph>
<glyph name="uni0304.narrow" format="2">
	<advance width="0"/>
	<anchor x="-120" y="800" name="top"/>
	<anchor x="-120" y="700" name="_top"/>
	<outline>
		<contour>
			<point x="-205" y="768" type="line"/>
			<point x="-35" y="768" type="line"/>
			<point x="-35" y="800" type="line"/>
			<point x="-205" y="800" type="line"/>
		</contour>
	</outline>
</glyph>
<glyph name="uni0307.case" format="2">
	<advance width="0"/>
	<anchor x="-74.5" y="700" name="_top"/>
	<outline>
		<contour>
			<point x="-75" y="747.5" type="curve" smooth="yes"/>
			<point x="-53" y="747.5"/>
			<point x="-35" y="765.5"/>
			<point x="-35" y="787.5" type="curve" smooth="yes"/>
			<point x="-35" y="809.5"/>
			<point x="-53" y="827.5"/>
			<point x="-75" y="827.5" type="curve" smooth="yes"/>
			<point x="-96.5" y="827.5"/>
			<point x="-115" y="809.5"/>
			<point x="-115" y="787.5" type="curve" smooth="yes"/>
			<point x="-115" y="765.5"/>
			<point x="-96.5" y="747.5"/>
		</contour>
	</outline>
</glyph>
